<mxfile host="app.diagrams.net" agent="Mozilla/5.0 (Windows NT 10.0; Win64; x64) AppleWebKit/537.36 (KHTML, like Gecko) Chrome/131.0.0.0 Safari/537.36" version="25.0.3">
  <diagram name="Page-1" id="j7TQRtOZAj2QPt2DK18L">
    <mxGraphModel dx="3901" dy="2909" grid="1" gridSize="10" guides="1" tooltips="1" connect="1" arrows="1" fold="1" page="1" pageScale="1" pageWidth="827" pageHeight="1169" math="0" shadow="0">
      <root>
        <mxCell id="0" />
        <mxCell id="1" parent="0" />
        <mxCell id="4FWtqKkLlV3kMwXZtPkh-30" value="&lt;p style=&quot;margin:0px;margin-top:4px;text-align:center;&quot;&gt;&lt;b&gt;EmailValidator&lt;/b&gt;&lt;/p&gt;&lt;hr size=&quot;1&quot;/&gt;" style="verticalAlign=top;align=left;overflow=fill;fontSize=14;fontFamily=Helvetica;html=1;rounded=0;shadow=0;comic=0;labelBackgroundColor=none;strokeWidth=1;" parent="1" vertex="1">
          <mxGeometry x="503" y="1227" width="160" height="30" as="geometry" />
        </mxCell>
        <mxCell id="4FWtqKkLlV3kMwXZtPkh-31" value="&lt;p style=&quot;margin:0px;margin-top:4px;text-align:center;&quot;&gt;&lt;b&gt;FriendManager&lt;/b&gt;&lt;/p&gt;&lt;hr size=&quot;1&quot;/&gt;" style="verticalAlign=top;align=left;overflow=fill;fontSize=14;fontFamily=Helvetica;html=1;rounded=0;shadow=0;comic=0;labelBackgroundColor=none;strokeWidth=1;" parent="1" vertex="1">
          <mxGeometry x="701" y="654" width="167" height="30" as="geometry" />
        </mxCell>
        <mxCell id="4FWtqKkLlV3kMwXZtPkh-32" value="&lt;p style=&quot;margin:0px;margin-top:4px;text-align:center;&quot;&gt;&lt;b&gt;PasswordHasher&lt;/b&gt;&lt;/p&gt;&lt;hr size=&quot;1&quot;/&gt;" style="verticalAlign=top;align=left;overflow=fill;fontSize=14;fontFamily=Helvetica;html=1;rounded=0;shadow=0;comic=0;labelBackgroundColor=none;strokeWidth=1;" parent="1" vertex="1">
          <mxGeometry x="243" y="-13" width="182" height="30" as="geometry" />
        </mxCell>
        <mxCell id="4FWtqKkLlV3kMwXZtPkh-33" value="&lt;p style=&quot;margin:0px;margin-top:4px;text-align:center;&quot;&gt;&lt;b&gt;User&lt;/b&gt;&lt;/p&gt;&lt;hr size=&quot;1&quot;/&gt;&lt;p style=&quot;margin:0 0 0 4px;line-height:1.6;&quot;&gt;- email: String&lt;br/&gt;- userID: String&lt;br/&gt;- password: String&lt;br/&gt;- profile: Profile&lt;br/&gt;- dateOfBirth: String&lt;br/&gt;- username: String&lt;br/&gt;- status: String&lt;/p&gt;&lt;hr size=&quot;1&quot;/&gt;&lt;p style=&quot;margin:0 0 0 4px;line-height:1.6;&quot;&gt; password: String&lt;br/&gt; dateOfBirth: String&lt;br/&gt; email: String&lt;br/&gt; profile: Profile&lt;br/&gt; status: String&lt;br/&gt; username: String&lt;br/&gt; userID: String&lt;/p&gt;" style="verticalAlign=top;align=left;overflow=fill;fontSize=14;fontFamily=Helvetica;html=1;rounded=0;shadow=0;comic=0;labelBackgroundColor=none;strokeWidth=1;" parent="1" vertex="1">
          <mxGeometry x="160" y="643" width="161" height="377" as="geometry" />
        </mxCell>
        <mxCell id="4FWtqKkLlV3kMwXZtPkh-34" value="&lt;p style=&quot;margin:0px;margin-top:4px;text-align:center;&quot;&gt;&lt;b&gt;UserBuilderConcerete&lt;/b&gt;&lt;/p&gt;&lt;hr size=&quot;1&quot;&gt;&lt;p style=&quot;margin:0 0 0 4px;line-height:1.6;&quot;&gt;- username: String&lt;br&gt;- password: String&lt;br&gt;- status: String&lt;br&gt;- userID: String&lt;br&gt;- email: String&lt;br&gt;- dateOfBirth: String&lt;br&gt;- profile: Profile&lt;/p&gt;&lt;hr size=&quot;1&quot;&gt;&lt;p style=&quot;margin:0 0 0 4px;line-height:1.6;&quot;&gt;&lt;br&gt;&lt;/p&gt;" style="verticalAlign=top;align=left;overflow=fill;fontSize=14;fontFamily=Helvetica;html=1;rounded=0;shadow=0;comic=0;labelBackgroundColor=none;strokeWidth=1;" parent="1" vertex="1">
          <mxGeometry x="-470" y="1040" width="225" height="250" as="geometry" />
        </mxCell>
        <mxCell id="4FWtqKkLlV3kMwXZtPkh-35" value="&lt;p style=&quot;margin:0px;margin-top:4px;text-align:center;&quot;&gt;&lt;i&gt;&amp;lt;&amp;lt;interface&amp;gt;&amp;gt;&lt;/i&gt;&lt;br&gt;&lt;b&gt;IUserDatabase&lt;/b&gt;&lt;/p&gt;&lt;hr size=&quot;1&quot;&gt;&lt;p style=&quot;margin:0 0 0 4px;line-height:1.6;&quot;&gt;+&amp;nbsp;addUser(User user): void&lt;/p&gt;&lt;p style=&quot;margin:0 0 0 4px;line-height:1.6;&quot;&gt;+ getUser(String userId): User&lt;/p&gt;&lt;p style=&quot;margin:0 0 0 4px;line-height:1.6;&quot;&gt;+ getUsers(): List&amp;lt;Users&amp;gt;&lt;/p&gt;" style="verticalAlign=top;align=left;overflow=fill;fontSize=14;fontFamily=Helvetica;html=1;rounded=0;shadow=0;comic=0;labelBackgroundColor=none;strokeWidth=1;" parent="1" vertex="1">
          <mxGeometry x="945" y="684" width="205" height="126" as="geometry" />
        </mxCell>
        <mxCell id="4FWtqKkLlV3kMwXZtPkh-36" value="&lt;p style=&quot;margin:0px;margin-top:4px;text-align:center;&quot;&gt;&lt;b&gt;UserDataBase&lt;/b&gt;&lt;/p&gt;&lt;hr size=&quot;1&quot;&gt;&lt;p style=&quot;margin:0 0 0 4px;line-height:1.6;&quot;&gt;- userDataBase: UserDataBase&lt;br&gt;- numberOfUsers: int&lt;br&gt;- users_json: String&lt;/p&gt;&lt;p style=&quot;margin:0 0 0 4px;line-height:1.6;&quot;&gt;- users: List&amp;lt;User&amp;gt;&lt;/p&gt;&lt;hr size=&quot;1&quot;&gt;&lt;p style=&quot;margin:0 0 0 4px;line-height:1.6;&quot;&gt;+&amp;nbsp;getUserDataBase() : UserDataBase&lt;/p&gt;&lt;p style=&quot;margin:0 0 0 4px;line-height:1.6;&quot;&gt;+&amp;nbsp;&amp;nbsp;numberOfJSONOBJECTS() : void&lt;/p&gt;&lt;p style=&quot;margin:0 0 0 4px;line-height:1.6;&quot;&gt;+&amp;nbsp;&amp;nbsp;innerLoad(): void&lt;/p&gt;" style="verticalAlign=top;align=left;overflow=fill;fontSize=14;fontFamily=Helvetica;html=1;rounded=0;shadow=0;comic=0;labelBackgroundColor=none;strokeWidth=1;" parent="1" vertex="1">
          <mxGeometry x="561" y="820" width="257" height="218" as="geometry" />
        </mxCell>
        <mxCell id="4FWtqKkLlV3kMwXZtPkh-37" value="&lt;p style=&quot;margin:0px;margin-top:4px;text-align:center;&quot;&gt;&lt;i&gt;&amp;lt;&amp;lt;interface&amp;gt;&amp;gt;&lt;/i&gt;&lt;br/&gt;&lt;b&gt;UserInterface&lt;/b&gt;&lt;/p&gt;&lt;hr size=&quot;1&quot;/&gt;&lt;p style=&quot;margin:0 0 0 4px;line-height:1.6;&quot;&gt; password: String&lt;br/&gt; profile: Profile&lt;br/&gt; username: String&lt;br/&gt; dateOfBirth: String&lt;br/&gt; email: String&lt;br/&gt; userID: String&lt;/p&gt;" style="verticalAlign=top;align=left;overflow=fill;fontSize=14;fontFamily=Helvetica;html=1;rounded=0;shadow=0;comic=0;labelBackgroundColor=none;strokeWidth=1;" parent="1" vertex="1">
          <mxGeometry x="400" y="80" width="161" height="183" as="geometry" />
        </mxCell>
        <mxCell id="4FWtqKkLlV3kMwXZtPkh-38" value="&lt;p style=&quot;margin:0px;margin-top:4px;text-align:center;&quot;&gt;&lt;i&gt;&amp;lt;&amp;lt;interface&amp;gt;&amp;gt;&lt;/i&gt;&lt;br/&gt;&lt;b&gt;UserInterfaceID&lt;/b&gt;&lt;/p&gt;&lt;hr size=&quot;1&quot;/&gt;&lt;p style=&quot;margin:0 0 0 4px;line-height:1.6;&quot;&gt; profile: Profile&lt;br/&gt; userID: String&lt;/p&gt;" style="verticalAlign=top;align=left;overflow=fill;fontSize=14;fontFamily=Helvetica;html=1;rounded=0;shadow=0;comic=0;labelBackgroundColor=none;strokeWidth=1;" parent="1" vertex="1">
          <mxGeometry x="490" y="447" width="173" height="109" as="geometry" />
        </mxCell>
        <mxCell id="4FWtqKkLlV3kMwXZtPkh-39" value="&lt;p style=&quot;margin:0px;margin-top:4px;text-align:center;&quot;&gt;&lt;b&gt;UserNameChecker&lt;/b&gt;&lt;/p&gt;&lt;hr size=&quot;1&quot;/&gt;" style="verticalAlign=top;align=left;overflow=fill;fontSize=14;fontFamily=Helvetica;html=1;rounded=0;shadow=0;comic=0;labelBackgroundColor=none;strokeWidth=1;" parent="1" vertex="1">
          <mxGeometry x="210" y="1220" width="197" height="30" as="geometry" />
        </mxCell>
        <mxCell id="4FWtqKkLlV3kMwXZtPkh-40" value="" style="html=1;rounded=1;edgeStyle=orthogonalEdgeStyle;dashed=0;startArrow=diamondThinstartSize=12;endArrow=openThin;endSize=12;strokeColor=#595959;exitX=0.500;exitY=0.001;exitDx=0;exitDy=0;entryX=0.500;entryY=1.000;entryDx=0;entryDy=0;" parent="1" source="4FWtqKkLlV3kMwXZtPkh-30" target="4FWtqKkLlV3kMwXZtPkh-36" edge="1">
          <mxGeometry width="50" height="50" relative="1" as="geometry">
            <Array as="points">
              <mxPoint x="583" y="1090" />
              <mxPoint x="560" y="1090" />
              <mxPoint x="560" y="1082" />
              <mxPoint x="552" y="1082" />
            </Array>
          </mxGeometry>
        </mxCell>
        <mxCell id="4FWtqKkLlV3kMwXZtPkh-41" value="1" style="edgeLabel;resizable=0;html=1;align=left;verticalAlign=top;strokeColor=default;" parent="4FWtqKkLlV3kMwXZtPkh-40" vertex="1" connectable="0">
          <mxGeometry x="546" y="1095" as="geometry" />
        </mxCell>
        <mxCell id="4FWtqKkLlV3kMwXZtPkh-42" value="1" style="edgeLabel;resizable=0;html=1;align=left;verticalAlign=top;strokeColor=default;" parent="4FWtqKkLlV3kMwXZtPkh-40" vertex="1" connectable="0">
          <mxGeometry x="548" y="1062" as="geometry" />
        </mxCell>
        <mxCell id="4FWtqKkLlV3kMwXZtPkh-43" value="userRepository" style="edgeLabel;resizable=0;html=1;align=left;verticalAlign=top;strokeColor=default;" parent="4FWtqKkLlV3kMwXZtPkh-40" vertex="1" connectable="0">
          <mxGeometry x="500" y="1052" as="geometry" />
        </mxCell>
        <mxCell id="4FWtqKkLlV3kMwXZtPkh-44" value="" style="html=1;rounded=1;edgeStyle=orthogonalEdgeStyle;dashed=0;startArrow=diamondThinstartSize=12;endArrow=openThin;endSize=12;strokeColor=#595959;exitX=0.000;exitY=0.500;exitDx=0;exitDy=0;entryX=0.500;entryY=1.000;entryDx=0;entryDy=0;" parent="1" source="4FWtqKkLlV3kMwXZtPkh-31" target="4FWtqKkLlV3kMwXZtPkh-38" edge="1">
          <mxGeometry width="50" height="50" relative="1" as="geometry">
            <Array as="points">
              <mxPoint x="668" y="668" />
              <mxPoint x="668" y="655" />
              <mxPoint x="577" y="655" />
            </Array>
          </mxGeometry>
        </mxCell>
        <mxCell id="4FWtqKkLlV3kMwXZtPkh-45" value="1" style="edgeLabel;resizable=0;html=1;align=left;verticalAlign=top;strokeColor=default;" parent="4FWtqKkLlV3kMwXZtPkh-44" vertex="1" connectable="0">
          <mxGeometry x="672" y="651" as="geometry" />
        </mxCell>
        <mxCell id="4FWtqKkLlV3kMwXZtPkh-46" value="1" style="edgeLabel;resizable=0;html=1;align=left;verticalAlign=top;strokeColor=default;" parent="4FWtqKkLlV3kMwXZtPkh-44" vertex="1" connectable="0">
          <mxGeometry x="581" y="565" as="geometry" />
        </mxCell>
        <mxCell id="4FWtqKkLlV3kMwXZtPkh-47" value="client" style="edgeLabel;resizable=0;html=1;align=left;verticalAlign=top;strokeColor=default;" parent="4FWtqKkLlV3kMwXZtPkh-44" vertex="1" connectable="0">
          <mxGeometry x="577" y="565" as="geometry" />
        </mxCell>
        <mxCell id="4FWtqKkLlV3kMwXZtPkh-48" value="" style="html=1;rounded=1;edgeStyle=orthogonalEdgeStyle;dashed=0;startArrow=diamondThinstartSize=12;endArrow=openThin;endSize=12;strokeColor=#595959;exitX=0.500;exitY=0.000;exitDx=0;exitDy=0;entryX=1.000;entryY=0.471;entryDx=0;entryDy=0;" parent="1" edge="1">
          <mxGeometry width="50" height="50" relative="1" as="geometry">
            <Array as="points">
              <mxPoint x="538" y="589" />
              <mxPoint x="202" y="589" />
              <mxPoint x="202" y="550" />
            </Array>
            <mxPoint x="538" y="672" as="sourcePoint" />
            <mxPoint x="-208.00000000000045" y="602.3510000000001" as="targetPoint" />
          </mxGeometry>
        </mxCell>
        <mxCell id="4FWtqKkLlV3kMwXZtPkh-49" value="1" style="edgeLabel;resizable=0;html=1;align=left;verticalAlign=top;strokeColor=default;" parent="4FWtqKkLlV3kMwXZtPkh-48" vertex="1" connectable="0">
          <mxGeometry x="183" y="530" as="geometry" />
        </mxCell>
        <mxCell id="4FWtqKkLlV3kMwXZtPkh-50" value="1" style="edgeLabel;resizable=0;html=1;align=left;verticalAlign=top;strokeColor=default;" parent="4FWtqKkLlV3kMwXZtPkh-48" vertex="1" connectable="0">
          <mxGeometry x="157" y="530" as="geometry" />
        </mxCell>
        <mxCell id="4FWtqKkLlV3kMwXZtPkh-51" value="profile" style="edgeLabel;resizable=0;html=1;align=left;verticalAlign=top;strokeColor=default;" parent="4FWtqKkLlV3kMwXZtPkh-48" vertex="1" connectable="0">
          <mxGeometry x="163" y="521" as="geometry" />
        </mxCell>
        <mxCell id="4FWtqKkLlV3kMwXZtPkh-52" value="" style="html=1;rounded=1;edgeStyle=orthogonalEdgeStyle;dashed=0;startArrow=diamondThinstartSize=12;endArrow=openThin;endSize=12;strokeColor=#595959;exitX=0.500;exitY=0.002;exitDx=0;exitDy=0;entryX=0.500;entryY=1.000;entryDx=0;entryDy=0;" parent="1" edge="1">
          <mxGeometry width="50" height="50" relative="1" as="geometry">
            <Array as="points">
              <mxPoint x="258" y="1102" />
              <mxPoint x="536" y="1102" />
            </Array>
            <mxPoint x="308.4999999999998" y="1240" as="sourcePoint" />
            <mxPoint x="551.5" y="1110" as="targetPoint" />
          </mxGeometry>
        </mxCell>
        <mxCell id="4FWtqKkLlV3kMwXZtPkh-53" value="1" style="edgeLabel;resizable=0;html=1;align=left;verticalAlign=top;strokeColor=default;" parent="4FWtqKkLlV3kMwXZtPkh-52" vertex="1" connectable="0">
          <mxGeometry x="247" y="1084" as="geometry" />
        </mxCell>
        <mxCell id="4FWtqKkLlV3kMwXZtPkh-54" value="1" style="edgeLabel;resizable=0;html=1;align=left;verticalAlign=top;strokeColor=default;" parent="4FWtqKkLlV3kMwXZtPkh-52" vertex="1" connectable="0">
          <mxGeometry x="247" y="1074" as="geometry" />
        </mxCell>
        <mxCell id="4FWtqKkLlV3kMwXZtPkh-55" value="userRepository" style="edgeLabel;resizable=0;html=1;align=left;verticalAlign=top;strokeColor=default;" parent="4FWtqKkLlV3kMwXZtPkh-52" vertex="1" connectable="0">
          <mxGeometry x="258" y="1079" as="geometry" />
        </mxCell>
        <mxCell id="4FWtqKkLlV3kMwXZtPkh-56" value="&amp;lt;&amp;lt;Interface&amp;gt;&amp;gt;&lt;div&gt;FriendsInterface&lt;/div&gt;" style="swimlane;fontStyle=0;childLayout=stackLayout;horizontal=1;startSize=26;fillColor=none;horizontalStack=0;resizeParent=1;resizeParentMax=0;resizeLast=0;collapsible=1;marginBottom=0;whiteSpace=wrap;html=1;" parent="1" vertex="1">
          <mxGeometry x="-260" y="-290" width="140" height="328" as="geometry" />
        </mxCell>
        <mxCell id="4FWtqKkLlV3kMwXZtPkh-57" value="Blocked:List&amp;lt;String&amp;gt;" style="text;strokeColor=none;fillColor=none;align=left;verticalAlign=top;spacingLeft=4;spacingRight=4;overflow=hidden;rotatable=0;points=[[0,0.5],[1,0.5]];portConstraint=eastwest;whiteSpace=wrap;html=1;" parent="4FWtqKkLlV3kMwXZtPkh-56" vertex="1">
          <mxGeometry y="26" width="140" height="26" as="geometry" />
        </mxCell>
        <mxCell id="4FWtqKkLlV3kMwXZtPkh-58" value="Pending:List&amp;lt;String&amp;gt;" style="text;strokeColor=none;fillColor=none;align=left;verticalAlign=top;spacingLeft=4;spacingRight=4;overflow=hidden;rotatable=0;points=[[0,0.5],[1,0.5]];portConstraint=eastwest;whiteSpace=wrap;html=1;" parent="4FWtqKkLlV3kMwXZtPkh-56" vertex="1">
          <mxGeometry y="52" width="140" height="26" as="geometry" />
        </mxCell>
        <mxCell id="4FWtqKkLlV3kMwXZtPkh-59" value="friends: List&amp;lt;String&amp;gt;" style="text;strokeColor=none;fillColor=none;align=left;verticalAlign=top;spacingLeft=4;spacingRight=4;overflow=hidden;rotatable=0;points=[[0,0.5],[1,0.5]];portConstraint=eastwest;whiteSpace=wrap;html=1;" parent="4FWtqKkLlV3kMwXZtPkh-56" vertex="1">
          <mxGeometry y="78" width="140" height="26" as="geometry" />
        </mxCell>
        <mxCell id="4FWtqKkLlV3kMwXZtPkh-60" value="" style="line;strokeWidth=1;fillColor=none;align=left;verticalAlign=middle;spacingTop=-1;spacingLeft=3;spacingRight=3;rotatable=0;labelPosition=right;points=[];portConstraint=eastwest;strokeColor=inherit;" parent="4FWtqKkLlV3kMwXZtPkh-56" vertex="1">
          <mxGeometry y="104" width="140" height="8" as="geometry" />
        </mxCell>
        <mxCell id="4FWtqKkLlV3kMwXZtPkh-61" value="+getFriend&lt;span style=&quot;color: rgba(0, 0, 0, 0); font-family: monospace; font-size: 0px; text-wrap-mode: nowrap;&quot;&gt;%3CmxGraphModel%3E%3Croot%3E%3CmxCell%20id%3D%220%22%2F%3E%3CmxCell%20id%3D%221%22%20parent%3D%220%22%2F%3E%3CmxCell%20id%3D%222%22%20value%3D%22friends%3A%20List%26amp%3Blt%3BString%26amp%3Bgt%3B%22%20style%3D%22text%3BstrokeColor%3Dnone%3BfillColor%3Dnone%3Balign%3Dleft%3BverticalAlign%3Dtop%3BspacingLeft%3D4%3BspacingRight%3D4%3Boverflow%3Dhidden%3Brotatable%3D0%3Bpoints%3D%5B%5B0%2C0.5%5D%2C%5B1%2C0.5%5D%5D%3BportConstraint%3Deastwest%3BwhiteSpace%3Dwrap%3Bhtml%3D1%3B%22%20vertex%3D%221%22%20parent%3D%221%22%3E%3CmxGeometry%20x%3D%22466%22%20y%3D%22-248%22%20width%3D%22140%22%20height%3D%2226%22%20as%3D%22geometry%22%2F%3E%3C%2FmxCell%3E%3C%2Froot%3E%3C%2FmxGraphModel%3E&lt;/span&gt;s():Friends&lt;div&gt;&lt;br&gt;&lt;/div&gt;" style="text;strokeColor=none;fillColor=none;align=left;verticalAlign=top;spacingLeft=4;spacingRight=4;overflow=hidden;rotatable=0;points=[[0,0.5],[1,0.5]];portConstraint=eastwest;whiteSpace=wrap;html=1;" parent="4FWtqKkLlV3kMwXZtPkh-56" vertex="1">
          <mxGeometry y="112" width="140" height="26" as="geometry" />
        </mxCell>
        <mxCell id="4FWtqKkLlV3kMwXZtPkh-62" value="" style="line;strokeWidth=1;fillColor=none;align=left;verticalAlign=middle;spacingTop=-1;spacingLeft=3;spacingRight=3;rotatable=0;labelPosition=right;points=[];portConstraint=eastwest;strokeColor=inherit;" parent="4FWtqKkLlV3kMwXZtPkh-56" vertex="1">
          <mxGeometry y="138" width="140" height="8" as="geometry" />
        </mxCell>
        <mxCell id="4FWtqKkLlV3kMwXZtPkh-63" value="&lt;div&gt;+addFriend(User):Void&lt;/div&gt;" style="text;strokeColor=none;fillColor=none;align=left;verticalAlign=top;spacingLeft=4;spacingRight=4;overflow=hidden;rotatable=0;points=[[0,0.5],[1,0.5]];portConstraint=eastwest;whiteSpace=wrap;html=1;" parent="4FWtqKkLlV3kMwXZtPkh-56" vertex="1">
          <mxGeometry y="146" width="140" height="26" as="geometry" />
        </mxCell>
        <mxCell id="4FWtqKkLlV3kMwXZtPkh-64" value="&lt;div&gt;+getPending():List&lt;span style=&quot;color: rgba(0, 0, 0, 0); font-family: monospace; font-size: 0px; text-wrap-mode: nowrap; background-color: initial;&quot;&gt;%3CmxGraphModel%3E%3Croot%3E%3CmxCell%20id%3D%220%22%2F%3E%3CmxCell%20id%3D%221%22%20parent%3D%220%22%2F%3E%3CmxCell%20id%3D%222%22%20value%3D%22%2BgetFriend%26lt%3Bspan%20style%3D%26quot%3Bcolor%3A%20rgba(0%2C%200%2C%200%2C%200)%3B%20font-family%3A%20monospace%3B%20font-size%3A%200px%3B%20text-wrap-mode%3A%20nowrap%3B%26quot%3B%26gt%3B%253CmxGraphModel%253E%253Croot%253E%253CmxCell%2520id%253D%25220%2522%252F%253E%253CmxCell%2520id%253D%25221%2522%2520parent%253D%25220%2522%252F%253E%253CmxCell%2520id%253D%25222%2522%2520value%253D%2522friends%253A%2520List%2526amp%253Blt%253BString%2526amp%253Bgt%253B%2522%2520style%253D%2522text%253BstrokeColor%253Dnone%253BfillColor%253Dnone%253Balign%253Dleft%253BverticalAlign%253Dtop%253BspacingLeft%253D4%253BspacingRight%253D4%253Boverflow%253Dhidden%253Brotatable%253D0%253Bpoints%253D%255B%255B0%252C0.5%255D%252C%255B1%252C0.5%255D%255D%253BportConstraint%253Deastwest%253BwhiteSpace%253Dwrap%253Bhtml%253D1%253B%2522%2520vertex%253D%25221%2522%2520parent%253D%25221%2522%253E%253CmxGeometry%2520x%253D%2522466%2522%2520y%253D%2522-248%2522%2520width%253D%2522140%2522%2520height%253D%252226%2522%2520as%253D%2522geometry%2522%252F%253E%253C%252FmxCell%253E%253C%252Froot%253E%253C%252FmxGraphModel%253E%26lt%3B%2Fspan%26gt%3Bs()%3AFriends%26lt%3Bdiv%26gt%3B%26lt%3Bbr%26gt%3B%26lt%3B%2Fdiv%26gt%3B%22%20style%3D%22text%3BstrokeColor%3Dnone%3BfillColor%3Dnone%3Balign%3Dleft%3BverticalAlign%3Dtop%3BspacingLeft%3D4%3BspacingRight%3D4%3Boverflow%3Dhidden%3Brotatable%3D0%3Bpoints%3D%5B%5B0%2C0.5%5D%2C%5B1%2C0.5%5D%5D%3BportConstraint%3Deastwest%3BwhiteSpace%3Dwrap%3Bhtml%3D1%3B%22%20vertex%3D%221%22%20parent%3D%221%22%3E%3CmxGeometry%20x%3D%22466%22%20y%3D%22-248%22%20width%3D%22140%22%20height%3D%2226%22%20as%3D%22geometry%22%2F%3E%3C%2FmxCell%3E%3C%2Froot%3E%3C%2FmxGraphModel%3E&lt;/span&gt;&lt;span style=&quot;background-color: initial; color: rgba(0, 0, 0, 0); font-family: monospace; font-size: 0px; text-wrap-mode: nowrap;&quot;&gt;%3CmxGraphModel%3E%3Croot%3E%3CmxCell%20id%3D%220%22%2F%3E%3CmxCell%20id%3D%221%22%20parent%3D%220%22%2F%3E%3CmxCell%20id%3D%222%22%20value%3D%22%2BgetFriend%26lt%3Bspan%20style%3D%26quot%3Bcolor%3A%20rgba(0%2C%200%2C%200%2C%200)%3B%20font-family%3A%20monospace%3B%20font-size%3A%200px%3B%20text-wrap-mode%3A%20nowrap%3B%26quot%3B%26gt%3B%253CmxGraphModel%253E%253Croot%253E%253CmxCell%2520id%253D%25220%2522%252F%253E%253CmxCell%2520id%253D%25221%2522%2520parent%253D%25220%2522%252F%253E%253CmxCell%2520id%253D%25222%2522%2520value%253D%2522friends%253A%2520List%2526amp%253Blt%253BString%2526amp%253Bgt%253B%2522%2520style%253D%2522text%253BstrokeColor%253Dnone%253BfillColor%253Dnone%253Balign%253Dleft%253BverticalAlign%253Dtop%253BspacingLeft%253D4%253BspacingRight%253D4%253Boverflow%253Dhidden%253Brotatable%253D0%253Bpoints%253D%255B%255B0%252C0.5%255D%252C%255B1%252C0.5%255D%255D%253BportConstraint%253Deastwest%253BwhiteSpace%253Dwrap%253Bhtml%253D1%253B%2522%2520vertex%253D%25221%2522%2520parent%253D%25221%2522%253E%253CmxGeometry%2520x%253D%2522466%2522%2520y%253D%2522-248%2522%2520width%253D%2522140%2522%2520height%253D%252226%2522%2520as%253D%2522geometry%2522%252F%253E%253C%252FmxCell%253E%253C%252Froot%253E%253C%252FmxGraphModel%253E%26lt%3B%2Fspan%26gt%3Bs()%3AFriends%26lt%3Bdiv%26gt%3B%26lt%3Bbr%26gt%3B%26lt%3B%2Fdiv%26gt%3B%22%20style%3D%22text%3BstrokeColor%3Dnone%3BfillColor%3Dnone%3Balign%3Dleft%3BverticalAlign%3Dtop%3BspacingLeft%3D4%3BspacingRight%3D4%3Boverflow%3Dhidden%3Brotatable%3D0%3Bpoints%3D%5B%5B0%2C0.5%5D%2C%5B1%2C0.5%5D%5D%3BportConstraint%3Deastwest%3BwhiteSpace%3Dwrap%3Bhtml%3D1%3B%22%20vertex%3D%221%22%20parent%3D%221%22%3E%3CmxGeometry%20x%3D%22466%22%20y%3D%22-248%22%20width%3D%22140%22%20height%3D%2226%22%20as%3D%22geometry%22%2F%3E%3C%2FmxCell%3E%3C%2Froot%3E%3C%2FmxGraphModel%3E&lt;/span&gt;&lt;/div&gt;&lt;div&gt;&lt;br&gt;&lt;/div&gt;" style="text;strokeColor=none;fillColor=none;align=left;verticalAlign=top;spacingLeft=4;spacingRight=4;overflow=hidden;rotatable=0;points=[[0,0.5],[1,0.5]];portConstraint=eastwest;whiteSpace=wrap;html=1;" parent="4FWtqKkLlV3kMwXZtPkh-56" vertex="1">
          <mxGeometry y="172" width="140" height="26" as="geometry" />
        </mxCell>
        <mxCell id="4FWtqKkLlV3kMwXZtPkh-65" value="&lt;div&gt;+addPending(User )&lt;/div&gt;&lt;div&gt;&lt;span style=&quot;color: rgba(0, 0, 0, 0); font-family: monospace; font-size: 0px; text-wrap-mode: nowrap;&quot;&gt;%3CmxGraphModel%3E%3Croot%3E%3CmxCell%20id%3D%220%22%2F%3E%3CmxCell%20id%3D%221%22%20parent%3D%220%22%2F%3E%3CmxCell%20id%3D%222%22%20value%3D%22%26lt%3Bdiv%26gt%3B%2BgetPending()%3AList%26lt%3Bspan%20style%3D%26quot%3Bcolor%3A%20rgba(0%2C%200%2C%200%2C%200)%3B%20font-family%3A%20monospace%3B%20font-size%3A%200px%3B%20text-wrap-mode%3A%20nowrap%3B%20background-color%3A%20initial%3B%26quot%3B%26gt%3B%253CmxGraphModel%253E%253Croot%253E%253CmxCell%2520id%253D%25220%2522%252F%253E%253CmxCell%2520id%253D%25221%2522%2520parent%253D%25220%2522%252F%253E%253CmxCell%2520id%253D%25222%2522%2520value%253D%2522%252BgetFriend%2526lt%253Bspan%2520style%253D%2526quot%253Bcolor%253A%2520rgba(0%252C%25200%252C%25200%252C%25200)%253B%2520font-family%253A%2520monospace%253B%2520font-size%253A%25200px%253B%2520text-wrap-mode%253A%2520nowrap%253B%2526quot%253B%2526gt%253B%25253CmxGraphModel%25253E%25253Croot%25253E%25253CmxCell%252520id%25253D%2525220%252522%25252F%25253E%25253CmxCell%252520id%25253D%2525221%252522%252520parent%25253D%2525220%252522%25252F%25253E%25253CmxCell%252520id%25253D%2525222%252522%252520value%25253D%252522friends%25253A%252520List%252526amp%25253Blt%25253BString%252526amp%25253Bgt%25253B%252522%252520style%25253D%252522text%25253BstrokeColor%25253Dnone%25253BfillColor%25253Dnone%25253Balign%25253Dleft%25253BverticalAlign%25253Dtop%25253BspacingLeft%25253D4%25253BspacingRight%25253D4%25253Boverflow%25253Dhidden%25253Brotatable%25253D0%25253Bpoints%25253D%25255B%25255B0%25252C0.5%25255D%25252C%25255B1%25252C0.5%25255D%25255D%25253BportConstraint%25253Deastwest%25253BwhiteSpace%25253Dwrap%25253Bhtml%25253D1%25253B%252522%252520vertex%25253D%2525221%252522%252520parent%25253D%2525221%252522%25253E%25253CmxGeometry%252520x%25253D%252522466%252522%252520y%25253D%252522-248%252522%252520width%25253D%252522140%252522%252520height%25253D%25252226%252522%252520as%25253D%252522geometry%252522%25252F%25253E%25253C%25252FmxCell%25253E%25253C%25252Froot%25253E%25253C%25252FmxGraphModel%25253E%2526lt%253B%252Fspan%2526gt%253Bs()%253AFriends%2526lt%253Bdiv%2526gt%253B%2526lt%253Bbr%2526gt%253B%2526lt%253B%252Fdiv%2526gt%253B%2522%2520style%253D%2522text%253BstrokeColor%253Dnone%253BfillColor%253Dnone%253Balign%253Dleft%253BverticalAlign%253Dtop%253BspacingLeft%253D4%253BspacingRight%253D4%253Boverflow%253Dhidden%253Brotatable%253D0%253Bpoints%253D%255B%255B0%252C0.5%255D%252C%255B1%252C0.5%255D%255D%253BportConstraint%253Deastwest%253BwhiteSpace%253Dwrap%253Bhtml%253D1%253B%2522%2520vertex%253D%25221%2522%2520parent%253D%25221%2522%253E%253CmxGeometry%2520x%253D%2522466%2522%2520y%253D%2522-248%2522%2520width%253D%2522140%2522%2520height%253D%252226%2522%2520as%253D%2522geometry%2522%252F%253E%253C%252FmxCell%253E%253C%252Froot%253E%253C%252FmxGraphModel%253E%26lt%3B%2Fspan%26gt%3B%26lt%3Bspan%20style%3D%26quot%3Bbackground-color%3A%20initial%3B%20color%3A%20rgba(0%2C%200%2C%200%2C%200)%3B%20font-family%3A%20monospace%3B%20font-size%3A%200px%3B%20text-wrap-mode%3A%20nowrap%3B%26quot%3B%26gt%3B%253CmxGraphModel%253E%253Croot%253E%253CmxCell%2520id%253D%25220%2522%252F%253E%253CmxCell%2520id%253D%25221%2522%2520parent%253D%25220%2522%252F%253E%253CmxCell%2520id%253D%25222%2522%2520value%253D%2522%252BgetFriend%2526lt%253Bspan%2520style%253D%2526quot%253Bcolor%253A%2520rgba(0%252C%25200%252C%25200%252C%25200)%253B%2520font-family%253A%2520monospace%253B%2520font-size%253A%25200px%253B%2520text-wrap-mode%253A%2520nowrap%253B%2526quot%253B%2526gt%253B%25253CmxGraphModel%25253E%25253Croot%25253E%25253CmxCell%252520id%25253D%2525220%252522%25252F%25253E%25253CmxCell%252520id%25253D%2525221%252522%252520parent%25253D%2525220%252522%25252F%25253E%25253CmxCell%252520id%25253D%2525222%252522%252520value%25253D%252522friends%25253A%252520List%252526amp%25253Blt%25253BString%252526amp%25253Bgt%25253B%252522%252520style%25253D%252522text%25253BstrokeColor%25253Dnone%25253BfillColor%25253Dnone%25253Balign%25253Dleft%25253BverticalAlign%25253Dtop%25253BspacingLeft%25253D4%25253BspacingRight%25253D4%25253Boverflow%25253Dhidden%25253Brotatable%25253D0%25253Bpoints%25253D%25255B%25255B0%25252C0.5%25255D%25252C%25255B1%25252C0.5%25255D%25255D%25253BportConstraint%25253Deastwest%25253BwhiteSpace%25253Dwrap%25253Bhtml%25253D1%25253B%252522%252520vertex%25253D%2525221%252522%252520parent%25253D%2525221%252522%25253E%25253CmxGeometry%252520x%25253D%252522466%252522%252520y%25253D%252522-248%252522%252520width%25253D%252522140%252522%252520height%25253D%25252226%252522%252520as%25253D%252522geometry%252522%25252F%25253E%25253C%25252FmxCell%25253E%25253C%25252Froot%25253E%25253C%25252FmxGraphModel%25253E%2526lt%253B%252Fspan%2526gt%253Bs()%253AFriends%2526lt%253Bdiv%2526gt%253B%2526lt%253Bbr%2526gt%253B%2526lt%253B%252Fdiv%2526gt%253B%2522%2520style%253D%2522text%253BstrokeColor%253Dnone%253BfillColor%253Dnone%253Balign%253Dleft%253BverticalAlign%253Dtop%253BspacingLeft%253D4%253BspacingRight%253D4%253Boverflow%253Dhidden%253Brotatable%253D0%253Bpoints%253D%255B%255B0%252C0.5%255D%252C%255B1%252C0.5%255D%255D%253BportConstraint%253Deastwest%253BwhiteSpace%253Dwrap%253Bhtml%253D1%253B%2522%2520vertex%253D%25221%2522%2520parent%253D%25221%2522%253E%253CmxGeometry%2520x%253D%2522466%2522%2520y%253D%2522-248%2522%2520width%253D%2522140%2522%2520height%253D%252226%2522%2520as%253D%2522geometry%2522%252F%253E%253C%252FmxCell%253E%253C%252Froot%253E%253C%252FmxGraphModel%253E%26lt%3B%2Fspan%26gt%3B%26lt%3B%2Fdiv%26gt%3B%26lt%3Bdiv%26gt%3B%26lt%3Bbr%26gt%3B%26lt%3B%2Fdiv%26gt%3B%22%20style%3D%22text%3BstrokeColor%3Dnone%3BfillColor%3Dnone%3Balign%3Dleft%3BverticalAlign%3Dtop%3BspacingLeft%3D4%3BspacingRight%3D4%3Boverflow%3Dhidden%3Brotatable%3D0%3Bpoints%3D%5B%5B0%2C0.5%5D%2C%5B1%2C0.5%5D%5D%3BportConstraint%3Deastwest%3BwhiteSpace%3Dwrap%3Bhtml%3D1%3B%22%20vertex%3D%221%22%20parent%3D%221%22%3E%3CmxGeometry%20x%3D%22466%22%20y%3D%22-188%22%20width%3D%22140%22%20height%3D%2226%22%20as%3D%22geometry%22%2F%3E%3C%2FmxCell%3E%3C%2Froot%3E%3C%2FmxGraphModel%3E&lt;/span&gt;&lt;/div&gt;" style="text;strokeColor=none;fillColor=none;align=left;verticalAlign=top;spacingLeft=4;spacingRight=4;overflow=hidden;rotatable=0;points=[[0,0.5],[1,0.5]];portConstraint=eastwest;whiteSpace=wrap;html=1;" parent="4FWtqKkLlV3kMwXZtPkh-56" vertex="1">
          <mxGeometry y="198" width="140" height="26" as="geometry" />
        </mxCell>
        <mxCell id="4FWtqKkLlV3kMwXZtPkh-66" value="&lt;div&gt;+AddBlocked(User)&lt;/div&gt;" style="text;strokeColor=none;fillColor=none;align=left;verticalAlign=top;spacingLeft=4;spacingRight=4;overflow=hidden;rotatable=0;points=[[0,0.5],[1,0.5]];portConstraint=eastwest;whiteSpace=wrap;html=1;" parent="4FWtqKkLlV3kMwXZtPkh-56" vertex="1">
          <mxGeometry y="224" width="140" height="26" as="geometry" />
        </mxCell>
        <mxCell id="4FWtqKkLlV3kMwXZtPkh-67" value="&lt;div&gt;+removeFriend(User)&lt;span style=&quot;color: rgba(0, 0, 0, 0); font-family: monospace; font-size: 0px; text-wrap-mode: nowrap; background-color: initial;&quot;&gt;%3CmxGraphModel%3E%3Croot%3E%3CmxCell%20id%3D%220%22%2F%3E%3CmxCell%20id%3D%221%22%20parent%3D%220%22%2F%3E%3CmxCell%20id%3D%222%22%20value%3D%22%26lt%3Bdiv%26gt%3B%2BAddBlocked(User)%26lt%3B%2Fdiv%26gt%3B%22%20style%3D%22text%3BstrokeColor%3Dnone%3BfillColor%3Dnone%3Balign%3Dleft%3BverticalAlign%3Dtop%3BspacingLeft%3D4%3BspacingRight%3D4%3Boverflow%3Dhidden%3Brotatable%3D0%3Bpoints%3D%5B%5B0%2C0.5%5D%2C%5B1%2C0.5%5D%5D%3BportConstraint%3Deastwest%3BwhiteSpace%3Dwrap%3Bhtml%3D1%3B%22%20vertex%3D%221%22%20parent%3D%221%22%3E%3CmxGeometry%20x%3D%22466%22%20y%3D%22-136%22%20width%3D%22140%22%20height%3D%2226%22%20as%3D%22geometry%22%2F%3E%3C%2FmxCell%3E%3C%2Froot%3E%3C%2FmxGraphModel%3E&lt;/span&gt;&lt;/div&gt;" style="text;strokeColor=none;fillColor=none;align=left;verticalAlign=top;spacingLeft=4;spacingRight=4;overflow=hidden;rotatable=0;points=[[0,0.5],[1,0.5]];portConstraint=eastwest;whiteSpace=wrap;html=1;" parent="4FWtqKkLlV3kMwXZtPkh-56" vertex="1">
          <mxGeometry y="250" width="140" height="26" as="geometry" />
        </mxCell>
        <mxCell id="4FWtqKkLlV3kMwXZtPkh-68" value="&lt;div&gt;+acceptFriends(User)&lt;/div&gt;" style="text;strokeColor=none;fillColor=none;align=left;verticalAlign=top;spacingLeft=4;spacingRight=4;overflow=hidden;rotatable=0;points=[[0,0.5],[1,0.5]];portConstraint=eastwest;whiteSpace=wrap;html=1;" parent="4FWtqKkLlV3kMwXZtPkh-56" vertex="1">
          <mxGeometry y="276" width="140" height="26" as="geometry" />
        </mxCell>
        <mxCell id="4FWtqKkLlV3kMwXZtPkh-69" value="&lt;div&gt;+removeBlockes(&lt;/div&gt;&lt;div&gt;)&lt;/div&gt;" style="text;strokeColor=none;fillColor=none;align=left;verticalAlign=top;spacingLeft=4;spacingRight=4;overflow=hidden;rotatable=0;points=[[0,0.5],[1,0.5]];portConstraint=eastwest;whiteSpace=wrap;html=1;" parent="4FWtqKkLlV3kMwXZtPkh-56" vertex="1">
          <mxGeometry y="302" width="140" height="26" as="geometry" />
        </mxCell>
        <mxCell id="4FWtqKkLlV3kMwXZtPkh-70" value="" style="endArrow=block;dashed=1;endFill=0;endSize=12;html=1;rounded=0;exitX=0.455;exitY=0.002;exitDx=0;exitDy=0;exitPerimeter=0;" parent="1" source="4FWtqKkLlV3kMwXZtPkh-72" target="4FWtqKkLlV3kMwXZtPkh-56" edge="1">
          <mxGeometry width="160" relative="1" as="geometry">
            <mxPoint x="-495.7979999999998" y="181.48000000000002" as="sourcePoint" />
            <mxPoint x="-330" y="1.0900000000000318" as="targetPoint" />
          </mxGeometry>
        </mxCell>
        <mxCell id="4FWtqKkLlV3kMwXZtPkh-71" value="1" style="endArrow=open;html=1;endSize=12;startArrow=diamondThin;startSize=14;startFill=1;edgeStyle=orthogonalEdgeStyle;align=left;verticalAlign=bottom;rounded=0;" parent="1" target="4FWtqKkLlV3kMwXZtPkh-56" edge="1">
          <mxGeometry x="-0.9409" y="-1" relative="1" as="geometry">
            <mxPoint x="869" y="670" as="sourcePoint" />
            <mxPoint x="1150" y="-140" as="targetPoint" />
            <Array as="points">
              <mxPoint x="869" y="589" />
              <mxPoint x="-190" y="589" />
            </Array>
            <mxPoint y="-1" as="offset" />
          </mxGeometry>
        </mxCell>
        <mxCell id="4FWtqKkLlV3kMwXZtPkh-72" value="Friends" style="swimlane;fontStyle=0;childLayout=stackLayout;horizontal=1;startSize=26;fillColor=none;horizontalStack=0;resizeParent=1;resizeParentMax=0;resizeLast=0;collapsible=1;marginBottom=0;whiteSpace=wrap;html=1;" parent="1" vertex="1">
          <mxGeometry x="-540" y="210" width="140" height="104" as="geometry" />
        </mxCell>
        <mxCell id="4FWtqKkLlV3kMwXZtPkh-73" value="-Blocked: List&amp;lt;String&amp;gt;" style="text;strokeColor=none;fillColor=none;align=left;verticalAlign=top;spacingLeft=4;spacingRight=4;overflow=hidden;rotatable=0;points=[[0,0.5],[1,0.5]];portConstraint=eastwest;whiteSpace=wrap;html=1;" parent="4FWtqKkLlV3kMwXZtPkh-72" vertex="1">
          <mxGeometry y="26" width="140" height="26" as="geometry" />
        </mxCell>
        <mxCell id="4FWtqKkLlV3kMwXZtPkh-74" value="-friends: List&amp;lt;String&amp;gt;" style="text;strokeColor=none;fillColor=none;align=left;verticalAlign=top;spacingLeft=4;spacingRight=4;overflow=hidden;rotatable=0;points=[[0,0.5],[1,0.5]];portConstraint=eastwest;whiteSpace=wrap;html=1;" parent="4FWtqKkLlV3kMwXZtPkh-72" vertex="1">
          <mxGeometry y="52" width="140" height="26" as="geometry" />
        </mxCell>
        <mxCell id="4FWtqKkLlV3kMwXZtPkh-75" value="-pending:List&amp;lt;String&amp;gt;" style="text;strokeColor=none;fillColor=none;align=left;verticalAlign=top;spacingLeft=4;spacingRight=4;overflow=hidden;rotatable=0;points=[[0,0.5],[1,0.5]];portConstraint=eastwest;whiteSpace=wrap;html=1;" parent="4FWtqKkLlV3kMwXZtPkh-72" vertex="1">
          <mxGeometry y="78" width="140" height="26" as="geometry" />
        </mxCell>
        <mxCell id="4FWtqKkLlV3kMwXZtPkh-76" value="" style="endArrow=diamondThin;endFill=1;endSize=24;html=1;rounded=0;exitX=1;exitY=0.5;exitDx=0;exitDy=0;" parent="1" source="4FWtqKkLlV3kMwXZtPkh-75" edge="1">
          <mxGeometry width="160" relative="1" as="geometry">
            <mxPoint x="-410" y="340" as="sourcePoint" />
            <mxPoint x="-322.69870609981535" y="470" as="targetPoint" />
            <Array as="points">
              <mxPoint x="-340" y="340" />
            </Array>
          </mxGeometry>
        </mxCell>
        <mxCell id="4FWtqKkLlV3kMwXZtPkh-77" value="" style="endArrow=diamondThin;endFill=1;endSize=24;html=1;rounded=0;exitX=0.75;exitY=0;exitDx=0;exitDy=0;entryX=0;entryY=0.5;entryDx=0;entryDy=0;" parent="1" target="4FWtqKkLlV3kMwXZtPkh-100" edge="1">
          <mxGeometry width="160" relative="1" as="geometry">
            <mxPoint x="-498" y="671.5" as="sourcePoint" />
            <mxPoint x="-208.00000000000045" y="515.9090019569471" as="targetPoint" />
          </mxGeometry>
        </mxCell>
        <mxCell id="4FWtqKkLlV3kMwXZtPkh-78" value="1" style="edgeLabel;html=1;align=center;verticalAlign=middle;resizable=0;points=[];" parent="4FWtqKkLlV3kMwXZtPkh-77" vertex="1" connectable="0">
          <mxGeometry x="-0.8017" y="-5" relative="1" as="geometry">
            <mxPoint y="-1" as="offset" />
          </mxGeometry>
        </mxCell>
        <mxCell id="4FWtqKkLlV3kMwXZtPkh-79" value="" style="endArrow=diamondThin;endFill=1;endSize=24;html=1;rounded=0;" parent="1" target="4FWtqKkLlV3kMwXZtPkh-33" edge="1">
          <mxGeometry width="160" relative="1" as="geometry">
            <mxPoint x="-208.00000000000045" y="642.8005977796756" as="sourcePoint" />
            <mxPoint x="400" y="770" as="targetPoint" />
          </mxGeometry>
        </mxCell>
        <mxCell id="4FWtqKkLlV3kMwXZtPkh-80" value="" style="endArrow=diamondThin;endFill=1;endSize=24;html=1;rounded=0;" parent="1" target="4FWtqKkLlV3kMwXZtPkh-34" edge="1">
          <mxGeometry width="160" relative="1" as="geometry">
            <mxPoint x="-220.00000000000045" y="627.588235294118" as="sourcePoint" />
            <mxPoint x="60" y="1057" as="targetPoint" />
            <Array as="points">
              <mxPoint x="398" y="618.5" />
              <mxPoint x="388" y="1038.5" />
            </Array>
          </mxGeometry>
        </mxCell>
        <mxCell id="4FWtqKkLlV3kMwXZtPkh-81" value="1" style="edgeLabel;html=1;align=center;verticalAlign=middle;resizable=0;points=[];" parent="4FWtqKkLlV3kMwXZtPkh-80" vertex="1" connectable="0">
          <mxGeometry x="-0.8761" relative="1" as="geometry">
            <mxPoint x="-1" as="offset" />
          </mxGeometry>
        </mxCell>
        <mxCell id="4FWtqKkLlV3kMwXZtPkh-82" value="1" style="text;html=1;align=center;verticalAlign=middle;resizable=0;points=[];autosize=1;strokeColor=none;fillColor=none;" parent="1" vertex="1">
          <mxGeometry x="105" y="1018" width="30" height="30" as="geometry" />
        </mxCell>
        <mxCell id="4FWtqKkLlV3kMwXZtPkh-83" value="" style="endArrow=block;dashed=1;endFill=0;endSize=12;html=1;rounded=0;" parent="1" source="4FWtqKkLlV3kMwXZtPkh-34" edge="1">
          <mxGeometry width="160" relative="1" as="geometry">
            <mxPoint x="240" y="770" as="sourcePoint" />
            <mxPoint x="-360" y="1000" as="targetPoint" />
          </mxGeometry>
        </mxCell>
        <mxCell id="4FWtqKkLlV3kMwXZtPkh-84" value="Build&lt;div&gt;&lt;br&gt;&lt;/div&gt;" style="endArrow=open;endSize=12;dashed=1;html=1;rounded=0;" parent="1" source="4FWtqKkLlV3kMwXZtPkh-34" target="4FWtqKkLlV3kMwXZtPkh-33" edge="1">
          <mxGeometry x="0.0181" y="13" width="160" relative="1" as="geometry">
            <mxPoint x="240" y="950" as="sourcePoint" />
            <mxPoint x="400" y="950" as="targetPoint" />
            <mxPoint x="1" y="-1" as="offset" />
            <Array as="points">
              <mxPoint x="-10" y="890" />
            </Array>
          </mxGeometry>
        </mxCell>
        <mxCell id="4FWtqKkLlV3kMwXZtPkh-85" value="Create&lt;div&gt;&lt;br&gt;&lt;/div&gt;" style="endArrow=open;endSize=12;dashed=1;html=1;rounded=0;exitX=1;exitY=0;exitDx=0;exitDy=0;" parent="1" source="4FWtqKkLlV3kMwXZtPkh-116" target="4FWtqKkLlV3kMwXZtPkh-34" edge="1">
          <mxGeometry x="0.0433" y="-3" width="160" relative="1" as="geometry">
            <mxPoint x="230.5" y="1460" as="sourcePoint" />
            <mxPoint x="-130" y="1380" as="targetPoint" />
            <Array as="points">
              <mxPoint x="-100" y="1350" />
            </Array>
            <mxPoint as="offset" />
          </mxGeometry>
        </mxCell>
        <mxCell id="4FWtqKkLlV3kMwXZtPkh-86" value="&lt;div&gt;&amp;lt;&amp;lt;Iinterface&amp;gt;&amp;gt;&lt;/div&gt;&lt;div&gt;ProfileInterface&lt;/div&gt;" style="swimlane;fontStyle=1;align=center;verticalAlign=top;childLayout=stackLayout;horizontal=1;startSize=40;horizontalStack=0;resizeParent=1;resizeParentMax=0;resizeLast=0;collapsible=1;marginBottom=0;whiteSpace=wrap;html=1;" parent="1" vertex="1">
          <mxGeometry x="230" y="260" width="160" height="280" as="geometry" />
        </mxCell>
        <mxCell id="4FWtqKkLlV3kMwXZtPkh-87" value="-friends:Friends" style="text;strokeColor=none;fillColor=none;align=left;verticalAlign=top;spacingLeft=4;spacingRight=4;overflow=hidden;rotatable=0;points=[[0,0.5],[1,0.5]];portConstraint=eastwest;whiteSpace=wrap;html=1;" parent="4FWtqKkLlV3kMwXZtPkh-86" vertex="1">
          <mxGeometry y="40" width="160" height="36" as="geometry" />
        </mxCell>
        <mxCell id="4FWtqKkLlV3kMwXZtPkh-88" value="&lt;div&gt;-profilePhoto:String&lt;/div&gt;" style="text;strokeColor=none;fillColor=none;align=left;verticalAlign=top;spacingLeft=4;spacingRight=4;overflow=hidden;rotatable=0;points=[[0,0.5],[1,0.5]];portConstraint=eastwest;whiteSpace=wrap;html=1;" parent="4FWtqKkLlV3kMwXZtPkh-86" vertex="1">
          <mxGeometry y="76" width="160" height="26" as="geometry" />
        </mxCell>
        <mxCell id="4FWtqKkLlV3kMwXZtPkh-89" value="-content:List&amp;lt;Content&amp;gt;" style="text;strokeColor=none;fillColor=none;align=left;verticalAlign=top;spacingLeft=4;spacingRight=4;overflow=hidden;rotatable=0;points=[[0,0.5],[1,0.5]];portConstraint=eastwest;whiteSpace=wrap;html=1;" parent="4FWtqKkLlV3kMwXZtPkh-86" vertex="1">
          <mxGeometry y="102" width="160" height="26" as="geometry" />
        </mxCell>
        <mxCell id="4FWtqKkLlV3kMwXZtPkh-90" value="&lt;div&gt;-CoverPhoto:String&lt;/div&gt;" style="text;strokeColor=none;fillColor=none;align=left;verticalAlign=top;spacingLeft=4;spacingRight=4;overflow=hidden;rotatable=0;points=[[0,0.5],[1,0.5]];portConstraint=eastwest;whiteSpace=wrap;html=1;" parent="4FWtqKkLlV3kMwXZtPkh-86" vertex="1">
          <mxGeometry y="128" width="160" height="26" as="geometry" />
        </mxCell>
        <mxCell id="4FWtqKkLlV3kMwXZtPkh-91" value="-bio:String" style="text;strokeColor=none;fillColor=none;align=left;verticalAlign=top;spacingLeft=4;spacingRight=4;overflow=hidden;rotatable=0;points=[[0,0.5],[1,0.5]];portConstraint=eastwest;whiteSpace=wrap;html=1;" parent="4FWtqKkLlV3kMwXZtPkh-86" vertex="1">
          <mxGeometry y="154" width="160" height="26" as="geometry" />
        </mxCell>
        <mxCell id="4FWtqKkLlV3kMwXZtPkh-92" value="" style="line;strokeWidth=1;fillColor=none;align=left;verticalAlign=middle;spacingTop=-1;spacingLeft=3;spacingRight=3;rotatable=0;labelPosition=right;points=[];portConstraint=eastwest;strokeColor=inherit;" parent="4FWtqKkLlV3kMwXZtPkh-86" vertex="1">
          <mxGeometry y="180" width="160" height="8" as="geometry" />
        </mxCell>
        <mxCell id="4FWtqKkLlV3kMwXZtPkh-93" value="+getBio:String" style="text;strokeColor=none;fillColor=none;align=left;verticalAlign=top;spacingLeft=4;spacingRight=4;overflow=hidden;rotatable=0;points=[[0,0.5],[1,0.5]];portConstraint=eastwest;whiteSpace=wrap;html=1;" parent="4FWtqKkLlV3kMwXZtPkh-86" vertex="1">
          <mxGeometry y="188" width="160" height="20" as="geometry" />
        </mxCell>
        <mxCell id="4FWtqKkLlV3kMwXZtPkh-94" value="+setCover(String)" style="text;strokeColor=none;fillColor=none;align=left;verticalAlign=top;spacingLeft=4;spacingRight=4;overflow=hidden;rotatable=0;points=[[0,0.5],[1,0.5]];portConstraint=eastwest;whiteSpace=wrap;html=1;" parent="4FWtqKkLlV3kMwXZtPkh-86" vertex="1">
          <mxGeometry y="208" width="160" height="26" as="geometry" />
        </mxCell>
        <mxCell id="4FWtqKkLlV3kMwXZtPkh-95" value="+setBio(String)" style="text;strokeColor=none;fillColor=none;align=left;verticalAlign=top;spacingLeft=4;spacingRight=4;overflow=hidden;rotatable=0;points=[[0,0.5],[1,0.5]];portConstraint=eastwest;whiteSpace=wrap;html=1;" parent="4FWtqKkLlV3kMwXZtPkh-86" vertex="1">
          <mxGeometry y="234" width="160" height="20" as="geometry" />
        </mxCell>
        <mxCell id="4FWtqKkLlV3kMwXZtPkh-96" value="+addContent(Content)" style="text;strokeColor=none;fillColor=none;align=left;verticalAlign=top;spacingLeft=4;spacingRight=4;overflow=hidden;rotatable=0;points=[[0,0.5],[1,0.5]];portConstraint=eastwest;whiteSpace=wrap;html=1;" parent="4FWtqKkLlV3kMwXZtPkh-86" vertex="1">
          <mxGeometry y="254" width="160" height="26" as="geometry" />
        </mxCell>
        <mxCell id="4FWtqKkLlV3kMwXZtPkh-97" value="Profile&lt;div&gt;&lt;br&gt;&lt;/div&gt;" style="swimlane;fontStyle=1;align=center;verticalAlign=top;childLayout=stackLayout;horizontal=1;startSize=26;horizontalStack=0;resizeParent=1;resizeParentMax=0;resizeLast=0;collapsible=1;marginBottom=0;whiteSpace=wrap;html=1;" parent="1" vertex="1">
          <mxGeometry x="-380" y="490" width="190" height="184" as="geometry" />
        </mxCell>
        <mxCell id="4FWtqKkLlV3kMwXZtPkh-98" value="-friends:Friends" style="text;strokeColor=none;fillColor=none;align=left;verticalAlign=top;spacingLeft=4;spacingRight=4;overflow=hidden;rotatable=0;points=[[0,0.5],[1,0.5]];portConstraint=eastwest;whiteSpace=wrap;html=1;" parent="4FWtqKkLlV3kMwXZtPkh-97" vertex="1">
          <mxGeometry y="26" width="190" height="26" as="geometry" />
        </mxCell>
        <mxCell id="4FWtqKkLlV3kMwXZtPkh-99" value="&lt;div&gt;-profilePhoto:String&lt;/div&gt;" style="text;strokeColor=none;fillColor=none;align=left;verticalAlign=top;spacingLeft=4;spacingRight=4;overflow=hidden;rotatable=0;points=[[0,0.5],[1,0.5]];portConstraint=eastwest;whiteSpace=wrap;html=1;" parent="4FWtqKkLlV3kMwXZtPkh-97" vertex="1">
          <mxGeometry y="52" width="190" height="26" as="geometry" />
        </mxCell>
        <mxCell id="4FWtqKkLlV3kMwXZtPkh-101" value="&lt;div&gt;-CoverPhoto:String&lt;/div&gt;" style="text;strokeColor=none;fillColor=none;align=left;verticalAlign=top;spacingLeft=4;spacingRight=4;overflow=hidden;rotatable=0;points=[[0,0.5],[1,0.5]];portConstraint=eastwest;whiteSpace=wrap;html=1;" parent="4FWtqKkLlV3kMwXZtPkh-97" vertex="1">
          <mxGeometry y="78" width="190" height="26" as="geometry" />
        </mxCell>
        <mxCell id="4FWtqKkLlV3kMwXZtPkh-100" value="-content:List&amp;lt;IContent&amp;gt;&lt;div&gt;- notification: List&amp;lt;Notification&amp;gt;&lt;/div&gt;" style="text;strokeColor=none;fillColor=none;align=left;verticalAlign=top;spacingLeft=4;spacingRight=4;overflow=hidden;rotatable=0;points=[[0,0.5],[1,0.5]];portConstraint=eastwest;whiteSpace=wrap;html=1;" parent="4FWtqKkLlV3kMwXZtPkh-97" vertex="1">
          <mxGeometry y="104" width="190" height="46" as="geometry" />
        </mxCell>
        <mxCell id="4FWtqKkLlV3kMwXZtPkh-102" value="-bio:String" style="text;strokeColor=none;fillColor=none;align=left;verticalAlign=top;spacingLeft=4;spacingRight=4;overflow=hidden;rotatable=0;points=[[0,0.5],[1,0.5]];portConstraint=eastwest;whiteSpace=wrap;html=1;" parent="4FWtqKkLlV3kMwXZtPkh-97" vertex="1">
          <mxGeometry y="150" width="190" height="26" as="geometry" />
        </mxCell>
        <mxCell id="4FWtqKkLlV3kMwXZtPkh-103" value="" style="line;strokeWidth=1;fillColor=none;align=left;verticalAlign=middle;spacingTop=-1;spacingLeft=3;spacingRight=3;rotatable=0;labelPosition=right;points=[];portConstraint=eastwest;strokeColor=inherit;" parent="4FWtqKkLlV3kMwXZtPkh-97" vertex="1">
          <mxGeometry y="176" width="190" height="8" as="geometry" />
        </mxCell>
        <mxCell id="4FWtqKkLlV3kMwXZtPkh-104" value="" style="endArrow=block;dashed=1;endFill=0;endSize=12;html=1;rounded=0;" parent="1" target="4FWtqKkLlV3kMwXZtPkh-86" edge="1">
          <mxGeometry width="160" relative="1" as="geometry">
            <mxPoint x="512.6933333333332" y="672" as="sourcePoint" />
            <mxPoint x="390" y="620" as="targetPoint" />
            <Array as="points">
              <mxPoint x="460" y="520" />
            </Array>
          </mxGeometry>
        </mxCell>
        <mxCell id="4FWtqKkLlV3kMwXZtPkh-105" value="" style="endArrow=diamondThin;endFill=1;endSize=24;html=1;rounded=0;" parent="1" source="4FWtqKkLlV3kMwXZtPkh-38" edge="1">
          <mxGeometry width="160" relative="1" as="geometry">
            <mxPoint x="250" y="600" as="sourcePoint" />
            <mxPoint x="549.5420944558518" y="672" as="targetPoint" />
          </mxGeometry>
        </mxCell>
        <mxCell id="4FWtqKkLlV3kMwXZtPkh-106" value="" style="endArrow=diamondThin;endFill=1;endSize=24;html=1;rounded=0;" parent="1" source="4FWtqKkLlV3kMwXZtPkh-97" edge="1">
          <mxGeometry width="160" relative="1" as="geometry">
            <mxPoint x="250" y="600" as="sourcePoint" />
            <mxPoint x="501.264516129032" y="672" as="targetPoint" />
            <Array as="points">
              <mxPoint x="460" y="590" />
            </Array>
          </mxGeometry>
        </mxCell>
        <mxCell id="4FWtqKkLlV3kMwXZtPkh-107" value="ProfileManager" style="swimlane;fontStyle=0;childLayout=stackLayout;horizontal=1;startSize=26;fillColor=none;horizontalStack=0;resizeParent=1;resizeParentMax=0;resizeLast=0;collapsible=1;marginBottom=0;whiteSpace=wrap;html=1;" parent="1" vertex="1">
          <mxGeometry x="450" y="671.5" width="140" height="150" as="geometry" />
        </mxCell>
        <mxCell id="4FWtqKkLlV3kMwXZtPkh-108" value="+ field: type" style="text;strokeColor=none;fillColor=none;align=left;verticalAlign=top;spacingLeft=4;spacingRight=4;overflow=hidden;rotatable=0;points=[[0,0.5],[1,0.5]];portConstraint=eastwest;whiteSpace=wrap;html=1;" parent="4FWtqKkLlV3kMwXZtPkh-107" vertex="1">
          <mxGeometry y="26" width="140" height="26" as="geometry" />
        </mxCell>
        <mxCell id="4FWtqKkLlV3kMwXZtPkh-109" value="getCover:String" style="text;strokeColor=none;fillColor=none;align=left;verticalAlign=top;spacingLeft=4;spacingRight=4;overflow=hidden;rotatable=0;points=[[0,0.5],[1,0.5]];portConstraint=eastwest;whiteSpace=wrap;html=1;" parent="4FWtqKkLlV3kMwXZtPkh-107" vertex="1">
          <mxGeometry y="52" width="140" height="20" as="geometry" />
        </mxCell>
        <mxCell id="4FWtqKkLlV3kMwXZtPkh-110" value="+getContet:List&amp;lt;Content&amp;gt;" style="text;strokeColor=none;fillColor=none;align=left;verticalAlign=top;spacingLeft=4;spacingRight=4;overflow=hidden;rotatable=0;points=[[0,0.5],[1,0.5]];portConstraint=eastwest;whiteSpace=wrap;html=1;" parent="4FWtqKkLlV3kMwXZtPkh-107" vertex="1">
          <mxGeometry y="72" width="140" height="26" as="geometry" />
        </mxCell>
        <mxCell id="4FWtqKkLlV3kMwXZtPkh-111" value="+addContent(Content)" style="text;strokeColor=none;fillColor=none;align=left;verticalAlign=top;spacingLeft=4;spacingRight=4;overflow=hidden;rotatable=0;points=[[0,0.5],[1,0.5]];portConstraint=eastwest;whiteSpace=wrap;html=1;" parent="4FWtqKkLlV3kMwXZtPkh-107" vertex="1">
          <mxGeometry y="98" width="140" height="26" as="geometry" />
        </mxCell>
        <mxCell id="4FWtqKkLlV3kMwXZtPkh-112" value="+setCover(String)" style="text;strokeColor=none;fillColor=none;align=left;verticalAlign=top;spacingLeft=4;spacingRight=4;overflow=hidden;rotatable=0;points=[[0,0.5],[1,0.5]];portConstraint=eastwest;whiteSpace=wrap;html=1;" parent="4FWtqKkLlV3kMwXZtPkh-107" vertex="1">
          <mxGeometry y="124" width="140" height="26" as="geometry" />
        </mxCell>
        <mxCell id="4FWtqKkLlV3kMwXZtPkh-113" value="Use" style="endArrow=open;endSize=12;dashed=1;html=1;rounded=0;" parent="1" source="4FWtqKkLlV3kMwXZtPkh-36" target="4FWtqKkLlV3kMwXZtPkh-33" edge="1">
          <mxGeometry width="160" relative="1" as="geometry">
            <mxPoint x="250" y="760" as="sourcePoint" />
            <mxPoint x="410" y="760" as="targetPoint" />
          </mxGeometry>
        </mxCell>
        <mxCell id="4FWtqKkLlV3kMwXZtPkh-114" value="" style="endArrow=block;dashed=1;endFill=0;endSize=12;html=1;rounded=0;entryX=1;entryY=0.75;entryDx=0;entryDy=0;" parent="1" source="4FWtqKkLlV3kMwXZtPkh-38" target="4FWtqKkLlV3kMwXZtPkh-37" edge="1">
          <mxGeometry width="160" relative="1" as="geometry">
            <mxPoint x="250" y="560" as="sourcePoint" />
            <mxPoint x="410" y="560" as="targetPoint" />
          </mxGeometry>
        </mxCell>
        <mxCell id="4FWtqKkLlV3kMwXZtPkh-115" value="" style="endArrow=block;dashed=1;endFill=0;endSize=12;html=1;rounded=0;" parent="1" source="4FWtqKkLlV3kMwXZtPkh-33" target="4FWtqKkLlV3kMwXZtPkh-37" edge="1">
          <mxGeometry width="160" relative="1" as="geometry">
            <mxPoint x="250" y="560" as="sourcePoint" />
            <mxPoint x="410" y="560" as="targetPoint" />
            <Array as="points">
              <mxPoint x="190" y="170" />
            </Array>
          </mxGeometry>
        </mxCell>
        <mxCell id="4FWtqKkLlV3kMwXZtPkh-116" value="AccountManager" style="swimlane;fontStyle=0;childLayout=stackLayout;horizontal=1;startSize=26;fillColor=none;horizontalStack=0;resizeParent=1;resizeParentMax=0;resizeLast=0;collapsible=1;marginBottom=0;whiteSpace=wrap;html=1;" parent="1" vertex="1">
          <mxGeometry x="-240" y="1420" width="140" height="104" as="geometry" />
        </mxCell>
        <mxCell id="4FWtqKkLlV3kMwXZtPkh-117" value="+SignUp(User)" style="text;strokeColor=none;fillColor=none;align=left;verticalAlign=top;spacingLeft=4;spacingRight=4;overflow=hidden;rotatable=0;points=[[0,0.5],[1,0.5]];portConstraint=eastwest;whiteSpace=wrap;html=1;" parent="4FWtqKkLlV3kMwXZtPkh-116" vertex="1">
          <mxGeometry y="26" width="140" height="26" as="geometry" />
        </mxCell>
        <mxCell id="4FWtqKkLlV3kMwXZtPkh-118" value="+logOut(User)" style="text;strokeColor=none;fillColor=none;align=left;verticalAlign=top;spacingLeft=4;spacingRight=4;overflow=hidden;rotatable=0;points=[[0,0.5],[1,0.5]];portConstraint=eastwest;whiteSpace=wrap;html=1;" parent="4FWtqKkLlV3kMwXZtPkh-116" vertex="1">
          <mxGeometry y="52" width="140" height="26" as="geometry" />
        </mxCell>
        <mxCell id="4FWtqKkLlV3kMwXZtPkh-119" value="+ Login(User)" style="text;strokeColor=none;fillColor=none;align=left;verticalAlign=top;spacingLeft=4;spacingRight=4;overflow=hidden;rotatable=0;points=[[0,0.5],[1,0.5]];portConstraint=eastwest;whiteSpace=wrap;html=1;" parent="4FWtqKkLlV3kMwXZtPkh-116" vertex="1">
          <mxGeometry y="78" width="140" height="26" as="geometry" />
        </mxCell>
        <mxCell id="4FWtqKkLlV3kMwXZtPkh-120" value="" style="endArrow=block;dashed=1;endFill=0;endSize=12;html=1;rounded=0;" parent="1" source="4FWtqKkLlV3kMwXZtPkh-36" target="4FWtqKkLlV3kMwXZtPkh-35" edge="1">
          <mxGeometry width="160" relative="1" as="geometry">
            <mxPoint x="230" y="1060" as="sourcePoint" />
            <mxPoint x="390" y="1060" as="targetPoint" />
          </mxGeometry>
        </mxCell>
        <mxCell id="4FWtqKkLlV3kMwXZtPkh-121" value="implements" style="edgeLabel;html=1;align=center;verticalAlign=middle;resizable=0;points=[];" parent="4FWtqKkLlV3kMwXZtPkh-120" vertex="1" connectable="0">
          <mxGeometry x="0.0755" y="-2" relative="1" as="geometry">
            <mxPoint as="offset" />
          </mxGeometry>
        </mxCell>
        <mxCell id="4FWtqKkLlV3kMwXZtPkh-122" value="UserBuilder&lt;div&gt;&amp;lt;&amp;lt;Iinterface&amp;gt;&amp;gt;&lt;/div&gt;" style="swimlane;fontStyle=0;childLayout=stackLayout;horizontal=1;startSize=26;fillColor=none;horizontalStack=0;resizeParent=1;resizeParentMax=0;resizeLast=0;collapsible=1;marginBottom=0;whiteSpace=wrap;html=1;" parent="1" vertex="1">
          <mxGeometry x="-427.5" y="840" width="140" height="156" as="geometry" />
        </mxCell>
        <mxCell id="4FWtqKkLlV3kMwXZtPkh-123" value="+setUserID" style="text;strokeColor=none;fillColor=none;align=left;verticalAlign=top;spacingLeft=4;spacingRight=4;overflow=hidden;rotatable=0;points=[[0,0.5],[1,0.5]];portConstraint=eastwest;whiteSpace=wrap;html=1;" parent="4FWtqKkLlV3kMwXZtPkh-122" vertex="1">
          <mxGeometry y="26" width="140" height="26" as="geometry" />
        </mxCell>
        <mxCell id="4FWtqKkLlV3kMwXZtPkh-124" value="+setStatus()" style="text;strokeColor=none;fillColor=none;align=left;verticalAlign=top;spacingLeft=4;spacingRight=4;overflow=hidden;rotatable=0;points=[[0,0.5],[1,0.5]];portConstraint=eastwest;whiteSpace=wrap;html=1;" parent="4FWtqKkLlV3kMwXZtPkh-122" vertex="1">
          <mxGeometry y="52" width="140" height="26" as="geometry" />
        </mxCell>
        <mxCell id="4FWtqKkLlV3kMwXZtPkh-125" value="+setDateOfbirt()" style="text;strokeColor=none;fillColor=none;align=left;verticalAlign=top;spacingLeft=4;spacingRight=4;overflow=hidden;rotatable=0;points=[[0,0.5],[1,0.5]];portConstraint=eastwest;whiteSpace=wrap;html=1;" parent="4FWtqKkLlV3kMwXZtPkh-122" vertex="1">
          <mxGeometry y="78" width="140" height="26" as="geometry" />
        </mxCell>
        <mxCell id="4FWtqKkLlV3kMwXZtPkh-126" value="+setEmail()&lt;span style=&quot;color: rgba(0, 0, 0, 0); font-family: monospace; font-size: 0px; text-wrap-mode: nowrap;&quot;&gt;%3CmxGraphModel%3E%3Croot%3E%3CmxCell%20id%3D%220%22%2F%3E%3CmxCell%20id%3D%221%22%20parent%3D%220%22%2F%3E%3CmxCell%20id%3D%222%22%20value%3D%22%2BsetDateOfbirt()%22%20style%3D%22text%3BstrokeColor%3Dnone%3BfillColor%3Dnone%3Balign%3Dleft%3BverticalAlign%3Dtop%3BspacingLeft%3D4%3BspacingRight%3D4%3Boverflow%3Dhidden%3Brotatable%3D0%3Bpoints%3D%5B%5B0%2C0.5%5D%2C%5B1%2C0.5%5D%5D%3BportConstraint%3Deastwest%3BwhiteSpace%3Dwrap%3Bhtml%3D1%3B%22%20vertex%3D%221%22%20parent%3D%221%22%3E%3CmxGeometry%20x%3D%22-540%22%20y%3D%22828%22%20width%3D%22140%22%20height%3D%2226%22%20as%3D%22geometry%22%2F%3E%3C%2FmxCell%3E%3C%2Froot%3E%3C%2FmxGraphModel%3E&lt;/span&gt;" style="text;strokeColor=none;fillColor=none;align=left;verticalAlign=top;spacingLeft=4;spacingRight=4;overflow=hidden;rotatable=0;points=[[0,0.5],[1,0.5]];portConstraint=eastwest;whiteSpace=wrap;html=1;" parent="4FWtqKkLlV3kMwXZtPkh-122" vertex="1">
          <mxGeometry y="104" width="140" height="26" as="geometry" />
        </mxCell>
        <mxCell id="4FWtqKkLlV3kMwXZtPkh-127" value="+setUsername()" style="text;strokeColor=none;fillColor=none;align=left;verticalAlign=top;spacingLeft=4;spacingRight=4;overflow=hidden;rotatable=0;points=[[0,0.5],[1,0.5]];portConstraint=eastwest;whiteSpace=wrap;html=1;" parent="4FWtqKkLlV3kMwXZtPkh-122" vertex="1">
          <mxGeometry y="130" width="140" height="26" as="geometry" />
        </mxCell>
        <mxCell id="4FWtqKkLlV3kMwXZtPkh-128" value="+Build()" style="text;strokeColor=none;fillColor=none;align=left;verticalAlign=top;spacingLeft=4;spacingRight=4;overflow=hidden;rotatable=0;points=[[0,0.5],[1,0.5]];portConstraint=eastwest;whiteSpace=wrap;html=1;" parent="1" vertex="1">
          <mxGeometry x="-470" y="1240" width="140" height="26" as="geometry" />
        </mxCell>
        <mxCell id="4FWtqKkLlV3kMwXZtPkh-129" value="&lt;p style=&quot;margin:0px;margin-top:4px;text-align:center;&quot;&gt;&lt;i&gt;&amp;lt;&amp;lt;interface&amp;gt;&amp;gt;&lt;/i&gt;&lt;br&gt;&lt;b&gt;IContentDatabase&lt;/b&gt;&lt;/p&gt;&lt;hr size=&quot;1&quot;&gt;&lt;p style=&quot;margin:0 0 0 4px;line-height:1.6;&quot;&gt;+ addContent(Icontent content): boolean&lt;/p&gt;&lt;p style=&quot;margin:0 0 0 4px;line-height:1.6;&quot;&gt;+ removeContent(String Id): boolean&lt;/p&gt;&lt;p style=&quot;margin:0 0 0 4px;line-height:1.6;&quot;&gt;+ getContent(String Content): Iconent&amp;nbsp;&lt;/p&gt;" style="verticalAlign=top;align=left;overflow=fill;fontSize=14;fontFamily=Helvetica;html=1;rounded=0;shadow=0;comic=0;labelBackgroundColor=none;strokeWidth=1;" parent="1" vertex="1">
          <mxGeometry x="1190" y="684" width="280" height="136" as="geometry" />
        </mxCell>
        <mxCell id="4FWtqKkLlV3kMwXZtPkh-130" value="&lt;p style=&quot;margin:0px;margin-top:4px;text-align:center;&quot;&gt;&lt;i&gt;&amp;lt;&amp;lt;interface&amp;gt;&amp;gt;&lt;/i&gt;&lt;br&gt;&lt;b&gt;Database&lt;/b&gt;&lt;/p&gt;&lt;hr size=&quot;1&quot;&gt;&lt;p style=&quot;margin:0 0 0 4px;line-height:1.6;&quot;&gt;+&amp;nbsp;&lt;span style=&quot;background-color: initial;&quot;&gt;save(): void&lt;/span&gt;&lt;/p&gt;&lt;p style=&quot;margin:0 0 0 4px;line-height:1.6;&quot;&gt;+ load(): void&lt;/p&gt;" style="verticalAlign=top;align=left;overflow=fill;fontSize=14;fontFamily=Helvetica;html=1;rounded=0;shadow=0;comic=0;labelBackgroundColor=none;strokeWidth=1;" parent="1" vertex="1">
          <mxGeometry x="1040" y="532.5" width="157" height="107.5" as="geometry" />
        </mxCell>
        <mxCell id="4FWtqKkLlV3kMwXZtPkh-131" value="extends" style="html=1;verticalAlign=bottom;endArrow=block;curved=0;rounded=0;entryX=0.5;entryY=1;entryDx=0;entryDy=0;exitX=0.75;exitY=0;exitDx=0;exitDy=0;" parent="1" source="4FWtqKkLlV3kMwXZtPkh-35" target="4FWtqKkLlV3kMwXZtPkh-130" edge="1">
          <mxGeometry width="80" relative="1" as="geometry">
            <mxPoint x="1090" y="660" as="sourcePoint" />
            <mxPoint x="1170" y="660" as="targetPoint" />
          </mxGeometry>
        </mxCell>
        <mxCell id="4FWtqKkLlV3kMwXZtPkh-132" value="extends" style="html=1;verticalAlign=bottom;endArrow=block;curved=0;rounded=0;entryX=0.5;entryY=1;entryDx=0;entryDy=0;exitX=0.5;exitY=0;exitDx=0;exitDy=0;" parent="1" source="4FWtqKkLlV3kMwXZtPkh-129" target="4FWtqKkLlV3kMwXZtPkh-130" edge="1">
          <mxGeometry width="80" relative="1" as="geometry">
            <mxPoint x="1073" y="694" as="sourcePoint" />
            <mxPoint x="1129" y="650" as="targetPoint" />
          </mxGeometry>
        </mxCell>
        <mxCell id="4FWtqKkLlV3kMwXZtPkh-133" value="&lt;p style=&quot;margin:0px;margin-top:4px;text-align:center;&quot;&gt;&lt;b&gt;ContentDatabase&lt;/b&gt;&lt;/p&gt;&lt;hr size=&quot;1&quot;&gt;&lt;p style=&quot;margin:0 0 0 4px;line-height:1.6;&quot;&gt;- database: ContentDatabase&lt;br&gt;- ContentJson: String&lt;/p&gt;&lt;p style=&quot;margin:0 0 0 4px;line-height:1.6;&quot;&gt;- ContentList: List&amp;lt;IContent&amp;gt;&lt;/p&gt;&lt;hr size=&quot;1&quot;&gt;&lt;p style=&quot;margin:0 0 0 4px;line-height:1.6;&quot;&gt;+&amp;nbsp;getInstance() : ContentDatabase&lt;/p&gt;&lt;p style=&quot;margin:0 0 0 4px;line-height:1.6;&quot;&gt;+&amp;nbsp;&amp;nbsp;innerLoad(): void&lt;/p&gt;&lt;p style=&quot;margin:0 0 0 4px;line-height:1.6;&quot;&gt;+ getContent(String Id): IContent&lt;/p&gt;" style="verticalAlign=top;align=left;overflow=fill;fontSize=14;fontFamily=Helvetica;html=1;rounded=0;shadow=0;comic=0;labelBackgroundColor=none;strokeWidth=1;" parent="1" vertex="1">
          <mxGeometry x="1197" y="960" width="257" height="218" as="geometry" />
        </mxCell>
        <mxCell id="4FWtqKkLlV3kMwXZtPkh-134" value="implements" style="html=1;verticalAlign=bottom;endArrow=open;dashed=1;endSize=8;curved=0;rounded=0;entryX=0.5;entryY=1;entryDx=0;entryDy=0;exitX=0.5;exitY=0;exitDx=0;exitDy=0;" parent="1" source="4FWtqKkLlV3kMwXZtPkh-133" target="4FWtqKkLlV3kMwXZtPkh-129" edge="1">
          <mxGeometry relative="1" as="geometry">
            <mxPoint x="1370" y="917.29" as="sourcePoint" />
            <mxPoint x="1290" y="917.29" as="targetPoint" />
          </mxGeometry>
        </mxCell>
        <mxCell id="4FWtqKkLlV3kMwXZtPkh-135" value="IContent&lt;br&gt;&lt;div&gt;&amp;lt;&amp;lt;Iinterface&amp;gt;&amp;gt;&lt;/div&gt;" style="swimlane;fontStyle=0;childLayout=stackLayout;horizontal=1;startSize=26;fillColor=none;horizontalStack=0;resizeParent=1;resizeParentMax=0;resizeLast=0;collapsible=1;marginBottom=0;whiteSpace=wrap;html=1;" parent="1" vertex="1">
          <mxGeometry x="-760" y="671.5" width="310" height="140" as="geometry" />
        </mxCell>
        <mxCell id="4FWtqKkLlV3kMwXZtPkh-136" value="+ setContentId(String conentId): void&lt;div&gt;+&amp;nbsp;&lt;span style=&quot;background-color: initial;&quot;&gt;setAuthorId(String authorId): void&lt;/span&gt;&lt;/div&gt;&lt;div&gt;+ setTimeStamp(LocalDateTime timeStamp): void&lt;/div&gt;&lt;div&gt;+ setImgContent(String picPath): void&lt;/div&gt;&lt;div&gt;+ setTxtContent(String txtContent): void&lt;/div&gt;&lt;div&gt;+ setDuratoin(int duratoin): void&lt;/div&gt;" style="text;strokeColor=none;fillColor=none;align=left;verticalAlign=top;spacingLeft=4;spacingRight=4;overflow=hidden;rotatable=0;points=[[0,0.5],[1,0.5]];portConstraint=eastwest;whiteSpace=wrap;html=1;" parent="4FWtqKkLlV3kMwXZtPkh-135" vertex="1">
          <mxGeometry y="26" width="310" height="114" as="geometry" />
        </mxCell>
        <mxCell id="4FWtqKkLlV3kMwXZtPkh-137" value="&lt;p style=&quot;margin:0px;margin-top:4px;text-align:center;&quot;&gt;&lt;b&gt;AbstractContent&lt;/b&gt;&lt;/p&gt;&lt;hr size=&quot;1&quot;&gt;&lt;p style=&quot;margin:0 0 0 4px;line-height:1.6;&quot;&gt;- contentId: String&lt;br&gt;- authorId: String&lt;br&gt;- timeStamp: LocalDateTime&lt;br&gt;- Image: imgContent&lt;br&gt;- txtContent: String&lt;br&gt;- duratoin: int&lt;br&gt;&lt;/p&gt;&lt;p style=&quot;margin:0 0 0 4px;line-height:1.6;&quot;&gt;&lt;br&gt;&lt;/p&gt;&lt;p style=&quot;margin:0 0 0 4px;line-height:1.6;&quot;&gt;+ getImg(): Image&lt;/p&gt;&lt;p style=&quot;margin:0 0 0 4px;line-height:1.6;&quot;&gt;+ getTxt(): String&lt;/p&gt;&lt;p style=&quot;margin:0 0 0 4px;line-height:1.6;&quot;&gt;+ getAuthorId(): String&lt;/p&gt;" style="verticalAlign=top;align=left;overflow=fill;fontSize=14;fontFamily=Helvetica;html=1;rounded=0;shadow=0;comic=0;labelBackgroundColor=none;strokeWidth=1;" parent="1" vertex="1">
          <mxGeometry x="-750" y="890" width="225" height="270" as="geometry" />
        </mxCell>
        <mxCell id="4FWtqKkLlV3kMwXZtPkh-138" value="" style="line;strokeWidth=1;fillColor=none;align=left;verticalAlign=middle;spacingTop=-1;spacingLeft=3;spacingRight=3;rotatable=0;labelPosition=right;points=[];portConstraint=eastwest;strokeColor=inherit;" parent="1" vertex="1">
          <mxGeometry x="-740" y="1065" width="200" height="8" as="geometry" />
        </mxCell>
        <mxCell id="4FWtqKkLlV3kMwXZtPkh-139" value="" style="endArrow=block;dashed=1;endFill=0;endSize=12;html=1;rounded=0;entryX=0.449;entryY=1.016;entryDx=0;entryDy=0;entryPerimeter=0;exitX=0.5;exitY=0;exitDx=0;exitDy=0;" parent="1" source="4FWtqKkLlV3kMwXZtPkh-137" target="4FWtqKkLlV3kMwXZtPkh-136" edge="1">
          <mxGeometry width="160" relative="1" as="geometry">
            <mxPoint x="-720" y="1040" as="sourcePoint" />
            <mxPoint x="-560" y="1040" as="targetPoint" />
          </mxGeometry>
        </mxCell>
        <mxCell id="4FWtqKkLlV3kMwXZtPkh-140" value="&lt;p style=&quot;margin:0px;margin-top:4px;text-align:center;&quot;&gt;&lt;b&gt;Story&lt;/b&gt;&lt;/p&gt;&lt;hr size=&quot;1&quot;&gt;&lt;p style=&quot;margin:0 0 0 4px;line-height:1.6;&quot;&gt;&lt;br&gt;&lt;/p&gt;&lt;p style=&quot;margin:0 0 0 4px;line-height:1.6;&quot;&gt;&lt;br&gt;&lt;/p&gt;&lt;p style=&quot;margin:0 0 0 4px;line-height:1.6;&quot;&gt;&lt;br&gt;&lt;/p&gt;&lt;p style=&quot;margin:0 0 0 4px;line-height:1.6;&quot;&gt;+ getDuration(): int&lt;/p&gt;" style="verticalAlign=top;align=left;overflow=fill;fontSize=14;fontFamily=Helvetica;html=1;rounded=0;shadow=0;comic=0;labelBackgroundColor=none;strokeWidth=1;" parent="1" vertex="1">
          <mxGeometry x="-870" y="1410" width="225" height="150" as="geometry" />
        </mxCell>
        <mxCell id="4FWtqKkLlV3kMwXZtPkh-141" value="&lt;p style=&quot;margin:0px;margin-top:4px;text-align:center;&quot;&gt;&lt;b&gt;Post&lt;/b&gt;&lt;/p&gt;&lt;hr size=&quot;1&quot;&gt;&lt;p style=&quot;margin:0 0 0 4px;line-height:1.6;&quot;&gt;&lt;br&gt;&lt;/p&gt;&lt;p style=&quot;margin:0 0 0 4px;line-height:1.6;&quot;&gt;&lt;span style=&quot;background-color: initial;&quot;&gt;+ getDuration: int&lt;/span&gt;&lt;/p&gt;" style="verticalAlign=top;align=left;overflow=fill;fontSize=14;fontFamily=Helvetica;html=1;rounded=0;shadow=0;comic=0;labelBackgroundColor=none;strokeWidth=1;" parent="1" vertex="1">
          <mxGeometry x="-607.5" y="1410" width="225" height="90" as="geometry" />
        </mxCell>
        <mxCell id="4FWtqKkLlV3kMwXZtPkh-142" value="" style="line;strokeWidth=1;fillColor=none;align=left;verticalAlign=middle;spacingTop=-1;spacingLeft=3;spacingRight=3;rotatable=0;labelPosition=right;points=[];portConstraint=eastwest;strokeColor=inherit;" parent="1" vertex="1">
          <mxGeometry x="-870" y="1468" width="220" height="8" as="geometry" />
        </mxCell>
        <mxCell id="4FWtqKkLlV3kMwXZtPkh-143" value="" style="line;strokeWidth=1;fillColor=none;align=left;verticalAlign=middle;spacingTop=-1;spacingLeft=3;spacingRight=3;rotatable=0;labelPosition=right;points=[];portConstraint=eastwest;strokeColor=inherit;" parent="1" vertex="1">
          <mxGeometry x="-602.5" y="1460" width="220" height="8" as="geometry" />
        </mxCell>
        <mxCell id="4FWtqKkLlV3kMwXZtPkh-144" value="" style="endArrow=block;endFill=1;html=1;edgeStyle=orthogonalEdgeStyle;align=left;verticalAlign=top;rounded=0;entryX=0.5;entryY=1;entryDx=0;entryDy=0;exitX=0.5;exitY=0;exitDx=0;exitDy=0;" parent="1" source="4FWtqKkLlV3kMwXZtPkh-140" target="4FWtqKkLlV3kMwXZtPkh-137" edge="1">
          <mxGeometry x="-1" relative="1" as="geometry">
            <mxPoint x="-690" y="1350" as="sourcePoint" />
            <mxPoint x="-530" y="1350" as="targetPoint" />
          </mxGeometry>
        </mxCell>
        <mxCell id="4FWtqKkLlV3kMwXZtPkh-145" value="1" style="edgeLabel;resizable=0;html=1;align=left;verticalAlign=bottom;" parent="4FWtqKkLlV3kMwXZtPkh-144" connectable="0" vertex="1">
          <mxGeometry x="-1" relative="1" as="geometry" />
        </mxCell>
        <mxCell id="4FWtqKkLlV3kMwXZtPkh-146" value="" style="endArrow=block;endFill=1;html=1;edgeStyle=orthogonalEdgeStyle;align=left;verticalAlign=top;rounded=0;entryX=0.5;entryY=1;entryDx=0;entryDy=0;exitX=0.5;exitY=0;exitDx=0;exitDy=0;" parent="1" source="4FWtqKkLlV3kMwXZtPkh-141" target="4FWtqKkLlV3kMwXZtPkh-137" edge="1">
          <mxGeometry x="-1" relative="1" as="geometry">
            <mxPoint x="-747" y="1420" as="sourcePoint" />
            <mxPoint x="-627" y="1170" as="targetPoint" />
          </mxGeometry>
        </mxCell>
        <mxCell id="4FWtqKkLlV3kMwXZtPkh-147" value="1" style="edgeLabel;resizable=0;html=1;align=left;verticalAlign=bottom;" parent="4FWtqKkLlV3kMwXZtPkh-146" connectable="0" vertex="1">
          <mxGeometry x="-1" relative="1" as="geometry" />
        </mxCell>
        <mxCell id="4FWtqKkLlV3kMwXZtPkh-148" value="extends" style="edgeLabel;html=1;align=center;verticalAlign=middle;resizable=0;points=[];" parent="4FWtqKkLlV3kMwXZtPkh-146" vertex="1" connectable="0">
          <mxGeometry x="0.2059" relative="1" as="geometry">
            <mxPoint as="offset" />
          </mxGeometry>
        </mxCell>
        <mxCell id="4FWtqKkLlV3kMwXZtPkh-149" value="ContentFactory" style="swimlane;fontStyle=0;childLayout=stackLayout;horizontal=1;startSize=26;fillColor=none;horizontalStack=0;resizeParent=1;resizeParentMax=0;resizeLast=0;collapsible=1;marginBottom=0;whiteSpace=wrap;html=1;" parent="1" vertex="1">
          <mxGeometry x="-1360" y="690" width="310" height="70" as="geometry" />
        </mxCell>
        <mxCell id="4FWtqKkLlV3kMwXZtPkh-150" value="+ getContent(): AbstractContent" style="text;strokeColor=none;fillColor=none;align=left;verticalAlign=top;spacingLeft=4;spacingRight=4;overflow=hidden;rotatable=0;points=[[0,0.5],[1,0.5]];portConstraint=eastwest;whiteSpace=wrap;html=1;" parent="4FWtqKkLlV3kMwXZtPkh-149" vertex="1">
          <mxGeometry y="26" width="310" height="44" as="geometry" />
        </mxCell>
        <mxCell id="4FWtqKkLlV3kMwXZtPkh-151" value="PostFactory" style="swimlane;fontStyle=0;childLayout=stackLayout;horizontal=1;startSize=26;fillColor=none;horizontalStack=0;resizeParent=1;resizeParentMax=0;resizeLast=0;collapsible=1;marginBottom=0;whiteSpace=wrap;html=1;" parent="1" vertex="1">
          <mxGeometry x="-1140" y="830" width="310" height="70" as="geometry" />
        </mxCell>
        <mxCell id="4FWtqKkLlV3kMwXZtPkh-152" value="+ getContent(): Post" style="text;strokeColor=none;fillColor=none;align=left;verticalAlign=top;spacingLeft=4;spacingRight=4;overflow=hidden;rotatable=0;points=[[0,0.5],[1,0.5]];portConstraint=eastwest;whiteSpace=wrap;html=1;" parent="4FWtqKkLlV3kMwXZtPkh-151" vertex="1">
          <mxGeometry y="26" width="310" height="44" as="geometry" />
        </mxCell>
        <mxCell id="4FWtqKkLlV3kMwXZtPkh-153" value="StoryFactory" style="swimlane;fontStyle=0;childLayout=stackLayout;horizontal=1;startSize=26;fillColor=none;horizontalStack=0;resizeParent=1;resizeParentMax=0;resizeLast=0;collapsible=1;marginBottom=0;whiteSpace=wrap;html=1;" parent="1" vertex="1">
          <mxGeometry x="-1585" y="830" width="310" height="70" as="geometry" />
        </mxCell>
        <mxCell id="4FWtqKkLlV3kMwXZtPkh-154" value="+ getContent(): Story" style="text;strokeColor=none;fillColor=none;align=left;verticalAlign=top;spacingLeft=4;spacingRight=4;overflow=hidden;rotatable=0;points=[[0,0.5],[1,0.5]];portConstraint=eastwest;whiteSpace=wrap;html=1;" parent="4FWtqKkLlV3kMwXZtPkh-153" vertex="1">
          <mxGeometry y="26" width="310" height="44" as="geometry" />
        </mxCell>
        <mxCell id="4FWtqKkLlV3kMwXZtPkh-155" value="ContentClient" style="swimlane;fontStyle=0;childLayout=stackLayout;horizontal=1;startSize=26;fillColor=none;horizontalStack=0;resizeParent=1;resizeParentMax=0;resizeLast=0;collapsible=1;marginBottom=0;whiteSpace=wrap;html=1;" parent="1" vertex="1">
          <mxGeometry x="-1360" y="1020" width="310" height="108" as="geometry" />
        </mxCell>
        <mxCell id="4FWtqKkLlV3kMwXZtPkh-156" value="&lt;div&gt;- content: AbstractContent&lt;/div&gt;&lt;div&gt;&lt;br&gt;&lt;/div&gt;&lt;div&gt;&lt;br&gt;&lt;/div&gt;+ getContent(): AbstractContent" style="text;strokeColor=none;fillColor=none;align=left;verticalAlign=top;spacingLeft=4;spacingRight=4;overflow=hidden;rotatable=0;points=[[0,0.5],[1,0.5]];portConstraint=eastwest;whiteSpace=wrap;html=1;" parent="4FWtqKkLlV3kMwXZtPkh-155" vertex="1">
          <mxGeometry y="26" width="310" height="74" as="geometry" />
        </mxCell>
        <mxCell id="4FWtqKkLlV3kMwXZtPkh-157" value="" style="line;strokeWidth=1;fillColor=none;align=left;verticalAlign=middle;spacingTop=-1;spacingLeft=3;spacingRight=3;rotatable=0;labelPosition=right;points=[];portConstraint=eastwest;strokeColor=inherit;" parent="4FWtqKkLlV3kMwXZtPkh-155" vertex="1">
          <mxGeometry y="100" width="310" height="8" as="geometry" />
        </mxCell>
        <mxCell id="4FWtqKkLlV3kMwXZtPkh-158" value="name" style="endArrow=block;endFill=1;html=1;edgeStyle=orthogonalEdgeStyle;align=left;verticalAlign=top;rounded=0;entryX=0;entryY=0.5;entryDx=0;entryDy=0;exitX=0.5;exitY=0;exitDx=0;exitDy=0;" parent="1" source="4FWtqKkLlV3kMwXZtPkh-153" target="4FWtqKkLlV3kMwXZtPkh-150" edge="1">
          <mxGeometry x="-1" relative="1" as="geometry">
            <mxPoint x="-1370" y="870" as="sourcePoint" />
            <mxPoint x="-1210" y="870" as="targetPoint" />
          </mxGeometry>
        </mxCell>
        <mxCell id="4FWtqKkLlV3kMwXZtPkh-159" value="1" style="edgeLabel;resizable=0;html=1;align=left;verticalAlign=bottom;" parent="4FWtqKkLlV3kMwXZtPkh-158" connectable="0" vertex="1">
          <mxGeometry x="-1" relative="1" as="geometry" />
        </mxCell>
        <mxCell id="4FWtqKkLlV3kMwXZtPkh-160" value="name" style="endArrow=block;endFill=1;html=1;edgeStyle=orthogonalEdgeStyle;align=left;verticalAlign=top;rounded=0;exitX=0.5;exitY=0;exitDx=0;exitDy=0;entryX=1;entryY=0.5;entryDx=0;entryDy=0;" parent="1" source="4FWtqKkLlV3kMwXZtPkh-151" target="4FWtqKkLlV3kMwXZtPkh-150" edge="1">
          <mxGeometry x="-1" relative="1" as="geometry">
            <mxPoint x="-1270" y="800" as="sourcePoint" />
            <mxPoint x="-1110" y="800" as="targetPoint" />
          </mxGeometry>
        </mxCell>
        <mxCell id="4FWtqKkLlV3kMwXZtPkh-161" value="1" style="edgeLabel;resizable=0;html=1;align=left;verticalAlign=bottom;" parent="4FWtqKkLlV3kMwXZtPkh-160" connectable="0" vertex="1">
          <mxGeometry x="-1" relative="1" as="geometry" />
        </mxCell>
        <mxCell id="4FWtqKkLlV3kMwXZtPkh-162" value="" style="endArrow=diamondThin;endFill=0;endSize=24;html=1;rounded=0;entryX=0.5;entryY=0;entryDx=0;entryDy=0;exitX=0;exitY=0.5;exitDx=0;exitDy=0;" parent="1" source="4FWtqKkLlV3kMwXZtPkh-152" target="4FWtqKkLlV3kMwXZtPkh-155" edge="1">
          <mxGeometry width="160" relative="1" as="geometry">
            <mxPoint x="-1310" y="1070" as="sourcePoint" />
            <mxPoint x="-1150" y="1070" as="targetPoint" />
          </mxGeometry>
        </mxCell>
        <mxCell id="4FWtqKkLlV3kMwXZtPkh-163" value="" style="endArrow=diamondThin;endFill=0;endSize=24;html=1;rounded=0;entryX=0.5;entryY=0;entryDx=0;entryDy=0;exitX=1;exitY=0.5;exitDx=0;exitDy=0;" parent="1" source="4FWtqKkLlV3kMwXZtPkh-154" target="4FWtqKkLlV3kMwXZtPkh-155" edge="1">
          <mxGeometry width="160" relative="1" as="geometry">
            <mxPoint x="-1130" y="888" as="sourcePoint" />
            <mxPoint x="-1195" y="1030" as="targetPoint" />
          </mxGeometry>
        </mxCell>
        <mxCell id="4FWtqKkLlV3kMwXZtPkh-164" value="" style="endArrow=diamondThin;endFill=1;endSize=24;html=1;rounded=0;entryX=0.846;entryY=1.128;entryDx=0;entryDy=0;entryPerimeter=0;exitX=0;exitY=0;exitDx=0;exitDy=0;" parent="1" source="4FWtqKkLlV3kMwXZtPkh-141" target="4FWtqKkLlV3kMwXZtPkh-152" edge="1">
          <mxGeometry width="160" relative="1" as="geometry">
            <mxPoint x="-770" y="1100" as="sourcePoint" />
            <mxPoint x="-610" y="1100" as="targetPoint" />
          </mxGeometry>
        </mxCell>
        <mxCell id="4FWtqKkLlV3kMwXZtPkh-165" value="" style="endArrow=diamondThin;endFill=1;endSize=24;html=1;rounded=0;entryX=1;entryY=0.5;entryDx=0;entryDy=0;exitX=0.5;exitY=0;exitDx=0;exitDy=0;" parent="1" source="4FWtqKkLlV3kMwXZtPkh-140" target="4FWtqKkLlV3kMwXZtPkh-154" edge="1">
          <mxGeometry width="160" relative="1" as="geometry">
            <mxPoint x="-595" y="1420" as="sourcePoint" />
            <mxPoint x="-868" y="916" as="targetPoint" />
          </mxGeometry>
        </mxCell>
        <mxCell id="4FWtqKkLlV3kMwXZtPkh-166" value="" style="endArrow=diamondThin;endFill=1;endSize=24;html=1;rounded=0;" parent="1" source="4FWtqKkLlV3kMwXZtPkh-35" target="4FWtqKkLlV3kMwXZtPkh-118" edge="1">
          <mxGeometry width="160" relative="1" as="geometry">
            <mxPoint x="1010" y="910" as="sourcePoint" />
            <mxPoint x="-20" y="1676.9799999999996" as="targetPoint" />
            <Array as="points">
              <mxPoint x="650" y="1370" />
            </Array>
          </mxGeometry>
        </mxCell>
        <mxCell id="4FWtqKkLlV3kMwXZtPkh-174" value="&amp;lt;&amp;lt;Interface&amp;gt;&amp;gt;&lt;div&gt;GroupsDatabase&lt;/div&gt;" style="swimlane;fontStyle=0;childLayout=stackLayout;horizontal=1;startSize=26;fillColor=none;horizontalStack=0;resizeParent=1;resizeParentMax=0;resizeLast=0;collapsible=1;marginBottom=0;whiteSpace=wrap;html=1;" parent="1" vertex="1">
          <mxGeometry x="1560" y="706" width="290" height="170" as="geometry" />
        </mxCell>
        <mxCell id="4FWtqKkLlV3kMwXZtPkh-175" value="+&amp;nbsp; save(): void" style="text;strokeColor=none;fillColor=none;align=left;verticalAlign=top;spacingLeft=4;spacingRight=4;overflow=hidden;rotatable=0;points=[[0,0.5],[1,0.5]];portConstraint=eastwest;whiteSpace=wrap;html=1;" parent="4FWtqKkLlV3kMwXZtPkh-174" vertex="1">
          <mxGeometry y="26" width="290" height="26" as="geometry" />
        </mxCell>
        <mxCell id="4FWtqKkLlV3kMwXZtPkh-176" value="+ load(): void" style="text;strokeColor=none;fillColor=none;align=left;verticalAlign=top;spacingLeft=4;spacingRight=4;overflow=hidden;rotatable=0;points=[[0,0.5],[1,0.5]];portConstraint=eastwest;whiteSpace=wrap;html=1;" parent="4FWtqKkLlV3kMwXZtPkh-174" vertex="1">
          <mxGeometry y="52" width="290" height="26" as="geometry" />
        </mxCell>
        <mxCell id="4FWtqKkLlV3kMwXZtPkh-177" value="+ getGroups(): ArrayList&amp;lt;Group&amp;gt;&lt;div&gt;+ removeGroup(String Id): void&lt;/div&gt;&lt;div&gt;+ addGroup(Group group): void&lt;/div&gt;&lt;div&gt;+ isGroupFound(Group group): boolean&amp;nbsp;&lt;/div&gt;" style="text;strokeColor=none;fillColor=none;align=left;verticalAlign=top;spacingLeft=4;spacingRight=4;overflow=hidden;rotatable=0;points=[[0,0.5],[1,0.5]];portConstraint=eastwest;whiteSpace=wrap;html=1;" parent="4FWtqKkLlV3kMwXZtPkh-174" vertex="1">
          <mxGeometry y="78" width="290" height="92" as="geometry" />
        </mxCell>
        <mxCell id="4FWtqKkLlV3kMwXZtPkh-181" value="Extends" style="endArrow=block;endSize=16;endFill=0;html=1;rounded=0;exitX=0.25;exitY=0;exitDx=0;exitDy=0;" parent="1" source="4FWtqKkLlV3kMwXZtPkh-174" target="4FWtqKkLlV3kMwXZtPkh-130" edge="1">
          <mxGeometry width="160" relative="1" as="geometry">
            <mxPoint x="960" y="820" as="sourcePoint" />
            <mxPoint x="1120" y="820" as="targetPoint" />
          </mxGeometry>
        </mxCell>
        <mxCell id="4FWtqKkLlV3kMwXZtPkh-186" value="" style="endArrow=block;dashed=1;endFill=0;endSize=12;html=1;rounded=0;" parent="1" target="4FWtqKkLlV3kMwXZtPkh-174" edge="1">
          <mxGeometry width="160" relative="1" as="geometry">
            <mxPoint x="1643.1413612565448" y="929.9999999999995" as="sourcePoint" />
            <mxPoint x="1120" y="820" as="targetPoint" />
          </mxGeometry>
        </mxCell>
        <mxCell id="4FWtqKkLlV3kMwXZtPkh-187" value="MemberRole" style="swimlane;fontStyle=0;childLayout=stackLayout;horizontal=1;startSize=26;fillColor=none;horizontalStack=0;resizeParent=1;resizeParentMax=0;resizeLast=0;collapsible=1;marginBottom=0;whiteSpace=wrap;html=1;" parent="1" vertex="1">
          <mxGeometry x="945" y="1136" width="140" height="104" as="geometry" />
        </mxCell>
        <mxCell id="4FWtqKkLlV3kMwXZtPkh-202" value="" style="endArrow=diamondThin;endFill=1;endSize=24;html=1;rounded=0;exitX=0.5;exitY=1;exitDx=0;exitDy=0;" parent="4FWtqKkLlV3kMwXZtPkh-187" source="9DrkVR1jagXuf6E-1eaQ-39" edge="1">
          <mxGeometry width="160" relative="1" as="geometry">
            <mxPoint x="675" y="-102.00000000000045" as="sourcePoint" />
            <mxPoint x="125" y="14.79528925619843" as="targetPoint" />
            <Array as="points">
              <mxPoint x="675" y="104" />
              <mxPoint x="405" y="134" />
            </Array>
          </mxGeometry>
        </mxCell>
        <mxCell id="4FWtqKkLlV3kMwXZtPkh-188" value="+requestTojoin():void" style="text;strokeColor=none;fillColor=none;align=left;verticalAlign=top;spacingLeft=4;spacingRight=4;overflow=hidden;rotatable=0;points=[[0,0.5],[1,0.5]];portConstraint=eastwest;whiteSpace=wrap;html=1;" parent="4FWtqKkLlV3kMwXZtPkh-187" vertex="1">
          <mxGeometry y="26" width="140" height="26" as="geometry" />
        </mxCell>
        <mxCell id="4FWtqKkLlV3kMwXZtPkh-245" value="+post():void" style="text;strokeColor=none;fillColor=none;align=left;verticalAlign=top;spacingLeft=4;spacingRight=4;overflow=hidden;rotatable=0;points=[[0,0.5],[1,0.5]];portConstraint=eastwest;whiteSpace=wrap;html=1;" parent="4FWtqKkLlV3kMwXZtPkh-187" vertex="1">
          <mxGeometry y="52" width="140" height="26" as="geometry" />
        </mxCell>
        <mxCell id="4FWtqKkLlV3kMwXZtPkh-190" value="+leaveGroup():void" style="text;strokeColor=none;fillColor=none;align=left;verticalAlign=top;spacingLeft=4;spacingRight=4;overflow=hidden;rotatable=0;points=[[0,0.5],[1,0.5]];portConstraint=eastwest;whiteSpace=wrap;html=1;" parent="4FWtqKkLlV3kMwXZtPkh-187" vertex="1">
          <mxGeometry y="78" width="140" height="26" as="geometry" />
        </mxCell>
        <mxCell id="4FWtqKkLlV3kMwXZtPkh-191" value="PrimaryAdminRole" style="swimlane;fontStyle=0;childLayout=stackLayout;horizontal=1;startSize=26;fillColor=none;horizontalStack=0;resizeParent=1;resizeParentMax=0;resizeLast=0;collapsible=1;marginBottom=0;whiteSpace=wrap;html=1;" parent="1" vertex="1">
          <mxGeometry x="950" y="1500" width="140" height="104" as="geometry" />
        </mxCell>
        <mxCell id="4FWtqKkLlV3kMwXZtPkh-192" value="+demoteAdmin():void" style="text;strokeColor=none;fillColor=none;align=left;verticalAlign=top;spacingLeft=4;spacingRight=4;overflow=hidden;rotatable=0;points=[[0,0.5],[1,0.5]];portConstraint=eastwest;whiteSpace=wrap;html=1;" parent="4FWtqKkLlV3kMwXZtPkh-191" vertex="1">
          <mxGeometry y="26" width="140" height="26" as="geometry" />
        </mxCell>
        <mxCell id="4FWtqKkLlV3kMwXZtPkh-193" value="+promoteToAmin():void" style="text;strokeColor=none;fillColor=none;align=left;verticalAlign=top;spacingLeft=4;spacingRight=4;overflow=hidden;rotatable=0;points=[[0,0.5],[1,0.5]];portConstraint=eastwest;whiteSpace=wrap;html=1;" parent="4FWtqKkLlV3kMwXZtPkh-191" vertex="1">
          <mxGeometry y="52" width="140" height="26" as="geometry" />
        </mxCell>
        <mxCell id="4FWtqKkLlV3kMwXZtPkh-194" value="+removeMember():void&lt;span style=&quot;color: rgba(0, 0, 0, 0); font-family: monospace; font-size: 0px; text-wrap: nowrap;&quot;&gt;%3CmxGraphModel%3E%3Croot%3E%3CmxCell%20id%3D%220%22%2F%3E%3CmxCell%20id%3D%221%22%20parent%3D%220%22%2F%3E%3CmxCell%20id%3D%222%22%20value%3D%22%2BapproveReque%26lt%3Bspan%20style%3D%26quot%3Bcolor%3A%20rgba(0%2C%200%2C%200%2C%200)%3B%20font-family%3A%20monospace%3B%20font-size%3A%200px%3B%20text-wrap%3A%20nowrap%3B%26quot%3B%26gt%3B%253CmxGraphModel%253E%253Croot%253E%253CmxCell%2520id%253D%25220%2522%252F%253E%253CmxCell%2520id%253D%25221%2522%2520parent%253D%25220%2522%252F%253E%253CmxCell%2520id%253D%25222%2522%2520value%253D%2522%252BleaveGroup()%253Avoid%2522%2520style%253D%2522text%253BstrokeColor%253Dnone%253BfillColor%253Dnone%253Balign%253Dleft%253BverticalAlign%253Dtop%253BspacingLeft%253D4%253BspacingRight%253D4%253Boverflow%253Dhidden%253Brotatable%253D0%253Bpoints%253D%255B%255B0%252C0.5%255D%252C%255B1%252C0.5%255D%255D%253BportConstraint%253Deastwest%253BwhiteSpace%253Dwrap%253Bhtml%253D1%253B%2522%2520vertex%253D%25221%2522%2520parent%253D%25221%2522%253E%253CmxGeometry%2520x%253D%2522945%2522%2520y%253D%25221214%2522%2520width%253D%2522140%2522%2520height%253D%252226%2522%2520as%253D%2522geometry%2522%252F%253E%253C%252FmxCell%253E%253C%252Froot%253E%253C%252FmxGraphModel%253E%26lt%3B%2Fspan%26gt%3Bsts()%3Avoif%26lt%3Bspan%20style%3D%26quot%3Bcolor%3A%20rgba(0%2C%200%2C%200%2C%200)%3B%20font-family%3A%20monospace%3B%20font-size%3A%200px%3B%20text-wrap%3A%20nowrap%3B%26quot%3B%26gt%3B%253CmxGraphModel%253E%253Croot%253E%253CmxCell%2520id%253D%25220%2522%252F%253E%253CmxCell%2520id%253D%25221%2522%2520parent%253D%25220%2522%252F%253E%253CmxCell%2520id%253D%25222%2522%2520value%253D%2522%252BleaveGroup()%253Avoid%2522%2520style%253D%2522text%253BstrokeColor%253Dnone%253BfillColor%253Dnone%253Balign%253Dleft%253BverticalAlign%253Dtop%253BspacingLeft%253D4%253BspacingRight%253D4%253Boverflow%253Dhidden%253Brotatable%253D0%253Bpoints%253D%255B%255B0%252C0.5%255D%252C%255B1%252C0.5%255D%255D%253BportConstraint%253Deastwest%253BwhiteSpace%253Dwrap%253Bhtml%253D1%253B%2522%2520vertex%253D%25221%2522%2520parent%253D%25221%2522%253E%253CmxGeometry%2520x%253D%2522945%2522%2520y%253D%25221214%2522%2520width%253D%2522140%2522%2520height%253D%252226%2522%2520as%253D%2522geometry%2522%252F%253E%253C%252FmxCell%253E%253C%252Froot%253E%253C%252FmxGraphModel%253E%26lt%3B%2Fspan%26gt%3B%22%20style%3D%22text%3BstrokeColor%3Dnone%3BfillColor%3Dnone%3Balign%3Dleft%3BverticalAlign%3Dtop%3BspacingLeft%3D4%3BspacingRight%3D4%3Boverflow%3Dhidden%3Brotatable%3D0%3Bpoints%3D%5B%5B0%2C0.5%5D%2C%5B1%2C0.5%5D%5D%3BportConstraint%3Deastwest%3BwhiteSpace%3Dwrap%3Bhtml%3D1%3B%22%20vertex%3D%221%22%20parent%3D%221%22%3E%3CmxGeometry%20x%3D%22945%22%20y%3D%221346%22%20width%3D%22120%22%20height%3D%2226%22%20as%3D%22geometry%22%2F%3E%3C%2FmxCell%3E%3C%2Froot%3E%3C%2FmxGraphModel%3E&lt;/span&gt;" style="text;strokeColor=none;fillColor=none;align=left;verticalAlign=top;spacingLeft=4;spacingRight=4;overflow=hidden;rotatable=0;points=[[0,0.5],[1,0.5]];portConstraint=eastwest;whiteSpace=wrap;html=1;" parent="4FWtqKkLlV3kMwXZtPkh-191" vertex="1">
          <mxGeometry y="78" width="140" height="26" as="geometry" />
        </mxCell>
        <mxCell id="4FWtqKkLlV3kMwXZtPkh-195" value="AdminRole" style="swimlane;fontStyle=0;childLayout=stackLayout;horizontal=1;startSize=26;fillColor=none;horizontalStack=0;resizeParent=1;resizeParentMax=0;resizeLast=0;collapsible=1;marginBottom=0;whiteSpace=wrap;html=1;" parent="1" vertex="1">
          <mxGeometry x="945" y="1320" width="120" height="130" as="geometry" />
        </mxCell>
        <mxCell id="4FWtqKkLlV3kMwXZtPkh-196" value="+approveReque&lt;span style=&quot;color: rgba(0, 0, 0, 0); font-family: monospace; font-size: 0px; text-wrap: nowrap;&quot;&gt;%3CmxGraphModel%3E%3Croot%3E%3CmxCell%20id%3D%220%22%2F%3E%3CmxCell%20id%3D%221%22%20parent%3D%220%22%2F%3E%3CmxCell%20id%3D%222%22%20value%3D%22%2BleaveGroup()%3Avoid%22%20style%3D%22text%3BstrokeColor%3Dnone%3BfillColor%3Dnone%3Balign%3Dleft%3BverticalAlign%3Dtop%3BspacingLeft%3D4%3BspacingRight%3D4%3Boverflow%3Dhidden%3Brotatable%3D0%3Bpoints%3D%5B%5B0%2C0.5%5D%2C%5B1%2C0.5%5D%5D%3BportConstraint%3Deastwest%3BwhiteSpace%3Dwrap%3Bhtml%3D1%3B%22%20vertex%3D%221%22%20parent%3D%221%22%3E%3CmxGeometry%20x%3D%22945%22%20y%3D%221214%22%20width%3D%22140%22%20height%3D%2226%22%20as%3D%22geometry%22%2F%3E%3C%2FmxCell%3E%3C%2Froot%3E%3C%2FmxGraphModel%3E&lt;/span&gt;sts():voif&lt;span style=&quot;color: rgba(0, 0, 0, 0); font-family: monospace; font-size: 0px; text-wrap: nowrap;&quot;&gt;%3CmxGraphModel%3E%3Croot%3E%3CmxCell%20id%3D%220%22%2F%3E%3CmxCell%20id%3D%221%22%20parent%3D%220%22%2F%3E%3CmxCell%20id%3D%222%22%20value%3D%22%2BleaveGroup()%3Avoid%22%20style%3D%22text%3BstrokeColor%3Dnone%3BfillColor%3Dnone%3Balign%3Dleft%3BverticalAlign%3Dtop%3BspacingLeft%3D4%3BspacingRight%3D4%3Boverflow%3Dhidden%3Brotatable%3D0%3Bpoints%3D%5B%5B0%2C0.5%5D%2C%5B1%2C0.5%5D%5D%3BportConstraint%3Deastwest%3BwhiteSpace%3Dwrap%3Bhtml%3D1%3B%22%20vertex%3D%221%22%20parent%3D%221%22%3E%3CmxGeometry%20x%3D%22945%22%20y%3D%221214%22%20width%3D%22140%22%20height%3D%2226%22%20as%3D%22geometry%22%2F%3E%3C%2FmxCell%3E%3C%2Froot%3E%3C%2FmxGraphModel%3E&lt;/span&gt;" style="text;strokeColor=none;fillColor=none;align=left;verticalAlign=top;spacingLeft=4;spacingRight=4;overflow=hidden;rotatable=0;points=[[0,0.5],[1,0.5]];portConstraint=eastwest;whiteSpace=wrap;html=1;" parent="4FWtqKkLlV3kMwXZtPkh-195" vertex="1">
          <mxGeometry y="26" width="120" height="26" as="geometry" />
        </mxCell>
        <mxCell id="4FWtqKkLlV3kMwXZtPkh-197" value="+removeNormalmember():void" style="text;strokeColor=none;fillColor=none;align=left;verticalAlign=top;spacingLeft=4;spacingRight=4;overflow=hidden;rotatable=0;points=[[0,0.5],[1,0.5]];portConstraint=eastwest;whiteSpace=wrap;html=1;" parent="4FWtqKkLlV3kMwXZtPkh-195" vertex="1">
          <mxGeometry y="52" width="120" height="26" as="geometry" />
        </mxCell>
        <mxCell id="4FWtqKkLlV3kMwXZtPkh-246" value="+declineRequesrs():void" style="text;strokeColor=none;fillColor=none;align=left;verticalAlign=top;spacingLeft=4;spacingRight=4;overflow=hidden;rotatable=0;points=[[0,0.5],[1,0.5]];portConstraint=eastwest;whiteSpace=wrap;html=1;" parent="4FWtqKkLlV3kMwXZtPkh-195" vertex="1">
          <mxGeometry y="78" width="120" height="26" as="geometry" />
        </mxCell>
        <mxCell id="4FWtqKkLlV3kMwXZtPkh-248" value="+managePosts():void" style="text;strokeColor=none;fillColor=none;align=left;verticalAlign=top;spacingLeft=4;spacingRight=4;overflow=hidden;rotatable=0;points=[[0,0.5],[1,0.5]];portConstraint=eastwest;whiteSpace=wrap;html=1;" parent="4FWtqKkLlV3kMwXZtPkh-195" vertex="1">
          <mxGeometry y="104" width="120" height="26" as="geometry" />
        </mxCell>
        <mxCell id="4FWtqKkLlV3kMwXZtPkh-200" value="Extends" style="endArrow=block;endSize=16;endFill=0;html=1;rounded=0;" parent="1" source="4FWtqKkLlV3kMwXZtPkh-195" target="4FWtqKkLlV3kMwXZtPkh-187" edge="1">
          <mxGeometry width="160" relative="1" as="geometry">
            <mxPoint x="935" y="1340" as="sourcePoint" />
            <mxPoint x="1095" y="1340" as="targetPoint" />
          </mxGeometry>
        </mxCell>
        <mxCell id="4FWtqKkLlV3kMwXZtPkh-201" value="Extends" style="endArrow=block;endSize=16;endFill=0;html=1;rounded=0;" parent="1" source="4FWtqKkLlV3kMwXZtPkh-191" target="4FWtqKkLlV3kMwXZtPkh-195" edge="1">
          <mxGeometry width="160" relative="1" as="geometry">
            <mxPoint x="960" y="1400" as="sourcePoint" />
            <mxPoint x="1120" y="1400" as="targetPoint" />
          </mxGeometry>
        </mxCell>
        <mxCell id="4FWtqKkLlV3kMwXZtPkh-203" value="" style="endArrow=diamondThin;endFill=1;endSize=24;html=1;rounded=0;entryX=0.5;entryY=0;entryDx=0;entryDy=0;exitX=0.452;exitY=0.977;exitDx=0;exitDy=0;exitPerimeter=0;" parent="1" source="4FWtqKkLlV3kMwXZtPkh-35" target="4FWtqKkLlV3kMwXZtPkh-187" edge="1">
          <mxGeometry width="160" relative="1" as="geometry">
            <mxPoint x="980" y="1110" as="sourcePoint" />
            <mxPoint x="1140" y="1110" as="targetPoint" />
          </mxGeometry>
        </mxCell>
        <mxCell id="4FWtqKkLlV3kMwXZtPkh-205" value="Group" style="swimlane;fontStyle=0;childLayout=stackLayout;horizontal=1;startSize=26;fillColor=none;horizontalStack=0;resizeParent=1;resizeParentMax=0;resizeLast=0;collapsible=1;marginBottom=0;whiteSpace=wrap;html=1;" parent="1" vertex="1">
          <mxGeometry x="30" y="1640" width="140" height="182" as="geometry" />
        </mxCell>
        <mxCell id="4FWtqKkLlV3kMwXZtPkh-206" value="+pendingReuests:lists" style="text;strokeColor=none;fillColor=none;align=left;verticalAlign=top;spacingLeft=4;spacingRight=4;overflow=hidden;rotatable=0;points=[[0,0.5],[1,0.5]];portConstraint=eastwest;whiteSpace=wrap;html=1;" parent="4FWtqKkLlV3kMwXZtPkh-205" vertex="1">
          <mxGeometry y="26" width="140" height="26" as="geometry" />
        </mxCell>
        <mxCell id="4FWtqKkLlV3kMwXZtPkh-207" value="+admins:list" style="text;strokeColor=none;fillColor=none;align=left;verticalAlign=top;spacingLeft=4;spacingRight=4;overflow=hidden;rotatable=0;points=[[0,0.5],[1,0.5]];portConstraint=eastwest;whiteSpace=wrap;html=1;" parent="4FWtqKkLlV3kMwXZtPkh-205" vertex="1">
          <mxGeometry y="52" width="140" height="26" as="geometry" />
        </mxCell>
        <mxCell id="4FWtqKkLlV3kMwXZtPkh-239" value="+members:list&lt;span style=&quot;color: rgba(0, 0, 0, 0); font-family: monospace; font-size: 0px; text-wrap: nowrap;&quot;&gt;%3CmxGraphModel%3E%3Croot%3E%3CmxCell%20id%3D%220%22%2F%3E%3CmxCell%20id%3D%221%22%20parent%3D%220%22%2F%3E%3CmxCell%20id%3D%222%22%20value%3D%22%2BsetProfilePHoto%22%20style%3D%22text%3BstrokeColor%3Dnone%3BfillColor%3Dnone%3Balign%3Dleft%3BverticalAlign%3Dtop%3BspacingLeft%3D4%3BspacingRight%3D4%3Boverflow%3Dhidden%3Brotatable%3D0%3Bpoints%3D%5B%5B0%2C0.5%5D%2C%5B1%2C0.5%5D%5D%3BportConstraint%3Deastwest%3BwhiteSpace%3Dwrap%3Bhtml%3D1%3B%22%20vertex%3D%221%22%20parent%3D%221%22%3E%3CmxGeometry%20x%3D%22-330%22%20y%3D%221884%22%20width%3D%22140%22%20height%3D%2226%22%20as%3D%22geometry%22%2F%3E%3C%2FmxCell%3E%3C%2Froot%3E%3C%2FmxGraphModel%3E&lt;/span&gt;" style="text;strokeColor=none;fillColor=none;align=left;verticalAlign=top;spacingLeft=4;spacingRight=4;overflow=hidden;rotatable=0;points=[[0,0.5],[1,0.5]];portConstraint=eastwest;whiteSpace=wrap;html=1;" parent="4FWtqKkLlV3kMwXZtPkh-205" vertex="1">
          <mxGeometry y="78" width="140" height="26" as="geometry" />
        </mxCell>
        <mxCell id="4FWtqKkLlV3kMwXZtPkh-208" value="+primaryAdmin:string" style="text;strokeColor=none;fillColor=none;align=left;verticalAlign=top;spacingLeft=4;spacingRight=4;overflow=hidden;rotatable=0;points=[[0,0.5],[1,0.5]];portConstraint=eastwest;whiteSpace=wrap;html=1;" parent="4FWtqKkLlV3kMwXZtPkh-205" vertex="1">
          <mxGeometry y="104" width="140" height="26" as="geometry" />
        </mxCell>
        <mxCell id="4FWtqKkLlV3kMwXZtPkh-240" value="+profilePhotoPath:str&lt;span style=&quot;color: rgba(0, 0, 0, 0); font-family: monospace; font-size: 0px; text-wrap: nowrap;&quot;&gt;%3CmxGraphModel%3E%3Croot%3E%3CmxCell%20id%3D%220%22%2F%3E%3CmxCell%20id%3D%221%22%20parent%3D%220%22%2F%3E%3CmxCell%20id%3D%222%22%20value%3D%22%2Bmembers%3Alist%26lt%3Bspan%20style%3D%26quot%3Bcolor%3A%20rgba(0%2C%200%2C%200%2C%200)%3B%20font-family%3A%20monospace%3B%20font-size%3A%200px%3B%20text-wrap%3A%20nowrap%3B%26quot%3B%26gt%3B%253CmxGraphModel%253E%253Croot%253E%253CmxCell%2520id%253D%25220%2522%252F%253E%253CmxCell%2520id%253D%25221%2522%2520parent%253D%25220%2522%252F%253E%253CmxCell%2520id%253D%25222%2522%2520value%253D%2522%252BsetProfilePHoto%2522%2520style%253D%2522text%253BstrokeColor%253Dnone%253BfillColor%253Dnone%253Balign%253Dleft%253BverticalAlign%253Dtop%253BspacingLeft%253D4%253BspacingRight%253D4%253Boverflow%253Dhidden%253Brotatable%253D0%253Bpoints%253D%255B%255B0%252C0.5%255D%252C%255B1%252C0.5%255D%255D%253BportConstraint%253Deastwest%253BwhiteSpace%253Dwrap%253Bhtml%253D1%253B%2522%2520vertex%253D%25221%2522%2520parent%253D%25221%2522%253E%253CmxGeometry%2520x%253D%2522-330%2522%2520y%253D%25221884%2522%2520width%253D%2522140%2522%2520height%253D%252226%2522%2520as%253D%2522geometry%2522%252F%253E%253C%252FmxCell%253E%253C%252Froot%253E%253C%252FmxGraphModel%253E%26lt%3B%2Fspan%26gt%3B%22%20style%3D%22text%3BstrokeColor%3Dnone%3BfillColor%3Dnone%3Balign%3Dleft%3BverticalAlign%3Dtop%3BspacingLeft%3D4%3BspacingRight%3D4%3Boverflow%3Dhidden%3Brotatable%3D0%3Bpoints%3D%5B%5B0%2C0.5%5D%2C%5B1%2C0.5%5D%5D%3BportConstraint%3Deastwest%3BwhiteSpace%3Dwrap%3Bhtml%3D1%3B%22%20vertex%3D%221%22%20parent%3D%221%22%3E%3CmxGeometry%20x%3D%2230%22%20y%3D%221718%22%20width%3D%22140%22%20height%3D%2226%22%20as%3D%22geometry%22%2F%3E%3C%2FmxCell%3E%3C%2Froot%3E%3C%2FmxGraphModel%3E&lt;/span&gt;ing&lt;span style=&quot;color: rgba(0, 0, 0, 0); font-family: monospace; font-size: 0px; text-wrap: nowrap;&quot;&gt;%3CmxGraphModel%3E%3Croot%3E%3CmxCell%20id%3D%220%22%2F%3E%3CmxCell%20id%3D%221%22%20parent%3D%220%22%2F%3E%3CmxCell%20id%3D%222%22%20value%3D%22%2Bmembers%3Alist%26lt%3Bspan%20style%3D%26quot%3Bcolor%3A%20rgba(0%2C%200%2C%200%2C%200)%3B%20font-family%3A%20monospace%3B%20font-size%3A%200px%3B%20text-wrap%3A%20nowrap%3B%26quot%3B%26gt%3B%253CmxGraphModel%253E%253Croot%253E%253CmxCell%2520id%253D%25220%2522%252F%253E%253CmxCell%2520id%253D%25221%2522%2520parent%253D%25220%2522%252F%253E%253CmxCell%2520id%253D%25222%2522%2520value%253D%2522%252BsetProfilePHoto%2522%2520style%253D%2522text%253BstrokeColor%253Dnone%253BfillColor%253Dnone%253Balign%253Dleft%253BverticalAlign%253Dtop%253BspacingLeft%253D4%253BspacingRight%253D4%253Boverflow%253Dhidden%253Brotatable%253D0%253Bpoints%253D%255B%255B0%252C0.5%255D%252C%255B1%252C0.5%255D%255D%253BportConstraint%253Deastwest%253BwhiteSpace%253Dwrap%253Bhtml%253D1%253B%2522%2520vertex%253D%25221%2522%2520parent%253D%25221%2522%253E%253CmxGeometry%2520x%253D%2522-330%2522%2520y%253D%25221884%2522%2520width%253D%2522140%2522%2520height%253D%252226%2522%2520as%253D%2522geometry%2522%252F%253E%253C%252FmxCell%253E%253C%252Froot%253E%253C%252FmxGraphModel%253E%26lt%3B%2Fspan%26gt%3B%22%20style%3D%22text%3BstrokeColor%3Dnone%3BfillColor%3Dnone%3Balign%3Dleft%3BverticalAlign%3Dtop%3BspacingLeft%3D4%3BspacingRight%3D4%3Boverflow%3Dhidden%3Brotatable%3D0%3Bpoints%3D%5B%5B0%2C0.5%5D%2C%5B1%2C0.5%5D%5D%3BportConstraint%3Deastwest%3BwhiteSpace%3Dwrap%3Bhtml%3D1%3B%22%20vertex%3D%221%22%20parent%3D%221%22%3E%3CmxGeometry%20x%3D%2230%22%20y%3D%221718%22%20width%3D%22140%22%20height%3D%2226%22%20as%3D%22geometry%22%2F%3E%3C%2FmxCell%3E%3C%2Froot%3E%3C%2FmxGraphModel%3E&lt;/span&gt;" style="text;strokeColor=none;fillColor=none;align=left;verticalAlign=top;spacingLeft=4;spacingRight=4;overflow=hidden;rotatable=0;points=[[0,0.5],[1,0.5]];portConstraint=eastwest;whiteSpace=wrap;html=1;" parent="4FWtqKkLlV3kMwXZtPkh-205" vertex="1">
          <mxGeometry y="130" width="140" height="26" as="geometry" />
        </mxCell>
        <mxCell id="4FWtqKkLlV3kMwXZtPkh-241" value="+groupID:string" style="text;strokeColor=none;fillColor=none;align=left;verticalAlign=top;spacingLeft=4;spacingRight=4;overflow=hidden;rotatable=0;points=[[0,0.5],[1,0.5]];portConstraint=eastwest;whiteSpace=wrap;html=1;" parent="4FWtqKkLlV3kMwXZtPkh-205" vertex="1">
          <mxGeometry y="156" width="140" height="26" as="geometry" />
        </mxCell>
        <mxCell id="4FWtqKkLlV3kMwXZtPkh-209" value="GroupManager" style="swimlane;fontStyle=0;childLayout=stackLayout;horizontal=1;startSize=26;fillColor=none;horizontalStack=0;resizeParent=1;resizeParentMax=0;resizeLast=0;collapsible=1;marginBottom=0;whiteSpace=wrap;html=1;" parent="1" vertex="1">
          <mxGeometry x="321" y="1650" width="140" height="182" as="geometry" />
        </mxCell>
        <mxCell id="4FWtqKkLlV3kMwXZtPkh-210" value="+requestTojoin():void" style="text;strokeColor=none;fillColor=none;align=left;verticalAlign=top;spacingLeft=4;spacingRight=4;overflow=hidden;rotatable=0;points=[[0,0.5],[1,0.5]];portConstraint=eastwest;whiteSpace=wrap;html=1;" parent="4FWtqKkLlV3kMwXZtPkh-209" vertex="1">
          <mxGeometry y="26" width="140" height="26" as="geometry" />
        </mxCell>
        <mxCell id="4FWtqKkLlV3kMwXZtPkh-211" value="+joinGroup():void&lt;span style=&quot;color: rgba(0, 0, 0, 0); font-family: monospace; font-size: 0px; text-wrap: nowrap;&quot;&gt;%3CmxGraphModel%3E%3Croot%3E%3CmxCell%20id%3D%220%22%2F%3E%3CmxCell%20id%3D%221%22%20parent%3D%220%22%2F%3E%3CmxCell%20id%3D%222%22%20value%3D%22%2BprofilePhotoPath%3Astr%26lt%3Bspan%20style%3D%26quot%3Bcolor%3A%20rgba(0%2C%200%2C%200%2C%200)%3B%20font-family%3A%20monospace%3B%20font-size%3A%200px%3B%20text-wrap%3A%20nowrap%3B%26quot%3B%26gt%3B%253CmxGraphModel%253E%253Croot%253E%253CmxCell%2520id%253D%25220%2522%252F%253E%253CmxCell%2520id%253D%25221%2522%2520parent%253D%25220%2522%252F%253E%253CmxCell%2520id%253D%25222%2522%2520value%253D%2522%252Bmembers%253Alist%2526lt%253Bspan%2520style%253D%2526quot%253Bcolor%253A%2520rgba(0%252C%25200%252C%25200%252C%25200)%253B%2520font-family%253A%2520monospace%253B%2520font-size%253A%25200px%253B%2520text-wrap%253A%2520nowrap%253B%2526quot%253B%2526gt%253B%25253CmxGraphModel%25253E%25253Croot%25253E%25253CmxCell%252520id%25253D%2525220%252522%25252F%25253E%25253CmxCell%252520id%25253D%2525221%252522%252520parent%25253D%2525220%252522%25252F%25253E%25253CmxCell%252520id%25253D%2525222%252522%252520value%25253D%252522%25252BsetProfilePHoto%252522%252520style%25253D%252522text%25253BstrokeColor%25253Dnone%25253BfillColor%25253Dnone%25253Balign%25253Dleft%25253BverticalAlign%25253Dtop%25253BspacingLeft%25253D4%25253BspacingRight%25253D4%25253Boverflow%25253Dhidden%25253Brotatable%25253D0%25253Bpoints%25253D%25255B%25255B0%25252C0.5%25255D%25252C%25255B1%25252C0.5%25255D%25255D%25253BportConstraint%25253Deastwest%25253BwhiteSpace%25253Dwrap%25253Bhtml%25253D1%25253B%252522%252520vertex%25253D%2525221%252522%252520parent%25253D%2525221%252522%25253E%25253CmxGeometry%252520x%25253D%252522-330%252522%252520y%25253D%2525221884%252522%252520width%25253D%252522140%252522%252520height%25253D%25252226%252522%252520as%25253D%252522geometry%252522%25252F%25253E%25253C%25252FmxCell%25253E%25253C%25252Froot%25253E%25253C%25252FmxGraphModel%25253E%2526lt%253B%252Fspan%2526gt%253B%2522%2520style%253D%2522text%253BstrokeColor%253Dnone%253BfillColor%253Dnone%253Balign%253Dleft%253BverticalAlign%253Dtop%253BspacingLeft%253D4%253BspacingRight%253D4%253Boverflow%253Dhidden%253Brotatable%253D0%253Bpoints%253D%255B%255B0%252C0.5%255D%252C%255B1%252C0.5%255D%255D%253BportConstraint%253Deastwest%253BwhiteSpace%253Dwrap%253Bhtml%253D1%253B%2522%2520vertex%253D%25221%2522%2520parent%253D%25221%2522%253E%253CmxGeometry%2520x%253D%252230%2522%2520y%253D%25221718%2522%2520width%253D%2522140%2522%2520height%253D%252226%2522%2520as%253D%2522geometry%2522%252F%253E%253C%252FmxCell%253E%253C%252Froot%253E%253C%252FmxGraphModel%253E%26lt%3B%2Fspan%26gt%3Bing%26lt%3Bspan%20style%3D%26quot%3Bcolor%3A%20rgba(0%2C%200%2C%200%2C%200)%3B%20font-family%3A%20monospace%3B%20font-size%3A%200px%3B%20text-wrap%3A%20nowrap%3B%26quot%3B%26gt%3B%253CmxGraphModel%253E%253Croot%253E%253CmxCell%2520id%253D%25220%2522%252F%253E%253CmxCell%2520id%253D%25221%2522%2520parent%253D%25220%2522%252F%253E%253CmxCell%2520id%253D%25222%2522%2520value%253D%2522%252Bmembers%253Alist%2526lt%253Bspan%2520style%253D%2526quot%253Bcolor%253A%2520rgba(0%252C%25200%252C%25200%252C%25200)%253B%2520font-family%253A%2520monospace%253B%2520font-size%253A%25200px%253B%2520text-wrap%253A%2520nowrap%253B%2526quot%253B%2526gt%253B%25253CmxGraphModel%25253E%25253Croot%25253E%25253CmxCell%252520id%25253D%2525220%252522%25252F%25253E%25253CmxCell%252520id%25253D%2525221%252522%252520parent%25253D%2525220%252522%25252F%25253E%25253CmxCell%252520id%25253D%2525222%252522%252520value%25253D%252522%25252BsetProfilePHoto%252522%252520style%25253D%252522text%25253BstrokeColor%25253Dnone%25253BfillColor%25253Dnone%25253Balign%25253Dleft%25253BverticalAlign%25253Dtop%25253BspacingLeft%25253D4%25253BspacingRight%25253D4%25253Boverflow%25253Dhidden%25253Brotatable%25253D0%25253Bpoints%25253D%25255B%25255B0%25252C0.5%25255D%25252C%25255B1%25252C0.5%25255D%25255D%25253BportConstraint%25253Deastwest%25253BwhiteSpace%25253Dwrap%25253Bhtml%25253D1%25253B%252522%252520vertex%25253D%2525221%252522%252520parent%25253D%2525221%252522%25253E%25253CmxGeometry%252520x%25253D%252522-330%252522%252520y%25253D%2525221884%252522%252520width%25253D%252522140%252522%252520height%25253D%25252226%252522%252520as%25253D%252522geometry%252522%25252F%25253E%25253C%25252FmxCell%25253E%25253C%25252Froot%25253E%25253C%25252FmxGraphModel%25253E%2526lt%253B%252Fspan%2526gt%253B%2522%2520style%253D%2522text%253BstrokeColor%253Dnone%253BfillColor%253Dnone%253Balign%253Dleft%253BverticalAlign%253Dtop%253BspacingLeft%253D4%253BspacingRight%253D4%253Boverflow%253Dhidden%253Brotatable%253D0%253Bpoints%253D%255B%255B0%252C0.5%255D%252C%255B1%252C0.5%255D%255D%253BportConstraint%253Deastwest%253BwhiteSpace%253Dwrap%253Bhtml%253D1%253B%2522%2520vertex%253D%25221%2522%2520parent%253D%25221%2522%253E%253CmxGeometry%2520x%253D%252230%2522%2520y%253D%25221718%2522%2520width%253D%2522140%2522%2520height%253D%252226%2522%2520as%253D%2522geometry%2522%252F%253E%253C%252FmxCell%253E%253C%252Froot%253E%253C%252FmxGraphModel%253E%26lt%3B%2Fspan%26gt%3B%22%20style%3D%22text%3BstrokeColor%3Dnone%3BfillColor%3Dnone%3Balign%3Dleft%3BverticalAlign%3Dtop%3BspacingLeft%3D4%3BspacingRight%3D4%3Boverflow%3Dhidden%3Brotatable%3D0%3Bpoints%3D%5B%5B0%2C0.5%5D%2C%5B1%2C0.5%5D%5D%3BportConstraint%3Deastwest%3BwhiteSpace%3Dwrap%3Bhtml%3D1%3B%22%20vertex%3D%221%22%20parent%3D%221%22%3E%3CmxGeometry%20x%3D%2230%22%20y%3D%221770%22%20width%3D%22140%22%20height%3D%2226%22%20as%3D%22geometry%22%2F%3E%3C%2FmxCell%3E%3C%2Froot%3E%3C%2FmxGraphModel%3E&lt;/span&gt;" style="text;strokeColor=none;fillColor=none;align=left;verticalAlign=top;spacingLeft=4;spacingRight=4;overflow=hidden;rotatable=0;points=[[0,0.5],[1,0.5]];portConstraint=eastwest;whiteSpace=wrap;html=1;" parent="4FWtqKkLlV3kMwXZtPkh-209" vertex="1">
          <mxGeometry y="52" width="140" height="26" as="geometry" />
        </mxCell>
        <mxCell id="4FWtqKkLlV3kMwXZtPkh-242" value="+removeMember():void&lt;span style=&quot;color: rgba(0, 0, 0, 0); font-family: monospace; font-size: 0px; text-wrap: nowrap;&quot;&gt;%3CmxGraphModel%3E%3Croot%3E%3CmxCell%20id%3D%220%22%2F%3E%3CmxCell%20id%3D%221%22%20parent%3D%220%22%2F%3E%3CmxCell%20id%3D%222%22%20value%3D%22%2BprofilePhotoPath%3Astr%26lt%3Bspan%20style%3D%26quot%3Bcolor%3A%20rgba(0%2C%200%2C%200%2C%200)%3B%20font-family%3A%20monospace%3B%20font-size%3A%200px%3B%20text-wrap%3A%20nowrap%3B%26quot%3B%26gt%3B%253CmxGraphModel%253E%253Croot%253E%253CmxCell%2520id%253D%25220%2522%252F%253E%253CmxCell%2520id%253D%25221%2522%2520parent%253D%25220%2522%252F%253E%253CmxCell%2520id%253D%25222%2522%2520value%253D%2522%252Bmembers%253Alist%2526lt%253Bspan%2520style%253D%2526quot%253Bcolor%253A%2520rgba(0%252C%25200%252C%25200%252C%25200)%253B%2520font-family%253A%2520monospace%253B%2520font-size%253A%25200px%253B%2520text-wrap%253A%2520nowrap%253B%2526quot%253B%2526gt%253B%25253CmxGraphModel%25253E%25253Croot%25253E%25253CmxCell%252520id%25253D%2525220%252522%25252F%25253E%25253CmxCell%252520id%25253D%2525221%252522%252520parent%25253D%2525220%252522%25252F%25253E%25253CmxCell%252520id%25253D%2525222%252522%252520value%25253D%252522%25252BsetProfilePHoto%252522%252520style%25253D%252522text%25253BstrokeColor%25253Dnone%25253BfillColor%25253Dnone%25253Balign%25253Dleft%25253BverticalAlign%25253Dtop%25253BspacingLeft%25253D4%25253BspacingRight%25253D4%25253Boverflow%25253Dhidden%25253Brotatable%25253D0%25253Bpoints%25253D%25255B%25255B0%25252C0.5%25255D%25252C%25255B1%25252C0.5%25255D%25255D%25253BportConstraint%25253Deastwest%25253BwhiteSpace%25253Dwrap%25253Bhtml%25253D1%25253B%252522%252520vertex%25253D%2525221%252522%252520parent%25253D%2525221%252522%25253E%25253CmxGeometry%252520x%25253D%252522-330%252522%252520y%25253D%2525221884%252522%252520width%25253D%252522140%252522%252520height%25253D%25252226%252522%252520as%25253D%252522geometry%252522%25252F%25253E%25253C%25252FmxCell%25253E%25253C%25252Froot%25253E%25253C%25252FmxGraphModel%25253E%2526lt%253B%252Fspan%2526gt%253B%2522%2520style%253D%2522text%253BstrokeColor%253Dnone%253BfillColor%253Dnone%253Balign%253Dleft%253BverticalAlign%253Dtop%253BspacingLeft%253D4%253BspacingRight%253D4%253Boverflow%253Dhidden%253Brotatable%253D0%253Bpoints%253D%255B%255B0%252C0.5%255D%252C%255B1%252C0.5%255D%255D%253BportConstraint%253Deastwest%253BwhiteSpace%253Dwrap%253Bhtml%253D1%253B%2522%2520vertex%253D%25221%2522%2520parent%253D%25221%2522%253E%253CmxGeometry%2520x%253D%252230%2522%2520y%253D%25221718%2522%2520width%253D%2522140%2522%2520height%253D%252226%2522%2520as%253D%2522geometry%2522%252F%253E%253C%252FmxCell%253E%253C%252Froot%253E%253C%252FmxGraphModel%253E%26lt%3B%2Fspan%26gt%3Bing%26lt%3Bspan%20style%3D%26quot%3Bcolor%3A%20rgba(0%2C%200%2C%200%2C%200)%3B%20font-family%3A%20monospace%3B%20font-size%3A%200px%3B%20text-wrap%3A%20nowrap%3B%26quot%3B%26gt%3B%253CmxGraphModel%253E%253Croot%253E%253CmxCell%2520id%253D%25220%2522%252F%253E%253CmxCell%2520id%253D%25221%2522%2520parent%253D%25220%2522%252F%253E%253CmxCell%2520id%253D%25222%2522%2520value%253D%2522%252Bmembers%253Alist%2526lt%253Bspan%2520style%253D%2526quot%253Bcolor%253A%2520rgba(0%252C%25200%252C%25200%252C%25200)%253B%2520font-family%253A%2520monospace%253B%2520font-size%253A%25200px%253B%2520text-wrap%253A%2520nowrap%253B%2526quot%253B%2526gt%253B%25253CmxGraphModel%25253E%25253Croot%25253E%25253CmxCell%252520id%25253D%2525220%252522%25252F%25253E%25253CmxCell%252520id%25253D%2525221%252522%252520parent%25253D%2525220%252522%25252F%25253E%25253CmxCell%252520id%25253D%2525222%252522%252520value%25253D%252522%25252BsetProfilePHoto%252522%252520style%25253D%252522text%25253BstrokeColor%25253Dnone%25253BfillColor%25253Dnone%25253Balign%25253Dleft%25253BverticalAlign%25253Dtop%25253BspacingLeft%25253D4%25253BspacingRight%25253D4%25253Boverflow%25253Dhidden%25253Brotatable%25253D0%25253Bpoints%25253D%25255B%25255B0%25252C0.5%25255D%25252C%25255B1%25252C0.5%25255D%25255D%25253BportConstraint%25253Deastwest%25253BwhiteSpace%25253Dwrap%25253Bhtml%25253D1%25253B%252522%252520vertex%25253D%2525221%252522%252520parent%25253D%2525221%252522%25253E%25253CmxGeometry%252520x%25253D%252522-330%252522%252520y%25253D%2525221884%252522%252520width%25253D%252522140%252522%252520height%25253D%25252226%252522%252520as%25253D%252522geometry%252522%25252F%25253E%25253C%25252FmxCell%25253E%25253C%25252Froot%25253E%25253C%25252FmxGraphModel%25253E%2526lt%253B%252Fspan%2526gt%253B%2522%2520style%253D%2522text%253BstrokeColor%253Dnone%253BfillColor%253Dnone%253Balign%253Dleft%253BverticalAlign%253Dtop%253BspacingLeft%253D4%253BspacingRight%253D4%253Boverflow%253Dhidden%253Brotatable%253D0%253Bpoints%253D%255B%255B0%252C0.5%255D%252C%255B1%252C0.5%255D%255D%253BportConstraint%253Deastwest%253BwhiteSpace%253Dwrap%253Bhtml%253D1%253B%2522%2520vertex%253D%25221%2522%2520parent%253D%25221%2522%253E%253CmxGeometry%2520x%253D%252230%2522%2520y%253D%25221718%2522%2520width%253D%2522140%2522%2520height%253D%252226%2522%2520as%253D%2522geometry%2522%252F%253E%253C%252FmxCell%253E%253C%252Froot%253E%253C%252FmxGraphModel%253E%26lt%3B%2Fspan%26gt%3B%22%20style%3D%22text%3BstrokeColor%3Dnone%3BfillColor%3Dnone%3Balign%3Dleft%3BverticalAlign%3Dtop%3BspacingLeft%3D4%3BspacingRight%3D4%3Boverflow%3Dhidden%3Brotatable%3D0%3Bpoints%3D%5B%5B0%2C0.5%5D%2C%5B1%2C0.5%5D%5D%3BportConstraint%3Deastwest%3BwhiteSpace%3Dwrap%3Bhtml%3D1%3B%22%20vertex%3D%221%22%20parent%3D%221%22%3E%3CmxGeometry%20x%3D%2230%22%20y%3D%221770%22%20width%3D%22140%22%20height%3D%2226%22%20as%3D%22geometry%22%2F%3E%3C%2FmxCell%3E%3C%2Froot%3E%3C%2FmxGraphModel%3E&lt;/span&gt;&lt;span style=&quot;color: rgba(0, 0, 0, 0); font-family: monospace; font-size: 0px; text-wrap: nowrap;&quot;&gt;%3CmxGraphModel%3E%3Croot%3E%3CmxCell%20id%3D%220%22%2F%3E%3CmxCell%20id%3D%221%22%20parent%3D%220%22%2F%3E%3CmxCell%20id%3D%222%22%20value%3D%22%2BprofilePhotoPath%3Astr%26lt%3Bspan%20style%3D%26quot%3Bcolor%3A%20rgba(0%2C%200%2C%200%2C%200)%3B%20font-family%3A%20monospace%3B%20font-size%3A%200px%3B%20text-wrap%3A%20nowrap%3B%26quot%3B%26gt%3B%253CmxGraphModel%253E%253Croot%253E%253CmxCell%2520id%253D%25220%2522%252F%253E%253CmxCell%2520id%253D%25221%2522%2520parent%253D%25220%2522%252F%253E%253CmxCell%2520id%253D%25222%2522%2520value%253D%2522%252Bmembers%253Alist%2526lt%253Bspan%2520style%253D%2526quot%253Bcolor%253A%2520rgba(0%252C%25200%252C%25200%252C%25200)%253B%2520font-family%253A%2520monospace%253B%2520font-size%253A%25200px%253B%2520text-wrap%253A%2520nowrap%253B%2526quot%253B%2526gt%253B%25253CmxGraphModel%25253E%25253Croot%25253E%25253CmxCell%252520id%25253D%2525220%252522%25252F%25253E%25253CmxCell%252520id%25253D%2525221%252522%252520parent%25253D%2525220%252522%25252F%25253E%25253CmxCell%252520id%25253D%2525222%252522%252520value%25253D%252522%25252BsetProfilePHoto%252522%252520style%25253D%252522text%25253BstrokeColor%25253Dnone%25253BfillColor%25253Dnone%25253Balign%25253Dleft%25253BverticalAlign%25253Dtop%25253BspacingLeft%25253D4%25253BspacingRight%25253D4%25253Boverflow%25253Dhidden%25253Brotatable%25253D0%25253Bpoints%25253D%25255B%25255B0%25252C0.5%25255D%25252C%25255B1%25252C0.5%25255D%25255D%25253BportConstraint%25253Deastwest%25253BwhiteSpace%25253Dwrap%25253Bhtml%25253D1%25253B%252522%252520vertex%25253D%2525221%252522%252520parent%25253D%2525221%252522%25253E%25253CmxGeometry%252520x%25253D%252522-330%252522%252520y%25253D%2525221884%252522%252520width%25253D%252522140%252522%252520height%25253D%25252226%252522%252520as%25253D%252522geometry%252522%25252F%25253E%25253C%25252FmxCell%25253E%25253C%25252Froot%25253E%25253C%25252FmxGraphModel%25253E%2526lt%253B%252Fspan%2526gt%253B%2522%2520style%253D%2522text%253BstrokeColor%253Dnone%253BfillColor%253Dnone%253Balign%253Dleft%253BverticalAlign%253Dtop%253BspacingLeft%253D4%253BspacingRight%253D4%253Boverflow%253Dhidden%253Brotatable%253D0%253Bpoints%253D%255B%255B0%252C0.5%255D%252C%255B1%252C0.5%255D%255D%253BportConstraint%253Deastwest%253BwhiteSpace%253Dwrap%253Bhtml%253D1%253B%2522%2520vertex%253D%25221%2522%2520parent%253D%25221%2522%253E%253CmxGeometry%2520x%253D%252230%2522%2520y%253D%25221718%2522%2520width%253D%2522140%2522%2520height%253D%252226%2522%2520as%253D%2522geometry%2522%252F%253E%253C%252FmxCell%253E%253C%252Froot%253E%253C%252FmxGraphModel%253E%26lt%3B%2Fspan%26gt%3Bing%26lt%3Bspan%20style%3D%26quot%3Bcolor%3A%20rgba(0%2C%200%2C%200%2C%200)%3B%20font-family%3A%20monospace%3B%20font-size%3A%200px%3B%20text-wrap%3A%20nowrap%3B%26quot%3B%26gt%3B%253CmxGraphModel%253E%253Croot%253E%253CmxCell%2520id%253D%25220%2522%252F%253E%253CmxCell%2520id%253D%25221%2522%2520parent%253D%25220%2522%252F%253E%253CmxCell%2520id%253D%25222%2522%2520value%253D%2522%252Bmembers%253Alist%2526lt%253Bspan%2520style%253D%2526quot%253Bcolor%253A%2520rgba(0%252C%25200%252C%25200%252C%25200)%253B%2520font-family%253A%2520monospace%253B%2520font-size%253A%25200px%253B%2520text-wrap%253A%2520nowrap%253B%2526quot%253B%2526gt%253B%25253CmxGraphModel%25253E%25253Croot%25253E%25253CmxCell%252520id%25253D%2525220%252522%25252F%25253E%25253CmxCell%252520id%25253D%2525221%252522%252520parent%25253D%2525220%252522%25252F%25253E%25253CmxCell%252520id%25253D%2525222%252522%252520value%25253D%252522%25252BsetProfilePHoto%252522%252520style%25253D%252522text%25253BstrokeColor%25253Dnone%25253BfillColor%25253Dnone%25253Balign%25253Dleft%25253BverticalAlign%25253Dtop%25253BspacingLeft%25253D4%25253BspacingRight%25253D4%25253Boverflow%25253Dhidden%25253Brotatable%25253D0%25253Bpoints%25253D%25255B%25255B0%25252C0.5%25255D%25252C%25255B1%25252C0.5%25255D%25255D%25253BportConstraint%25253Deastwest%25253BwhiteSpace%25253Dwrap%25253Bhtml%25253D1%25253B%252522%252520vertex%25253D%2525221%252522%252520parent%25253D%2525221%252522%25253E%25253CmxGeometry%252520x%25253D%252522-330%252522%252520y%25253D%2525221884%252522%252520width%25253D%252522140%252522%252520height%25253D%25252226%252522%252520as%25253D%252522geometry%252522%25252F%25253E%25253C%25252FmxCell%25253E%25253C%25252Froot%25253E%25253C%25252FmxGraphModel%25253E%2526lt%253B%252Fspan%2526gt%253B%2522%2520style%253D%2522text%253BstrokeColor%253Dnone%253BfillColor%253Dnone%253Balign%253Dleft%253BverticalAlign%253Dtop%253BspacingLeft%253D4%253BspacingRight%253D4%253Boverflow%253Dhidden%253Brotatable%253D0%253Bpoints%253D%255B%255B0%252C0.5%255D%252C%255B1%252C0.5%255D%255D%253BportConstraint%253Deastwest%253BwhiteSpace%253Dwrap%253Bhtml%253D1%253B%2522%2520vertex%253D%25221%2522%2520parent%253D%25221%2522%253E%253CmxGeometry%2520x%253D%252230%2522%2520y%253D%25221718%2522%2520width%253D%2522140%2522%2520height%253D%252226%2522%2520as%253D%2522geometry%2522%252F%253E%253C%252FmxCell%253E%253C%252Froot%253E%253C%252FmxGraphModel%253E%26lt%3B%2Fspan%26gt%3B%22%20style%3D%22text%3BstrokeColor%3Dnone%3BfillColor%3Dnone%3Balign%3Dleft%3BverticalAlign%3Dtop%3BspacingLeft%3D4%3BspacingRight%3D4%3Boverflow%3Dhidden%3Brotatable%3D0%3Bpoints%3D%5B%5B0%2C0.5%5D%2C%5B1%2C0.5%5D%5D%3BportConstraint%3Deastwest%3BwhiteSpace%3Dwrap%3Bhtml%3D1%3B%22%20vertex%3D%221%22%20parent%3D%221%22%3E%3CmxGeometry%20x%3D%2230%22%20y%3D%221770%22%20width%3D%22140%22%20height%3D%2226%22%20as%3D%22geometry%22%2F%3E%3C%2FmxCell%3E%3C%2Froot%3E%3C%2FmxGraphModel%3E&lt;/span&gt;" style="text;strokeColor=none;fillColor=none;align=left;verticalAlign=top;spacingLeft=4;spacingRight=4;overflow=hidden;rotatable=0;points=[[0,0.5],[1,0.5]];portConstraint=eastwest;whiteSpace=wrap;html=1;" parent="4FWtqKkLlV3kMwXZtPkh-209" vertex="1">
          <mxGeometry y="78" width="140" height="26" as="geometry" />
        </mxCell>
        <mxCell id="4FWtqKkLlV3kMwXZtPkh-243" value="+demoteAdmin&lt;span style=&quot;color: rgba(0, 0, 0, 0); font-family: monospace; font-size: 0px; text-wrap: nowrap;&quot;&gt;%3CmxGraphModel%3E%3Croot%3E%3CmxCell%20id%3D%220%22%2F%3E%3CmxCell%20id%3D%221%22%20parent%3D%220%22%2F%3E%3CmxCell%20id%3D%222%22%20value%3D%22%2BremoveMember()%3Avoid%26lt%3Bspan%20style%3D%26quot%3Bcolor%3A%20rgba(0%2C%200%2C%200%2C%200)%3B%20font-family%3A%20monospace%3B%20font-size%3A%200px%3B%20text-wrap%3A%20nowrap%3B%26quot%3B%26gt%3B%253CmxGraphModel%253E%253Croot%253E%253CmxCell%2520id%253D%25220%2522%252F%253E%253CmxCell%2520id%253D%25221%2522%2520parent%253D%25220%2522%252F%253E%253CmxCell%2520id%253D%25222%2522%2520value%253D%2522%252BprofilePhotoPath%253Astr%2526lt%253Bspan%2520style%253D%2526quot%253Bcolor%253A%2520rgba(0%252C%25200%252C%25200%252C%25200)%253B%2520font-family%253A%2520monospace%253B%2520font-size%253A%25200px%253B%2520text-wrap%253A%2520nowrap%253B%2526quot%253B%2526gt%253B%25253CmxGraphModel%25253E%25253Croot%25253E%25253CmxCell%252520id%25253D%2525220%252522%25252F%25253E%25253CmxCell%252520id%25253D%2525221%252522%252520parent%25253D%2525220%252522%25252F%25253E%25253CmxCell%252520id%25253D%2525222%252522%252520value%25253D%252522%25252Bmembers%25253Alist%252526lt%25253Bspan%252520style%25253D%252526quot%25253Bcolor%25253A%252520rgba(0%25252C%2525200%25252C%2525200%25252C%2525200)%25253B%252520font-family%25253A%252520monospace%25253B%252520font-size%25253A%2525200px%25253B%252520text-wrap%25253A%252520nowrap%25253B%252526quot%25253B%252526gt%25253B%2525253CmxGraphModel%2525253E%2525253Croot%2525253E%2525253CmxCell%25252520id%2525253D%252525220%25252522%2525252F%2525253E%2525253CmxCell%25252520id%2525253D%252525221%25252522%25252520parent%2525253D%252525220%25252522%2525252F%2525253E%2525253CmxCell%25252520id%2525253D%252525222%25252522%25252520value%2525253D%25252522%2525252BsetProfilePHoto%25252522%25252520style%2525253D%25252522text%2525253BstrokeColor%2525253Dnone%2525253BfillColor%2525253Dnone%2525253Balign%2525253Dleft%2525253BverticalAlign%2525253Dtop%2525253BspacingLeft%2525253D4%2525253BspacingRight%2525253D4%2525253Boverflow%2525253Dhidden%2525253Brotatable%2525253D0%2525253Bpoints%2525253D%2525255B%2525255B0%2525252C0.5%2525255D%2525252C%2525255B1%2525252C0.5%2525255D%2525255D%2525253BportConstraint%2525253Deastwest%2525253BwhiteSpace%2525253Dwrap%2525253Bhtml%2525253D1%2525253B%25252522%25252520vertex%2525253D%252525221%25252522%25252520parent%2525253D%252525221%25252522%2525253E%2525253CmxGeometry%25252520x%2525253D%25252522-330%25252522%25252520y%2525253D%252525221884%25252522%25252520width%2525253D%25252522140%25252522%25252520height%2525253D%2525252226%25252522%25252520as%2525253D%25252522geometry%25252522%2525252F%2525253E%2525253C%2525252FmxCell%2525253E%2525253C%2525252Froot%2525253E%2525253C%2525252FmxGraphModel%2525253E%252526lt%25253B%25252Fspan%252526gt%25253B%252522%252520style%25253D%252522text%25253BstrokeColor%25253Dnone%25253BfillColor%25253Dnone%25253Balign%25253Dleft%25253BverticalAlign%25253Dtop%25253BspacingLeft%25253D4%25253BspacingRight%25253D4%25253Boverflow%25253Dhidden%25253Brotatable%25253D0%25253Bpoints%25253D%25255B%25255B0%25252C0.5%25255D%25252C%25255B1%25252C0.5%25255D%25255D%25253BportConstraint%25253Deastwest%25253BwhiteSpace%25253Dwrap%25253Bhtml%25253D1%25253B%252522%252520vertex%25253D%2525221%252522%252520parent%25253D%2525221%252522%25253E%25253CmxGeometry%252520x%25253D%25252230%252522%252520y%25253D%2525221718%252522%252520width%25253D%252522140%252522%252520height%25253D%25252226%252522%252520as%25253D%252522geometry%252522%25252F%25253E%25253C%25252FmxCell%25253E%25253C%25252Froot%25253E%25253C%25252FmxGraphModel%25253E%2526lt%253B%252Fspan%2526gt%253Bing%2526lt%253Bspan%2520style%253D%2526quot%253Bcolor%253A%2520rgba(0%252C%25200%252C%25200%252C%25200)%253B%2520font-family%253A%2520monospace%253B%2520font-size%253A%25200px%253B%2520text-wrap%253A%2520nowrap%253B%2526quot%253B%2526gt%253B%25253CmxGraphModel%25253E%25253Croot%25253E%25253CmxCell%252520id%25253D%2525220%252522%25252F%25253E%25253CmxCell%252520id%25253D%2525221%252522%252520parent%25253D%2525220%252522%25252F%25253E%25253CmxCell%252520id%25253D%2525222%252522%252520value%25253D%252522%25252Bmembers%25253Alist%252526lt%25253Bspan%252520style%25253D%252526quot%25253Bcolor%25253A%252520rgba(0%25252C%2525200%25252C%2525200%25252C%2525200)%25253B%252520font-family%25253A%252520monospace%25253B%252520font-size%25253A%2525200px%25253B%252520text-wrap%25253A%252520nowrap%25253B%252526quot%25253B%252526gt%25253B%2525253CmxGraphModel%2525253E%2525253Croot%2525253E%2525253CmxCell%25252520id%2525253D%252525220%25252522%2525252F%2525253E%2525253CmxCell%25252520id%2525253D%252525221%25252522%25252520parent%2525253D%252525220%25252522%2525252F%2525253E%2525253CmxCell%25252520id%2525253D%252525222%25252522%25252520value%2525253D%25252522%2525252BsetProfilePHoto%25252522%25252520style%2525253D%25252522text%2525253BstrokeColor%2525253Dnone%2525253BfillColor%2525253Dnone%2525253Balign%2525253Dleft%2525253BverticalAlign%2525253Dtop%2525253BspacingLeft%2525253D4%2525253BspacingRight%2525253D4%2525253Boverflow%2525253Dhidden%2525253Brotatable%2525253D0%2525253Bpoints%2525253D%2525255B%2525255B0%2525252C0.5%2525255D%2525252C%2525255B1%2525252C0.5%2525255D%2525255D%2525253BportConstraint%2525253Deastwest%2525253BwhiteSpace%2525253Dwrap%2525253Bhtml%2525253D1%2525253B%25252522%25252520vertex%2525253D%252525221%25252522%25252520parent%2525253D%252525221%25252522%2525253E%2525253CmxGeometry%25252520x%2525253D%25252522-330%25252522%25252520y%2525253D%252525221884%25252522%25252520width%2525253D%25252522140%25252522%25252520height%2525253D%2525252226%25252522%25252520as%2525253D%25252522geometry%25252522%2525252F%2525253E%2525253C%2525252FmxCell%2525253E%2525253C%2525252Froot%2525253E%2525253C%2525252FmxGraphModel%2525253E%252526lt%25253B%25252Fspan%252526gt%25253B%252522%252520style%25253D%252522text%25253BstrokeColor%25253Dnone%25253BfillColor%25253Dnone%25253Balign%25253Dleft%25253BverticalAlign%25253Dtop%25253BspacingLeft%25253D4%25253BspacingRight%25253D4%25253Boverflow%25253Dhidden%25253Brotatable%25253D0%25253Bpoints%25253D%25255B%25255B0%25252C0.5%25255D%25252C%25255B1%25252C0.5%25255D%25255D%25253BportConstraint%25253Deastwest%25253BwhiteSpace%25253Dwrap%25253Bhtml%25253D1%25253B%252522%252520vertex%25253D%2525221%252522%252520parent%25253D%2525221%252522%25253E%25253CmxGeometry%252520x%25253D%25252230%252522%252520y%25253D%2525221718%252522%252520width%25253D%252522140%252522%252520height%25253D%25252226%252522%252520as%25253D%252522geometry%252522%25252F%25253E%25253C%25252FmxCell%25253E%25253C%25252Froot%25253E%25253C%25252FmxGraphModel%25253E%2526lt%253B%252Fspan%2526gt%253B%2522%2520style%253D%2522text%253BstrokeColor%253Dnone%253BfillColor%253Dnone%253Balign%253Dleft%253BverticalAlign%253Dtop%253BspacingLeft%253D4%253BspacingRight%253D4%253Boverflow%253Dhidden%253Brotatable%253D0%253Bpoints%253D%255B%255B0%252C0.5%255D%252C%255B1%252C0.5%255D%255D%253BportConstraint%253Deastwest%253BwhiteSpace%253Dwrap%253Bhtml%253D1%253B%2522%2520vertex%253D%25221%2522%2520parent%253D%25221%2522%253E%253CmxGeometry%2520x%253D%252230%2522%2520y%253D%25221770%2522%2520width%253D%2522140%2522%2520height%253D%252226%2522%2520as%253D%2522geometry%2522%252F%253E%253C%252FmxCell%253E%253C%252Froot%253E%253C%252FmxGraphModel%253E%26lt%3B%2Fspan%26gt%3B%26lt%3Bspan%20style%3D%26quot%3Bcolor%3A%20rgba(0%2C%200%2C%200%2C%200)%3B%20font-family%3A%20monospace%3B%20font-size%3A%200px%3B%20text-wrap%3A%20nowrap%3B%26quot%3B%26gt%3B%253CmxGraphModel%253E%253Croot%253E%253CmxCell%2520id%253D%25220%2522%252F%253E%253CmxCell%2520id%253D%25221%2522%2520parent%253D%25220%2522%252F%253E%253CmxCell%2520id%253D%25222%2522%2520value%253D%2522%252BprofilePhotoPath%253Astr%2526lt%253Bspan%2520style%253D%2526quot%253Bcolor%253A%2520rgba(0%252C%25200%252C%25200%252C%25200)%253B%2520font-family%253A%2520monospace%253B%2520font-size%253A%25200px%253B%2520text-wrap%253A%2520nowrap%253B%2526quot%253B%2526gt%253B%25253CmxGraphModel%25253E%25253Croot%25253E%25253CmxCell%252520id%25253D%2525220%252522%25252F%25253E%25253CmxCell%252520id%25253D%2525221%252522%252520parent%25253D%2525220%252522%25252F%25253E%25253CmxCell%252520id%25253D%2525222%252522%252520value%25253D%252522%25252Bmembers%25253Alist%252526lt%25253Bspan%252520style%25253D%252526quot%25253Bcolor%25253A%252520rgba(0%25252C%2525200%25252C%2525200%25252C%2525200)%25253B%252520font-family%25253A%252520monospace%25253B%252520font-size%25253A%2525200px%25253B%252520text-wrap%25253A%252520nowrap%25253B%252526quot%25253B%252526gt%25253B%2525253CmxGraphModel%2525253E%2525253Croot%2525253E%2525253CmxCell%25252520id%2525253D%252525220%25252522%2525252F%2525253E%2525253CmxCell%25252520id%2525253D%252525221%25252522%25252520parent%2525253D%252525220%25252522%2525252F%2525253E%2525253CmxCell%25252520id%2525253D%252525222%25252522%25252520value%2525253D%25252522%2525252BsetProfilePHoto%25252522%25252520style%2525253D%25252522text%2525253BstrokeColor%2525253Dnone%2525253BfillColor%2525253Dnone%2525253Balign%2525253Dleft%2525253BverticalAlign%2525253Dtop%2525253BspacingLeft%2525253D4%2525253BspacingRight%2525253D4%2525253Boverflow%2525253Dhidden%2525253Brotatable%2525253D0%2525253Bpoints%2525253D%2525255B%2525255B0%2525252C0.5%2525255D%2525252C%2525255B1%2525252C0.5%2525255D%2525255D%2525253BportConstraint%2525253Deastwest%2525253BwhiteSpace%2525253Dwrap%2525253Bhtml%2525253D1%2525253B%25252522%25252520vertex%2525253D%252525221%25252522%25252520parent%2525253D%252525221%25252522%2525253E%2525253CmxGeometry%25252520x%2525253D%25252522-330%25252522%25252520y%2525253D%252525221884%25252522%25252520width%2525253D%25252522140%25252522%25252520height%2525253D%2525252226%25252522%25252520as%2525253D%25252522geometry%25252522%2525252F%2525253E%2525253C%2525252FmxCell%2525253E%2525253C%2525252Froot%2525253E%2525253C%2525252FmxGraphModel%2525253E%252526lt%25253B%25252Fspan%252526gt%25253B%252522%252520style%25253D%252522text%25253BstrokeColor%25253Dnone%25253BfillColor%25253Dnone%25253Balign%25253Dleft%25253BverticalAlign%25253Dtop%25253BspacingLeft%25253D4%25253BspacingRight%25253D4%25253Boverflow%25253Dhidden%25253Brotatable%25253D0%25253Bpoints%25253D%25255B%25255B0%25252C0.5%25255D%25252C%25255B1%25252C0.5%25255D%25255D%25253BportConstraint%25253Deastwest%25253BwhiteSpace%25253Dwrap%25253Bhtml%25253D1%25253B%252522%252520vertex%25253D%2525221%252522%252520parent%25253D%2525221%252522%25253E%25253CmxGeometry%252520x%25253D%25252230%252522%252520y%25253D%2525221718%252522%252520width%25253D%252522140%252522%252520height%25253D%25252226%252522%252520as%25253D%252522geometry%252522%25252F%25253E%25253C%25252FmxCell%25253E%25253C%25252Froot%25253E%25253C%25252FmxGraphModel%25253E%2526lt%253B%252Fspan%2526gt%253Bing%2526lt%253Bspan%2520style%253D%2526quot%253Bcolor%253A%2520rgba(0%252C%25200%252C%25200%252C%25200)%253B%2520font-family%253A%2520monospace%253B%2520font-size%253A%25200px%253B%2520text-wrap%253A%2520nowrap%253B%2526quot%253B%2526gt%253B%25253CmxGraphModel%25253E%25253Croot%25253E%25253CmxCell%252520id%25253D%2525220%252522%25252F%25253E%25253CmxCell%252520id%25253D%2525221%252522%252520parent%25253D%2525220%252522%25252F%25253E%25253CmxCell%252520id%25253D%2525222%252522%252520value%25253D%252522%25252Bmembers%25253Alist%252526lt%25253Bspan%252520style%25253D%252526quot%25253Bcolor%25253A%252520rgba(0%25252C%2525200%25252C%2525200%25252C%2525200)%25253B%252520font-family%25253A%252520monospace%25253B%252520font-size%25253A%2525200px%25253B%252520text-wrap%25253A%252520nowrap%25253B%252526quot%25253B%252526gt%25253B%2525253CmxGraphModel%2525253E%2525253Croot%2525253E%2525253CmxCell%25252520id%2525253D%252525220%25252522%2525252F%2525253E%2525253CmxCell%25252520id%2525253D%252525221%25252522%25252520parent%2525253D%252525220%25252522%2525252F%2525253E%2525253CmxCell%25252520id%2525253D%252525222%25252522%25252520value%2525253D%25252522%2525252BsetProfilePHoto%25252522%25252520style%2525253D%25252522text%2525253BstrokeColor%2525253Dnone%2525253BfillColor%2525253Dnone%2525253Balign%2525253Dleft%2525253BverticalAlign%2525253Dtop%2525253BspacingLeft%2525253D4%2525253BspacingRight%2525253D4%2525253Boverflow%2525253Dhidden%2525253Brotatable%2525253D0%2525253Bpoints%2525253D%2525255B%2525255B0%2525252C0.5%2525255D%2525252C%2525255B1%2525252C0.5%2525255D%2525255D%2525253BportConstraint%2525253Deastwest%2525253BwhiteSpace%2525253Dwrap%2525253Bhtml%2525253D1%2525253B%25252522%25252520vertex%2525253D%252525221%25252522%25252520parent%2525253D%252525221%25252522%2525253E%2525253CmxGeometry%25252520x%2525253D%25252522-330%25252522%25252520y%2525253D%252525221884%25252522%25252520width%2525253D%25252522140%25252522%25252520height%2525253D%2525252226%25252522%25252520as%2525253D%25252522geometry%25252522%2525252F%2525253E%2525253C%2525252FmxCell%2525253E%2525253C%2525252Froot%2525253E%2525253C%2525252FmxGraphModel%2525253E%252526lt%25253B%25252Fspan%252526gt%25253B%252522%252520style%25253D%252522text%25253BstrokeColor%25253Dnone%25253BfillColor%25253Dnone%25253Balign%25253Dleft%25253BverticalAlign%25253Dtop%25253BspacingLeft%25253D4%25253BspacingRight%25253D4%25253Boverflow%25253Dhidden%25253Brotatable%25253D0%25253Bpoints%25253D%25255B%25255B0%25252C0.5%25255D%25252C%25255B1%25252C0.5%25255D%25255D%25253BportConstraint%25253Deastwest%25253BwhiteSpace%25253Dwrap%25253Bhtml%25253D1%25253B%252522%252520vertex%25253D%2525221%252522%252520parent%25253D%2525221%252522%25253E%25253CmxGeometry%252520x%25253D%25252230%252522%252520y%25253D%2525221718%252522%252520width%25253D%252522140%252522%252520height%25253D%25252226%252522%252520as%25253D%252522geometry%252522%25252F%25253E%25253C%25252FmxCell%25253E%25253C%25252Froot%25253E%25253C%25252FmxGraphModel%25253E%2526lt%253B%252Fspan%2526gt%253B%2522%2520style%253D%2522text%253BstrokeColor%253Dnone%253BfillColor%253Dnone%253Balign%253Dleft%253BverticalAlign%253Dtop%253BspacingLeft%253D4%253BspacingRight%253D4%253Boverflow%253Dhidden%253Brotatable%253D0%253Bpoints%253D%255B%255B0%252C0.5%255D%252C%255B1%252C0.5%255D%255D%253BportConstraint%253Deastwest%253BwhiteSpace%253Dwrap%253Bhtml%253D1%253B%2522%2520vertex%253D%25221%2522%2520parent%253D%25221%2522%253E%253CmxGeometry%2520x%253D%252230%2522%2520y%253D%25221770%2522%2520width%253D%2522140%2522%2520height%253D%252226%2522%2520as%253D%2522geometry%2522%252F%253E%253C%252FmxCell%253E%253C%252Froot%253E%253C%252FmxGraphModel%253E%26lt%3B%2Fspan%26gt%3B%22%20style%3D%22text%3BstrokeColor%3Dnone%3BfillColor%3Dnone%3Balign%3Dleft%3BverticalAlign%3Dtop%3BspacingLeft%3D4%3BspacingRight%3D4%3Boverflow%3Dhidden%3Brotatable%3D0%3Bpoints%3D%5B%5B0%2C0.5%5D%2C%5B1%2C0.5%5D%5D%3BportConstraint%3Deastwest%3BwhiteSpace%3Dwrap%3Bhtml%3D1%3B%22%20vertex%3D%221%22%20parent%3D%221%22%3E%3CmxGeometry%20x%3D%22321%22%20y%3D%221728%22%20width%3D%22140%22%20height%3D%2226%22%20as%3D%22geometry%22%2F%3E%3C%2FmxCell%3E%3C%2Froot%3E%3C%2FmxGraphModel%3E&lt;/span&gt;():void&lt;span style=&quot;color: rgba(0, 0, 0, 0); font-family: monospace; font-size: 0px; text-wrap: nowrap;&quot;&gt;%3CmxGraphModel%3E%3Croot%3E%3CmxCell%20id%3D%220%22%2F%3E%3CmxCell%20id%3D%221%22%20parent%3D%220%22%2F%3E%3CmxCell%20id%3D%222%22%20value%3D%22%2BprofilePhotoPath%3Astr%26lt%3Bspan%20style%3D%26quot%3Bcolor%3A%20rgba(0%2C%200%2C%200%2C%200)%3B%20font-family%3A%20monospace%3B%20font-size%3A%200px%3B%20text-wrap%3A%20nowrap%3B%26quot%3B%26gt%3B%253CmxGraphModel%253E%253Croot%253E%253CmxCell%2520id%253D%25220%2522%252F%253E%253CmxCell%2520id%253D%25221%2522%2520parent%253D%25220%2522%252F%253E%253CmxCell%2520id%253D%25222%2522%2520value%253D%2522%252Bmembers%253Alist%2526lt%253Bspan%2520style%253D%2526quot%253Bcolor%253A%2520rgba(0%252C%25200%252C%25200%252C%25200)%253B%2520font-family%253A%2520monospace%253B%2520font-size%253A%25200px%253B%2520text-wrap%253A%2520nowrap%253B%2526quot%253B%2526gt%253B%25253CmxGraphModel%25253E%25253Croot%25253E%25253CmxCell%252520id%25253D%2525220%252522%25252F%25253E%25253CmxCell%252520id%25253D%2525221%252522%252520parent%25253D%2525220%252522%25252F%25253E%25253CmxCell%252520id%25253D%2525222%252522%252520value%25253D%252522%25252BsetProfilePHoto%252522%252520style%25253D%252522text%25253BstrokeColor%25253Dnone%25253BfillColor%25253Dnone%25253Balign%25253Dleft%25253BverticalAlign%25253Dtop%25253BspacingLeft%25253D4%25253BspacingRight%25253D4%25253Boverflow%25253Dhidden%25253Brotatable%25253D0%25253Bpoints%25253D%25255B%25255B0%25252C0.5%25255D%25252C%25255B1%25252C0.5%25255D%25255D%25253BportConstraint%25253Deastwest%25253BwhiteSpace%25253Dwrap%25253Bhtml%25253D1%25253B%252522%252520vertex%25253D%2525221%252522%252520parent%25253D%2525221%252522%25253E%25253CmxGeometry%252520x%25253D%252522-330%252522%252520y%25253D%2525221884%252522%252520width%25253D%252522140%252522%252520height%25253D%25252226%252522%252520as%25253D%252522geometry%252522%25252F%25253E%25253C%25252FmxCell%25253E%25253C%25252Froot%25253E%25253C%25252FmxGraphModel%25253E%2526lt%253B%252Fspan%2526gt%253B%2522%2520style%253D%2522text%253BstrokeColor%253Dnone%253BfillColor%253Dnone%253Balign%253Dleft%253BverticalAlign%253Dtop%253BspacingLeft%253D4%253BspacingRight%253D4%253Boverflow%253Dhidden%253Brotatable%253D0%253Bpoints%253D%255B%255B0%252C0.5%255D%252C%255B1%252C0.5%255D%255D%253BportConstraint%253Deastwest%253BwhiteSpace%253Dwrap%253Bhtml%253D1%253B%2522%2520vertex%253D%25221%2522%2520parent%253D%25221%2522%253E%253CmxGeometry%2520x%253D%252230%2522%2520y%253D%25221718%2522%2520width%253D%2522140%2522%2520height%253D%252226%2522%2520as%253D%2522geometry%2522%252F%253E%253C%252FmxCell%253E%253C%252Froot%253E%253C%252FmxGraphModel%253E%26lt%3B%2Fspan%26gt%3Bing%26lt%3Bspan%20style%3D%26quot%3Bcolor%3A%20rgba(0%2C%200%2C%200%2C%200)%3B%20font-family%3A%20monospace%3B%20font-size%3A%200px%3B%20text-wrap%3A%20nowrap%3B%26quot%3B%26gt%3B%253CmxGraphModel%253E%253Croot%253E%253CmxCell%2520id%253D%25220%2522%252F%253E%253CmxCell%2520id%253D%25221%2522%2520parent%253D%25220%2522%252F%253E%253CmxCell%2520id%253D%25222%2522%2520value%253D%2522%252Bmembers%253Alist%2526lt%253Bspan%2520style%253D%2526quot%253Bcolor%253A%2520rgba(0%252C%25200%252C%25200%252C%25200)%253B%2520font-family%253A%2520monospace%253B%2520font-size%253A%25200px%253B%2520text-wrap%253A%2520nowrap%253B%2526quot%253B%2526gt%253B%25253CmxGraphModel%25253E%25253Croot%25253E%25253CmxCell%252520id%25253D%2525220%252522%25252F%25253E%25253CmxCell%252520id%25253D%2525221%252522%252520parent%25253D%2525220%252522%25252F%25253E%25253CmxCell%252520id%25253D%2525222%252522%252520value%25253D%252522%25252BsetProfilePHoto%252522%252520style%25253D%252522text%25253BstrokeColor%25253Dnone%25253BfillColor%25253Dnone%25253Balign%25253Dleft%25253BverticalAlign%25253Dtop%25253BspacingLeft%25253D4%25253BspacingRight%25253D4%25253Boverflow%25253Dhidden%25253Brotatable%25253D0%25253Bpoints%25253D%25255B%25255B0%25252C0.5%25255D%25252C%25255B1%25252C0.5%25255D%25255D%25253BportConstraint%25253Deastwest%25253BwhiteSpace%25253Dwrap%25253Bhtml%25253D1%25253B%252522%252520vertex%25253D%2525221%252522%252520parent%25253D%2525221%252522%25253E%25253CmxGeometry%252520x%25253D%252522-330%252522%252520y%25253D%2525221884%252522%252520width%25253D%252522140%252522%252520height%25253D%25252226%252522%252520as%25253D%252522geometry%252522%25252F%25253E%25253C%25252FmxCell%25253E%25253C%25252Froot%25253E%25253C%25252FmxGraphModel%25253E%2526lt%253B%252Fspan%2526gt%253B%2522%2520style%253D%2522text%253BstrokeColor%253Dnone%253BfillColor%253Dnone%253Balign%253Dleft%253BverticalAlign%253Dtop%253BspacingLeft%253D4%253BspacingRight%253D4%253Boverflow%253Dhidden%253Brotatable%253D0%253Bpoints%253D%255B%255B0%252C0.5%255D%252C%255B1%252C0.5%255D%255D%253BportConstraint%253Deastwest%253BwhiteSpace%253Dwrap%253Bhtml%253D1%253B%2522%2520vertex%253D%25221%2522%2520parent%253D%25221%2522%253E%253CmxGeometry%2520x%253D%252230%2522%2520y%253D%25221718%2522%2520width%253D%2522140%2522%2520height%253D%252226%2522%2520as%253D%2522geometry%2522%252F%253E%253C%252FmxCell%253E%253C%252Froot%253E%253C%252FmxGraphModel%253E%26lt%3B%2Fspan%26gt%3B%22%20style%3D%22text%3BstrokeColor%3Dnone%3BfillColor%3Dnone%3Balign%3Dleft%3BverticalAlign%3Dtop%3BspacingLeft%3D4%3BspacingRight%3D4%3Boverflow%3Dhidden%3Brotatable%3D0%3Bpoints%3D%5B%5B0%2C0.5%5D%2C%5B1%2C0.5%5D%5D%3BportConstraint%3Deastwest%3BwhiteSpace%3Dwrap%3Bhtml%3D1%3B%22%20vertex%3D%221%22%20parent%3D%221%22%3E%3CmxGeometry%20x%3D%2230%22%20y%3D%221770%22%20width%3D%22140%22%20height%3D%2226%22%20as%3D%22geometry%22%2F%3E%3C%2FmxCell%3E%3C%2Froot%3E%3C%2FmxGraphModel%3E&lt;/span&gt;&lt;span style=&quot;color: rgba(0, 0, 0, 0); font-family: monospace; font-size: 0px; text-wrap: nowrap;&quot;&gt;%3CmxGraphModel%3E%3Croot%3E%3CmxCell%20id%3D%220%22%2F%3E%3CmxCell%20id%3D%221%22%20parent%3D%220%22%2F%3E%3CmxCell%20id%3D%222%22%20value%3D%22%2BprofilePhotoPath%3Astr%26lt%3Bspan%20style%3D%26quot%3Bcolor%3A%20rgba(0%2C%200%2C%200%2C%200)%3B%20font-family%3A%20monospace%3B%20font-size%3A%200px%3B%20text-wrap%3A%20nowrap%3B%26quot%3B%26gt%3B%253CmxGraphModel%253E%253Croot%253E%253CmxCell%2520id%253D%25220%2522%252F%253E%253CmxCell%2520id%253D%25221%2522%2520parent%253D%25220%2522%252F%253E%253CmxCell%2520id%253D%25222%2522%2520value%253D%2522%252Bmembers%253Alist%2526lt%253Bspan%2520style%253D%2526quot%253Bcolor%253A%2520rgba(0%252C%25200%252C%25200%252C%25200)%253B%2520font-family%253A%2520monospace%253B%2520font-size%253A%25200px%253B%2520text-wrap%253A%2520nowrap%253B%2526quot%253B%2526gt%253B%25253CmxGraphModel%25253E%25253Croot%25253E%25253CmxCell%252520id%25253D%2525220%252522%25252F%25253E%25253CmxCell%252520id%25253D%2525221%252522%252520parent%25253D%2525220%252522%25252F%25253E%25253CmxCell%252520id%25253D%2525222%252522%252520value%25253D%252522%25252BsetProfilePHoto%252522%252520style%25253D%252522text%25253BstrokeColor%25253Dnone%25253BfillColor%25253Dnone%25253Balign%25253Dleft%25253BverticalAlign%25253Dtop%25253BspacingLeft%25253D4%25253BspacingRight%25253D4%25253Boverflow%25253Dhidden%25253Brotatable%25253D0%25253Bpoints%25253D%25255B%25255B0%25252C0.5%25255D%25252C%25255B1%25252C0.5%25255D%25255D%25253BportConstraint%25253Deastwest%25253BwhiteSpace%25253Dwrap%25253Bhtml%25253D1%25253B%252522%252520vertex%25253D%2525221%252522%252520parent%25253D%2525221%252522%25253E%25253CmxGeometry%252520x%25253D%252522-330%252522%252520y%25253D%2525221884%252522%252520width%25253D%252522140%252522%252520height%25253D%25252226%252522%252520as%25253D%252522geometry%252522%25252F%25253E%25253C%25252FmxCell%25253E%25253C%25252Froot%25253E%25253C%25252FmxGraphModel%25253E%2526lt%253B%252Fspan%2526gt%253B%2522%2520style%253D%2522text%253BstrokeColor%253Dnone%253BfillColor%253Dnone%253Balign%253Dleft%253BverticalAlign%253Dtop%253BspacingLeft%253D4%253BspacingRight%253D4%253Boverflow%253Dhidden%253Brotatable%253D0%253Bpoints%253D%255B%255B0%252C0.5%255D%252C%255B1%252C0.5%255D%255D%253BportConstraint%253Deastwest%253BwhiteSpace%253Dwrap%253Bhtml%253D1%253B%2522%2520vertex%253D%25221%2522%2520parent%253D%25221%2522%253E%253CmxGeometry%2520x%253D%252230%2522%2520y%253D%25221718%2522%2520width%253D%2522140%2522%2520height%253D%252226%2522%2520as%253D%2522geometry%2522%252F%253E%253C%252FmxCell%253E%253C%252Froot%253E%253C%252FmxGraphModel%253E%26lt%3B%2Fspan%26gt%3Bing%26lt%3Bspan%20style%3D%26quot%3Bcolor%3A%20rgba(0%2C%200%2C%200%2C%200)%3B%20font-family%3A%20monospace%3B%20font-size%3A%200px%3B%20text-wrap%3A%20nowrap%3B%26quot%3B%26gt%3B%253CmxGraphModel%253E%253Croot%253E%253CmxCell%2520id%253D%25220%2522%252F%253E%253CmxCell%2520id%253D%25221%2522%2520parent%253D%25220%2522%252F%253E%253CmxCell%2520id%253D%25222%2522%2520value%253D%2522%252Bmembers%253Alist%2526lt%253Bspan%2520style%253D%2526quot%253Bcolor%253A%2520rgba(0%252C%25200%252C%25200%252C%25200)%253B%2520font-family%253A%2520monospace%253B%2520font-size%253A%25200px%253B%2520text-wrap%253A%2520nowrap%253B%2526quot%253B%2526gt%253B%25253CmxGraphModel%25253E%25253Croot%25253E%25253CmxCell%252520id%25253D%2525220%252522%25252F%25253E%25253CmxCell%252520id%25253D%2525221%252522%252520parent%25253D%2525220%252522%25252F%25253E%25253CmxCell%252520id%25253D%2525222%252522%252520value%25253D%252522%25252BsetProfilePHoto%252522%252520style%25253D%252522text%25253BstrokeColor%25253Dnone%25253BfillColor%25253Dnone%25253Balign%25253Dleft%25253BverticalAlign%25253Dtop%25253BspacingLeft%25253D4%25253BspacingRight%25253D4%25253Boverflow%25253Dhidden%25253Brotatable%25253D0%25253Bpoints%25253D%25255B%25255B0%25252C0.5%25255D%25252C%25255B1%25252C0.5%25255D%25255D%25253BportConstraint%25253Deastwest%25253BwhiteSpace%25253Dwrap%25253Bhtml%25253D1%25253B%252522%252520vertex%25253D%2525221%252522%252520parent%25253D%2525221%252522%25253E%25253CmxGeometry%252520x%25253D%252522-330%252522%252520y%25253D%2525221884%252522%252520width%25253D%252522140%252522%252520height%25253D%25252226%252522%252520as%25253D%252522geometry%252522%25252F%25253E%25253C%25252FmxCell%25253E%25253C%25252Froot%25253E%25253C%25252FmxGraphModel%25253E%2526lt%253B%252Fspan%2526gt%253B%2522%2520style%253D%2522text%253BstrokeColor%253Dnone%253BfillColor%253Dnone%253Balign%253Dleft%253BverticalAlign%253Dtop%253BspacingLeft%253D4%253BspacingRight%253D4%253Boverflow%253Dhidden%253Brotatable%253D0%253Bpoints%253D%255B%255B0%252C0.5%255D%252C%255B1%252C0.5%255D%255D%253BportConstraint%253Deastwest%253BwhiteSpace%253Dwrap%253Bhtml%253D1%253B%2522%2520vertex%253D%25221%2522%2520parent%253D%25221%2522%253E%253CmxGeometry%2520x%253D%252230%2522%2520y%253D%25221718%2522%2520width%253D%2522140%2522%2520height%253D%252226%2522%2520as%253D%2522geometry%2522%252F%253E%253C%252FmxCell%253E%253C%252Froot%253E%253C%252FmxGraphModel%253E%26lt%3B%2Fspan%26gt%3B%22%20style%3D%22text%3BstrokeColor%3Dnone%3BfillColor%3Dnone%3Balign%3Dleft%3BverticalAlign%3Dtop%3BspacingLeft%3D4%3BspacingRight%3D4%3Boverflow%3Dhidden%3Brotatable%3D0%3Bpoints%3D%5B%5B0%2C0.5%5D%2C%5B1%2C0.5%5D%5D%3BportConstraint%3Deastwest%3BwhiteSpace%3Dwrap%3Bhtml%3D1%3B%22%20vertex%3D%221%22%20parent%3D%221%22%3E%3CmxGeometry%20x%3D%2230%22%20y%3D%221770%22%20width%3D%22140%22%20height%3D%2226%22%20as%3D%22geometry%22%2F%3E%3C%2FmxCell%3E%3C%2Froot%3E%3C%2FmxGraphModel%3E&lt;/span&gt;" style="text;strokeColor=none;fillColor=none;align=left;verticalAlign=top;spacingLeft=4;spacingRight=4;overflow=hidden;rotatable=0;points=[[0,0.5],[1,0.5]];portConstraint=eastwest;whiteSpace=wrap;html=1;" parent="4FWtqKkLlV3kMwXZtPkh-209" vertex="1">
          <mxGeometry y="104" width="140" height="26" as="geometry" />
        </mxCell>
        <mxCell id="4FWtqKkLlV3kMwXZtPkh-244" value="+promoteToAdmin():void" style="text;strokeColor=none;fillColor=none;align=left;verticalAlign=top;spacingLeft=4;spacingRight=4;overflow=hidden;rotatable=0;points=[[0,0.5],[1,0.5]];portConstraint=eastwest;whiteSpace=wrap;html=1;" parent="4FWtqKkLlV3kMwXZtPkh-209" vertex="1">
          <mxGeometry y="130" width="140" height="26" as="geometry" />
        </mxCell>
        <mxCell id="4FWtqKkLlV3kMwXZtPkh-212" value="+CreateGroup():void" style="text;strokeColor=none;fillColor=none;align=left;verticalAlign=top;spacingLeft=4;spacingRight=4;overflow=hidden;rotatable=0;points=[[0,0.5],[1,0.5]];portConstraint=eastwest;whiteSpace=wrap;html=1;" parent="4FWtqKkLlV3kMwXZtPkh-209" vertex="1">
          <mxGeometry y="156" width="140" height="26" as="geometry" />
        </mxCell>
        <mxCell id="4FWtqKkLlV3kMwXZtPkh-215" value="1" style="endArrow=open;html=1;endSize=12;startArrow=diamondThin;startSize=14;startFill=1;edgeStyle=orthogonalEdgeStyle;align=left;verticalAlign=bottom;rounded=0;entryX=0.5;entryY=0;entryDx=0;entryDy=0;" parent="1" source="4FWtqKkLlV3kMwXZtPkh-33" target="4FWtqKkLlV3kMwXZtPkh-209" edge="1">
          <mxGeometry x="-1" y="3" relative="1" as="geometry">
            <mxPoint x="40" y="1290" as="sourcePoint" />
            <mxPoint x="200" y="1290" as="targetPoint" />
            <Array as="points">
              <mxPoint x="90" y="843" />
              <mxPoint x="90" y="1340" />
              <mxPoint x="391" y="1340" />
            </Array>
          </mxGeometry>
        </mxCell>
        <mxCell id="4FWtqKkLlV3kMwXZtPkh-216" value="Use" style="endArrow=open;endSize=12;dashed=1;html=1;rounded=0;exitX=0.75;exitY=0;exitDx=0;exitDy=0;entryX=1;entryY=0.75;entryDx=0;entryDy=0;" parent="1" source="4FWtqKkLlV3kMwXZtPkh-209" target="4FWtqKkLlV3kMwXZtPkh-33" edge="1">
          <mxGeometry width="160" relative="1" as="geometry">
            <mxPoint x="40" y="1290" as="sourcePoint" />
            <mxPoint x="200" y="1290" as="targetPoint" />
            <Array as="points">
              <mxPoint x="480" y="1200" />
            </Array>
          </mxGeometry>
        </mxCell>
        <mxCell id="4FWtqKkLlV3kMwXZtPkh-217" value="Use" style="endArrow=open;endSize=12;dashed=1;html=1;rounded=0;entryX=0.422;entryY=0.967;entryDx=0;entryDy=0;entryPerimeter=0;" parent="1" source="4FWtqKkLlV3kMwXZtPkh-209" target="4FWtqKkLlV3kMwXZtPkh-35" edge="1">
          <mxGeometry x="0.0014" y="13" width="160" relative="1" as="geometry">
            <mxPoint x="630" y="1260" as="sourcePoint" />
            <mxPoint x="790" y="1260" as="targetPoint" />
            <Array as="points">
              <mxPoint x="800" y="1610" />
            </Array>
            <mxPoint y="1" as="offset" />
          </mxGeometry>
        </mxCell>
        <mxCell id="4FWtqKkLlV3kMwXZtPkh-218" value="Use" style="endArrow=open;endSize=12;dashed=1;html=1;rounded=0;" parent="1" source="4FWtqKkLlV3kMwXZtPkh-209" target="4FWtqKkLlV3kMwXZtPkh-174" edge="1">
          <mxGeometry width="160" relative="1" as="geometry">
            <mxPoint x="630" y="1260" as="sourcePoint" />
            <mxPoint x="790" y="1260" as="targetPoint" />
            <Array as="points">
              <mxPoint x="1660" y="1650" />
              <mxPoint x="1820" y="930" />
            </Array>
          </mxGeometry>
        </mxCell>
        <mxCell id="4FWtqKkLlV3kMwXZtPkh-219" value="GroupBuilderinterface" style="swimlane;fontStyle=0;childLayout=stackLayout;horizontal=1;startSize=26;fillColor=none;horizontalStack=0;resizeParent=1;resizeParentMax=0;resizeLast=0;collapsible=1;marginBottom=0;whiteSpace=wrap;html=1;" parent="1" vertex="1">
          <mxGeometry x="-330" y="1604" width="140" height="78" as="geometry" />
        </mxCell>
        <mxCell id="4FWtqKkLlV3kMwXZtPkh-220" value="+save():void" style="text;strokeColor=none;fillColor=none;align=left;verticalAlign=top;spacingLeft=4;spacingRight=4;overflow=hidden;rotatable=0;points=[[0,0.5],[1,0.5]];portConstraint=eastwest;whiteSpace=wrap;html=1;" parent="4FWtqKkLlV3kMwXZtPkh-219" vertex="1">
          <mxGeometry y="26" width="140" height="26" as="geometry" />
        </mxCell>
        <mxCell id="4FWtqKkLlV3kMwXZtPkh-221" value="+load():void" style="text;strokeColor=none;fillColor=none;align=left;verticalAlign=top;spacingLeft=4;spacingRight=4;overflow=hidden;rotatable=0;points=[[0,0.5],[1,0.5]];portConstraint=eastwest;whiteSpace=wrap;html=1;" parent="4FWtqKkLlV3kMwXZtPkh-219" vertex="1">
          <mxGeometry y="52" width="140" height="26" as="geometry" />
        </mxCell>
        <mxCell id="4FWtqKkLlV3kMwXZtPkh-223" value="GroupbuilderConcerete" style="swimlane;fontStyle=0;childLayout=stackLayout;horizontal=1;startSize=26;fillColor=none;horizontalStack=0;resizeParent=1;resizeParentMax=0;resizeLast=0;collapsible=1;marginBottom=0;whiteSpace=wrap;html=1;" parent="1" vertex="1">
          <mxGeometry x="-330" y="1780" width="140" height="156" as="geometry" />
        </mxCell>
        <mxCell id="4FWtqKkLlV3kMwXZtPkh-224" value="+serName():voi" style="text;strokeColor=none;fillColor=none;align=left;verticalAlign=top;spacingLeft=4;spacingRight=4;overflow=hidden;rotatable=0;points=[[0,0.5],[1,0.5]];portConstraint=eastwest;whiteSpace=wrap;html=1;" parent="4FWtqKkLlV3kMwXZtPkh-223" vertex="1">
          <mxGeometry y="26" width="140" height="26" as="geometry" />
        </mxCell>
        <mxCell id="4FWtqKkLlV3kMwXZtPkh-225" value="+setGroupID():void" style="text;strokeColor=none;fillColor=none;align=left;verticalAlign=top;spacingLeft=4;spacingRight=4;overflow=hidden;rotatable=0;points=[[0,0.5],[1,0.5]];portConstraint=eastwest;whiteSpace=wrap;html=1;" parent="4FWtqKkLlV3kMwXZtPkh-223" vertex="1">
          <mxGeometry y="52" width="140" height="26" as="geometry" />
        </mxCell>
        <mxCell id="4FWtqKkLlV3kMwXZtPkh-226" value="+setPrimaryAdmin()" style="text;strokeColor=none;fillColor=none;align=left;verticalAlign=top;spacingLeft=4;spacingRight=4;overflow=hidden;rotatable=0;points=[[0,0.5],[1,0.5]];portConstraint=eastwest;whiteSpace=wrap;html=1;" parent="4FWtqKkLlV3kMwXZtPkh-223" vertex="1">
          <mxGeometry y="78" width="140" height="26" as="geometry" />
        </mxCell>
        <mxCell id="4FWtqKkLlV3kMwXZtPkh-238" value="+setProfilePHoto" style="text;strokeColor=none;fillColor=none;align=left;verticalAlign=top;spacingLeft=4;spacingRight=4;overflow=hidden;rotatable=0;points=[[0,0.5],[1,0.5]];portConstraint=eastwest;whiteSpace=wrap;html=1;" parent="4FWtqKkLlV3kMwXZtPkh-223" vertex="1">
          <mxGeometry y="104" width="140" height="26" as="geometry" />
        </mxCell>
        <mxCell id="4FWtqKkLlV3kMwXZtPkh-237" value="+build():void" style="text;strokeColor=none;fillColor=none;align=left;verticalAlign=top;spacingLeft=4;spacingRight=4;overflow=hidden;rotatable=0;points=[[0,0.5],[1,0.5]];portConstraint=eastwest;whiteSpace=wrap;html=1;" parent="4FWtqKkLlV3kMwXZtPkh-223" vertex="1">
          <mxGeometry y="130" width="140" height="26" as="geometry" />
        </mxCell>
        <mxCell id="4FWtqKkLlV3kMwXZtPkh-227" value="" style="endArrow=block;dashed=1;endFill=0;endSize=12;html=1;rounded=0;exitX=0.75;exitY=0;exitDx=0;exitDy=0;" parent="1" source="4FWtqKkLlV3kMwXZtPkh-223" edge="1">
          <mxGeometry width="160" relative="1" as="geometry">
            <mxPoint x="40" y="1390" as="sourcePoint" />
            <mxPoint x="-230" y="1710" as="targetPoint" />
          </mxGeometry>
        </mxCell>
        <mxCell id="4FWtqKkLlV3kMwXZtPkh-228" value="implements" style="edgeLabel;html=1;align=center;verticalAlign=middle;resizable=0;points=[];" parent="4FWtqKkLlV3kMwXZtPkh-227" vertex="1" connectable="0">
          <mxGeometry x="-0.1728" y="-1" relative="1" as="geometry">
            <mxPoint y="1" as="offset" />
          </mxGeometry>
        </mxCell>
        <mxCell id="4FWtqKkLlV3kMwXZtPkh-229" value="build" style="endArrow=open;endSize=12;dashed=1;html=1;rounded=0;" parent="1" source="4FWtqKkLlV3kMwXZtPkh-223" target="4FWtqKkLlV3kMwXZtPkh-205" edge="1">
          <mxGeometry width="160" relative="1" as="geometry">
            <mxPoint x="-550" y="1990" as="sourcePoint" />
            <mxPoint x="-390" y="1990" as="targetPoint" />
          </mxGeometry>
        </mxCell>
        <mxCell id="4FWtqKkLlV3kMwXZtPkh-230" value="Use" style="endArrow=open;endSize=12;dashed=1;html=1;rounded=0;exitX=0.25;exitY=0;exitDx=0;exitDy=0;entryX=0.75;entryY=0;entryDx=0;entryDy=0;" parent="1" source="4FWtqKkLlV3kMwXZtPkh-187" target="4FWtqKkLlV3kMwXZtPkh-205" edge="1">
          <mxGeometry width="160" relative="1" as="geometry">
            <mxPoint x="680" y="1450" as="sourcePoint" />
            <mxPoint x="840" y="1450" as="targetPoint" />
          </mxGeometry>
        </mxCell>
        <mxCell id="4FWtqKkLlV3kMwXZtPkh-231" value="Use" style="endArrow=open;endSize=12;dashed=1;html=1;rounded=0;exitX=0.75;exitY=0;exitDx=0;exitDy=0;entryX=0.5;entryY=1;entryDx=0;entryDy=0;" parent="1" source="4FWtqKkLlV3kMwXZtPkh-187" target="4FWtqKkLlV3kMwXZtPkh-33" edge="1">
          <mxGeometry width="160" relative="1" as="geometry">
            <mxPoint x="680" y="1450" as="sourcePoint" />
            <mxPoint x="230" y="1150" as="targetPoint" />
            <Array as="points">
              <mxPoint x="240" y="1170" />
            </Array>
          </mxGeometry>
        </mxCell>
        <mxCell id="9DrkVR1jagXuf6E-1eaQ-1" value="&lt;p style=&quot;margin:0px;margin-top:4px;text-align:center;&quot;&gt;&lt;i&gt;&amp;lt;&amp;lt;interface&amp;gt;&amp;gt;&lt;/i&gt;&lt;br&gt;&lt;b&gt;INotfDatabase&lt;/b&gt;&lt;/p&gt;&lt;hr size=&quot;1&quot;&gt;&lt;p style=&quot;margin:0 0 0 4px;line-height:1.6;&quot;&gt;+ addNotification(Notification notification): boolean&lt;/p&gt;&lt;p style=&quot;margin:0 0 0 4px;line-height:1.6;&quot;&gt;+ removeNotification(String Id): boolean&lt;/p&gt;&lt;p style=&quot;margin:0 0 0 4px;line-height:1.6;&quot;&gt;+ getNotification(String Id): Notification&amp;nbsp;&lt;/p&gt;" style="verticalAlign=top;align=left;overflow=fill;fontSize=14;fontFamily=Helvetica;html=1;rounded=0;shadow=0;comic=0;labelBackgroundColor=none;strokeWidth=1;" parent="1" vertex="1">
          <mxGeometry x="1910" y="671.5" width="280" height="136" as="geometry" />
        </mxCell>
        <mxCell id="9DrkVR1jagXuf6E-1eaQ-2" value="Extends" style="endArrow=block;endSize=16;endFill=0;html=1;rounded=0;exitX=0.5;exitY=0;exitDx=0;exitDy=0;" parent="1" source="9DrkVR1jagXuf6E-1eaQ-1" edge="1">
          <mxGeometry width="160" relative="1" as="geometry">
            <mxPoint x="1643" y="716" as="sourcePoint" />
            <mxPoint x="1207" y="615" as="targetPoint" />
          </mxGeometry>
        </mxCell>
        <mxCell id="9DrkVR1jagXuf6E-1eaQ-3" value="&lt;p style=&quot;margin:0px;margin-top:4px;text-align:center;&quot;&gt;&lt;b&gt;NotfDatabase&lt;/b&gt;&lt;/p&gt;&lt;hr size=&quot;1&quot;&gt;&lt;p style=&quot;margin:0 0 0 4px;line-height:1.6;&quot;&gt;- database: NotfDatabase&lt;br&gt;- notification_json: String&lt;/p&gt;&lt;p style=&quot;margin:0 0 0 4px;line-height:1.6;&quot;&gt;- Notification: List&amp;lt;Notification&amp;gt;&lt;/p&gt;&lt;hr size=&quot;1&quot;&gt;&lt;p style=&quot;margin:0 0 0 4px;line-height:1.6;&quot;&gt;+&amp;nbsp;getInstance() : NotfDatabase&lt;/p&gt;&lt;p style=&quot;margin:0 0 0 4px;line-height:1.6;&quot;&gt;+&amp;nbsp;&amp;nbsp;innerLoad(): void&lt;/p&gt;&lt;p style=&quot;margin:0 0 0 4px;line-height:1.6;&quot;&gt;+ getNotification(String Id): Notification&lt;/p&gt;" style="verticalAlign=top;align=left;overflow=fill;fontSize=14;fontFamily=Helvetica;html=1;rounded=0;shadow=0;comic=0;labelBackgroundColor=none;strokeWidth=1;" parent="1" vertex="1">
          <mxGeometry x="1921.5" y="990" width="257" height="218" as="geometry" />
        </mxCell>
        <mxCell id="9DrkVR1jagXuf6E-1eaQ-4" value="implements" style="html=1;verticalAlign=bottom;endArrow=open;dashed=1;endSize=8;curved=0;rounded=0;entryX=0.5;entryY=1;entryDx=0;entryDy=0;" parent="1" target="9DrkVR1jagXuf6E-1eaQ-1" edge="1">
          <mxGeometry relative="1" as="geometry">
            <mxPoint x="2050" y="980" as="sourcePoint" />
            <mxPoint x="2044" y="830" as="targetPoint" />
          </mxGeometry>
        </mxCell>
        <mxCell id="9DrkVR1jagXuf6E-1eaQ-13" value="Notification" style="swimlane;fontStyle=0;childLayout=stackLayout;horizontal=1;startSize=26;fillColor=none;horizontalStack=0;resizeParent=1;resizeParentMax=0;resizeLast=0;collapsible=1;marginBottom=0;whiteSpace=wrap;html=1;" parent="1" vertex="1">
          <mxGeometry x="1925" y="1598" width="140" height="120" as="geometry" />
        </mxCell>
        <mxCell id="9DrkVR1jagXuf6E-1eaQ-14" value="- Id: String&lt;div&gt;- content: String&lt;/div&gt;" style="text;strokeColor=none;fillColor=none;align=left;verticalAlign=top;spacingLeft=4;spacingRight=4;overflow=hidden;rotatable=0;points=[[0,0.5],[1,0.5]];portConstraint=eastwest;whiteSpace=wrap;html=1;" parent="9DrkVR1jagXuf6E-1eaQ-13" vertex="1">
          <mxGeometry y="26" width="140" height="44" as="geometry" />
        </mxCell>
        <mxCell id="9DrkVR1jagXuf6E-1eaQ-18" value="+ getId(): String&lt;div&gt;+ getSContent(): String&lt;/div&gt;" style="text;strokeColor=none;fillColor=none;align=left;verticalAlign=top;spacingLeft=4;spacingRight=4;overflow=hidden;rotatable=0;points=[[0,0.5],[1,0.5]];portConstraint=eastwest;whiteSpace=wrap;html=1;" parent="9DrkVR1jagXuf6E-1eaQ-13" vertex="1">
          <mxGeometry y="70" width="140" height="50" as="geometry" />
        </mxCell>
        <mxCell id="9DrkVR1jagXuf6E-1eaQ-21" value="" style="endArrow=none;html=1;rounded=0;entryX=1.002;entryY=0.909;entryDx=0;entryDy=0;entryPerimeter=0;" parent="9DrkVR1jagXuf6E-1eaQ-13" target="9DrkVR1jagXuf6E-1eaQ-14" edge="1">
          <mxGeometry width="50" height="50" relative="1" as="geometry">
            <mxPoint y="66" as="sourcePoint" />
            <mxPoint x="-55" y="92" as="targetPoint" />
          </mxGeometry>
        </mxCell>
        <mxCell id="9DrkVR1jagXuf6E-1eaQ-20" value="&lt;p style=&quot;margin:0px;margin-top:4px;text-align:center;&quot;&gt;&lt;i&gt;&amp;lt;&amp;lt;interface&amp;gt;&amp;gt;&lt;/i&gt;&lt;br&gt;&lt;b&gt;INotification&lt;/b&gt;&lt;/p&gt;&lt;hr size=&quot;1&quot;&gt;&lt;p style=&quot;margin:0 0 0 4px;line-height:1.6;&quot;&gt;+ setId(String Id&lt;span style=&quot;background-color: initial;&quot;&gt;): void&lt;/span&gt;&lt;/p&gt;&lt;p style=&quot;margin:0 0 0 4px;line-height:1.6;&quot;&gt;+ getId(): String&lt;/p&gt;&lt;p style=&quot;margin:0 0 0 4px;line-height:1.6;&quot;&gt;+ getSContent(): String&lt;/p&gt;&lt;p style=&quot;margin:0 0 0 4px;line-height:1.6;&quot;&gt;+ setSContent(String Content): void&amp;nbsp;&lt;/p&gt;" style="verticalAlign=top;align=left;overflow=fill;fontSize=14;fontFamily=Helvetica;html=1;rounded=0;shadow=0;comic=0;labelBackgroundColor=none;strokeWidth=1;" parent="1" vertex="1">
          <mxGeometry x="1870" y="1401.25" width="250" height="148.75" as="geometry" />
        </mxCell>
        <mxCell id="9DrkVR1jagXuf6E-1eaQ-22" value="implements" style="html=1;verticalAlign=bottom;endArrow=open;dashed=1;endSize=8;curved=0;rounded=0;entryX=0.5;entryY=1;entryDx=0;entryDy=0;exitX=0.5;exitY=0;exitDx=0;exitDy=0;" parent="1" source="9DrkVR1jagXuf6E-1eaQ-13" target="9DrkVR1jagXuf6E-1eaQ-20" edge="1">
          <mxGeometry relative="1" as="geometry">
            <mxPoint x="2060" y="990" as="sourcePoint" />
            <mxPoint x="2060" y="818" as="targetPoint" />
          </mxGeometry>
        </mxCell>
        <mxCell id="9DrkVR1jagXuf6E-1eaQ-24" value="FriendNotfication" style="swimlane;fontStyle=0;childLayout=stackLayout;horizontal=1;startSize=26;fillColor=none;horizontalStack=0;resizeParent=1;resizeParentMax=0;resizeLast=0;collapsible=1;marginBottom=0;whiteSpace=wrap;html=1;" parent="1" vertex="1">
          <mxGeometry x="2100" y="1760" width="140" height="170" as="geometry" />
        </mxCell>
        <mxCell id="9DrkVR1jagXuf6E-1eaQ-25" value="- user: User" style="text;strokeColor=none;fillColor=none;align=left;verticalAlign=top;spacingLeft=4;spacingRight=4;overflow=hidden;rotatable=0;points=[[0,0.5],[1,0.5]];portConstraint=eastwest;whiteSpace=wrap;html=1;" parent="9DrkVR1jagXuf6E-1eaQ-24" vertex="1">
          <mxGeometry y="26" width="140" height="24" as="geometry" />
        </mxCell>
        <mxCell id="9DrkVR1jagXuf6E-1eaQ-26" value="+ getContent(): User&lt;div&gt;+ setContent(User user): void&lt;/div&gt;&lt;div&gt;+ toStringAccepted(): void&lt;/div&gt;&lt;div&gt;+ toStringRecieved(): void&amp;nbsp;&lt;/div&gt;" style="text;strokeColor=none;fillColor=none;align=left;verticalAlign=top;spacingLeft=4;spacingRight=4;overflow=hidden;rotatable=0;points=[[0,0.5],[1,0.5]];portConstraint=eastwest;whiteSpace=wrap;html=1;" parent="9DrkVR1jagXuf6E-1eaQ-24" vertex="1">
          <mxGeometry y="50" width="140" height="120" as="geometry" />
        </mxCell>
        <mxCell id="9DrkVR1jagXuf6E-1eaQ-27" value="" style="endArrow=none;html=1;rounded=0;entryX=1.002;entryY=0.909;entryDx=0;entryDy=0;entryPerimeter=0;exitX=-0.003;exitY=-0.004;exitDx=0;exitDy=0;exitPerimeter=0;" parent="9DrkVR1jagXuf6E-1eaQ-24" source="9DrkVR1jagXuf6E-1eaQ-26" target="9DrkVR1jagXuf6E-1eaQ-25" edge="1">
          <mxGeometry width="50" height="50" relative="1" as="geometry">
            <mxPoint y="66" as="sourcePoint" />
            <mxPoint x="-55" y="92" as="targetPoint" />
          </mxGeometry>
        </mxCell>
        <mxCell id="9DrkVR1jagXuf6E-1eaQ-28" value="GroupNotification" style="swimlane;fontStyle=0;childLayout=stackLayout;horizontal=1;startSize=26;fillColor=none;horizontalStack=0;resizeParent=1;resizeParentMax=0;resizeLast=0;collapsible=1;marginBottom=0;whiteSpace=wrap;html=1;" parent="1" vertex="1">
          <mxGeometry x="1785" y="1760" width="150" height="140" as="geometry" />
        </mxCell>
        <mxCell id="9DrkVR1jagXuf6E-1eaQ-29" value="- groupId: String&lt;div&gt;- contentId: String&lt;/div&gt;&lt;div&gt;- userId: String&lt;/div&gt;" style="text;strokeColor=none;fillColor=none;align=left;verticalAlign=top;spacingLeft=4;spacingRight=4;overflow=hidden;rotatable=0;points=[[0,0.5],[1,0.5]];portConstraint=eastwest;whiteSpace=wrap;html=1;" parent="9DrkVR1jagXuf6E-1eaQ-28" vertex="1">
          <mxGeometry y="26" width="150" height="44" as="geometry" />
        </mxCell>
        <mxCell id="9DrkVR1jagXuf6E-1eaQ-30" value="+ toStringNewPost() : void&lt;div&gt;+ toStringAccepted(): void&lt;/div&gt;&lt;div&gt;+ toStringRequest(): void&lt;/div&gt;&lt;div&gt;+ toStringStatus(): void&lt;/div&gt;" style="text;strokeColor=none;fillColor=none;align=left;verticalAlign=top;spacingLeft=4;spacingRight=4;overflow=hidden;rotatable=0;points=[[0,0.5],[1,0.5]];portConstraint=eastwest;whiteSpace=wrap;html=1;" parent="9DrkVR1jagXuf6E-1eaQ-28" vertex="1">
          <mxGeometry y="70" width="150" height="70" as="geometry" />
        </mxCell>
        <mxCell id="9DrkVR1jagXuf6E-1eaQ-31" value="" style="endArrow=none;html=1;rounded=0;entryX=0.996;entryY=0.134;entryDx=0;entryDy=0;entryPerimeter=0;exitX=-0.012;exitY=0.124;exitDx=0;exitDy=0;exitPerimeter=0;" parent="9DrkVR1jagXuf6E-1eaQ-28" source="9DrkVR1jagXuf6E-1eaQ-30" target="9DrkVR1jagXuf6E-1eaQ-30" edge="1">
          <mxGeometry width="50" height="50" relative="1" as="geometry">
            <mxPoint y="66" as="sourcePoint" />
            <mxPoint x="-55" y="92" as="targetPoint" />
          </mxGeometry>
        </mxCell>
        <mxCell id="9DrkVR1jagXuf6E-1eaQ-32" value="Extends" style="endArrow=block;endSize=16;endFill=0;html=1;rounded=0;entryX=0.499;entryY=1.036;entryDx=0;entryDy=0;entryPerimeter=0;exitX=1;exitY=0;exitDx=0;exitDy=0;" parent="1" source="9DrkVR1jagXuf6E-1eaQ-28" target="9DrkVR1jagXuf6E-1eaQ-18" edge="1">
          <mxGeometry width="160" relative="1" as="geometry">
            <mxPoint x="1025" y="1510" as="sourcePoint" />
            <mxPoint x="1021" y="1460" as="targetPoint" />
          </mxGeometry>
        </mxCell>
        <mxCell id="9DrkVR1jagXuf6E-1eaQ-33" value="Extends" style="endArrow=block;endSize=16;endFill=0;html=1;rounded=0;entryX=0.5;entryY=1;entryDx=0;entryDy=0;exitX=0;exitY=0;exitDx=0;exitDy=0;" parent="1" source="9DrkVR1jagXuf6E-1eaQ-24" target="9DrkVR1jagXuf6E-1eaQ-13" edge="1">
          <mxGeometry width="160" relative="1" as="geometry">
            <mxPoint x="1945" y="1770" as="sourcePoint" />
            <mxPoint x="2005" y="1730" as="targetPoint" />
          </mxGeometry>
        </mxCell>
        <mxCell id="9DrkVR1jagXuf6E-1eaQ-34" value="Use" style="endArrow=open;endSize=12;dashed=1;html=1;rounded=0;exitX=1;exitY=0.5;exitDx=0;exitDy=0;entryX=0;entryY=0.5;entryDx=0;entryDy=0;" parent="1" source="4FWtqKkLlV3kMwXZtPkh-239" target="9DrkVR1jagXuf6E-1eaQ-29" edge="1">
          <mxGeometry width="160" relative="1" as="geometry">
            <mxPoint x="420" y="1740" as="sourcePoint" />
            <mxPoint x="580" y="1740" as="targetPoint" />
            <Array as="points">
              <mxPoint x="220" y="2000" />
              <mxPoint x="960" y="2000" />
            </Array>
          </mxGeometry>
        </mxCell>
        <mxCell id="9DrkVR1jagXuf6E-1eaQ-35" value="Use" style="endArrow=open;endSize=12;dashed=1;html=1;rounded=0;exitX=0;exitY=0.5;exitDx=0;exitDy=0;" parent="1" source="9DrkVR1jagXuf6E-1eaQ-26" edge="1">
          <mxGeometry width="160" relative="1" as="geometry">
            <mxPoint x="571" y="911" as="sourcePoint" />
            <mxPoint x="331" y="859" as="targetPoint" />
            <Array as="points">
              <mxPoint x="920" y="1940" />
            </Array>
          </mxGeometry>
        </mxCell>
        <mxCell id="9DrkVR1jagXuf6E-1eaQ-37" value="" style="endArrow=diamondThin;endFill=1;endSize=24;html=1;rounded=0;entryX=0.5;entryY=1;entryDx=0;entryDy=0;exitX=0;exitY=0.5;exitDx=0;exitDy=0;" parent="1" source="9DrkVR1jagXuf6E-1eaQ-14" target="4FWtqKkLlV3kMwXZtPkh-97" edge="1">
          <mxGeometry width="160" relative="1" as="geometry">
            <mxPoint x="-198.00000000000045" y="652.8005977796756" as="sourcePoint" />
            <mxPoint x="170" y="808" as="targetPoint" />
            <Array as="points">
              <mxPoint x="900" y="1740" />
              <mxPoint x="10" y="1400" />
            </Array>
          </mxGeometry>
        </mxCell>
        <mxCell id="9DrkVR1jagXuf6E-1eaQ-38" value="Use" style="endArrow=open;endSize=12;dashed=1;html=1;rounded=0;entryX=0.5;entryY=1;entryDx=0;entryDy=0;exitX=0.5;exitY=0;exitDx=0;exitDy=0;" parent="1" source="9DrkVR1jagXuf6E-1eaQ-20" target="9DrkVR1jagXuf6E-1eaQ-3" edge="1">
          <mxGeometry width="160" relative="1" as="geometry">
            <mxPoint x="1990" y="1360" as="sourcePoint" />
            <mxPoint x="2150" y="1360" as="targetPoint" />
          </mxGeometry>
        </mxCell>
        <mxCell id="9DrkVR1jagXuf6E-1eaQ-39" value="&lt;p style=&quot;margin:0px;margin-top:4px;text-align:center;&quot;&gt;&lt;b&gt;GroupsDatabase&lt;/b&gt;&lt;/p&gt;&lt;hr size=&quot;1&quot;&gt;&lt;p style=&quot;margin:0 0 0 4px;line-height:1.6;&quot;&gt;- database: GroupDatabase&lt;br&gt;- groupJson: String&lt;/p&gt;&lt;p style=&quot;margin:0 0 0 4px;line-height:1.6;&quot;&gt;- groups: List&amp;lt;Group&amp;gt;&lt;/p&gt;&lt;hr size=&quot;1&quot;&gt;&lt;p style=&quot;margin:0 0 0 4px;line-height:1.6;&quot;&gt;+&amp;nbsp;getInstance() : GroupsDatabase&lt;/p&gt;&lt;p style=&quot;margin:0 0 0 4px;line-height:1.6;&quot;&gt;+&amp;nbsp;&amp;nbsp;innerLoad(): void&lt;/p&gt;&lt;p style=&quot;margin:0 0 0 4px;line-height:1.6;&quot;&gt;+ getGroup(String Id): Group&lt;/p&gt;&lt;p style=&quot;margin:0 0 0 4px;line-height:1.6;&quot;&gt;+ numberOfJSONObjects(): void&lt;/p&gt;&lt;p style=&quot;margin:0 0 0 4px;line-height:1.6;&quot;&gt;+ deserializeUsers(): ArrayList&amp;lt;Group&lt;span style=&quot;background-color: initial;&quot;&gt;&amp;gt;&lt;/span&gt;&lt;/p&gt;&lt;p style=&quot;margin:0 0 0 4px;line-height:1.6;&quot;&gt;&lt;span style=&quot;background-color: initial;&quot;&gt;&lt;br&gt;&lt;/span&gt;&lt;/p&gt;" style="verticalAlign=top;align=left;overflow=fill;fontSize=14;fontFamily=Helvetica;html=1;rounded=0;shadow=0;comic=0;labelBackgroundColor=none;strokeWidth=1;" parent="1" vertex="1">
          <mxGeometry x="1510" y="930" width="257" height="230" as="geometry" />
        </mxCell>
      </root>
    </mxGraphModel>
  </diagram>
</mxfile>
